G04*
G04 #@! TF.GenerationSoftware,Altium Limited,Altium Designer,22.11.1 (43)*
G04*
G04 Layer_Color=8421504*
%FSAX25Y25*%
%MOIN*%
G70*
G04*
G04 #@! TF.SameCoordinates,EBA4B4AC-1B08-4463-AFC9-2197B451F785*
G04*
G04*
G04 #@! TF.FilePolarity,Positive*
G04*
G01*
G75*
%ADD17R,0.04331X0.03937*%
%ADD18R,0.03937X0.04331*%
%ADD19R,0.18300X0.02400*%
%ADD20R,0.07087X0.05906*%
D17*
X0558465Y0236614D02*
D03*
X0565157D02*
D03*
X0185827Y0124882D02*
D03*
X0179134D02*
D03*
X0123228Y0109843D02*
D03*
X0129921D02*
D03*
X0123228Y0150394D02*
D03*
X0129921D02*
D03*
X0123228Y0190157D02*
D03*
X0129921D02*
D03*
X0313583Y0124803D02*
D03*
X0320275D02*
D03*
X0353543Y0124803D02*
D03*
X0360236D02*
D03*
X0393307Y0124803D02*
D03*
X0400000D02*
D03*
X0433620Y0125211D02*
D03*
X0440312D02*
D03*
X0473622Y0125197D02*
D03*
X0480315D02*
D03*
X0280315Y0124803D02*
D03*
X0273622D02*
D03*
D18*
X0202756Y0131496D02*
D03*
Y0124803D02*
D03*
X0109843Y0157087D02*
D03*
Y0150394D02*
D03*
Y0117323D02*
D03*
Y0110630D02*
D03*
Y0197638D02*
D03*
Y0190945D02*
D03*
X0515354Y0096457D02*
D03*
Y0103149D02*
D03*
D19*
X0616142Y0159449D02*
D03*
Y0163386D02*
D03*
Y0167323D02*
D03*
Y0171260D02*
D03*
Y0175197D02*
D03*
Y0179134D02*
D03*
Y0183071D02*
D03*
Y0190945D02*
D03*
Y0194882D02*
D03*
Y0202756D02*
D03*
Y0206693D02*
D03*
Y0210630D02*
D03*
Y0214567D02*
D03*
Y0218504D02*
D03*
Y0222441D02*
D03*
Y0226378D02*
D03*
Y0230315D02*
D03*
Y0198819D02*
D03*
Y0234252D02*
D03*
D20*
X0529528Y0097244D02*
D03*
Y0085433D02*
D03*
M02*
