M48
;Layer_Color=9474304
;FILE_FORMAT=2:5
INCH
;TYPE=PLATED
T1F00S00C0.01500
T2F00S00C0.02000
T3F00S00C0.03543
T4F00S00C0.04000
T5F00S00C0.05500
T6F00S00C0.06299
T7F00S00C0.13780
;TYPE=NON_PLATED
T8F00S00C0.12598
%
T01
X0580709Y0143701
Y0149606
Y0155512
X0574803
X0568898
X0556693Y0209449
X0552362
Y0205512
X0544488Y0205906
X0538189
X0531496
X0525197
X0518898
X0512598
X0505905
X0499606
X0493307
X0487008
X0480315
X0474016
X0467717
X0461417
X0454724
X0448425
X0442126
X0435827
X0429134
X0422835
X0416535
X0410236
X0403543
X0397244
X0390945
X0384646
X0377953
X0371654
X0365354
X0359055
X0352362
X0346063
X0339764
X0333465
X0326772
X0320472
X0314173
X0275590
X0269291
X0262992
X0256693
X0250000
X0243701
X0237402
X0231102
X0224410
X0218110
X0211811
X0205512
X0198819
X0192520
X0186221
X0179921
X0173228
X0166929
X0160630
X0154331
X0147638
X0141339
X0135039
X0128740
X0122047
X0115748
X0109449
X0103150
X0096457
X0090158
X0083858
X0077559
X0070866
X0064567
Y0211811
Y0216929
Y0222047
Y0227165
Y0232283
Y0238189
X0103150
X0109449
X0115748
X0122047
X0128740
X0135039
X0141291
X0147638
X0154331
X0166929
X0173228
X0179921
X0186221
X0192520
X0198819
X0205512
X0211811
X0231102
X0237402
X0243701
X0250000
X0256693
X0262992
X0269291
X0275590
X0282283
X0288583
X0294488
X0314173
X0320472
X0326772
X0333465
X0339764
X0346063
X0352362
X0359055
X0365748
X0371654
X0390945
X0397244
X0403543
X0410236
X0416535
X0422835
X0429921
X0436614
X0442126
X0448425
X0454724
X0474016
X0480315
X0487008
X0493307
X0500000
X0506299
X0512598
X0518898
X0525197
X0531496
X0538189
X0556693Y0213386
X0561024Y0213386
Y0217323
X0565354
Y0221260
X0569685
Y0225197
X0574016
Y0229134
X0578346
Y0233071
X0594488Y0232283
T02
X0400000Y0132902
X0440551Y0134252
X0480315Y0133295
X0487008Y0114567
X0515354Y0117717
X0518110Y0084252
X0500394Y0089370
X0360236Y0132901
X0320275Y0132901
X0280315Y0132902
X0213779Y0131496
X0192126Y0132677
X0179134Y0132980
X0138583Y0150394
X0118110Y0157087
Y0117323
X0138583Y0109843
Y0190157
X0118110Y0197638
T03
X0042913Y0253937
X0052913
X0047913Y0263937
X0057913
X0067913
X0077913
X0072913Y0253937
X0062913
X0123504Y0253583
X0133504
X0143504
X0153504
X0158504Y0263583
X0148504
X0138504
X0128504
X0209606Y0263583
X0204606Y0253583
X0214606
X0224606
X0234606
X0239606Y0263583
X0229606
X0219606
X0290551Y0263386
X0300551
X0310551
X0320551
X0315551Y0253386
X0305551
X0295551
X0285551
X0367315Y0253358
X0377315
X0387315
X0397315
X0402315Y0263358
X0392315
X0382315
X0372315
X0453417
X0463417
X0473417
X0483417
X0478417Y0253358
X0468417
X0458417
X0448417
X0529055Y0253543
X0539055
X0549055
X0559055
X0554055Y0263543
X0544055
X0534055
X0564055
T04
X0393307Y0075197
X0403465
Y0105197
X0413465
X0423465
X0433465
X0443386Y0105118
X0453386
X0463386
X0473386
Y0075118
X0443386
X0433465Y0075197
X0393307Y0105197
X0383307
X0373307
X0383071Y0145669
X0406693
X0423228
X0447244
X0465748
X0366929
X0343701
X0327165
X0303543
X0287008
X0264173
X0248031
X0217717
X0243622Y0105118
X0253622
X0263622
X0273622
X0283543
X0293543
X0303543
X0313543
X0323543Y0105197
X0333543
X0343543
X0353543
X0363307
Y0075197
X0353543
X0323543
X0313543Y0075118
X0283543
X0273622
X0243622
X0209134Y0075197
X0179134
Y0105197
X0189134
X0199134
X0209134
X0139370Y0090945
X0118110
X0083504Y0087756
Y0097756
Y0107756
Y0117756
X0083543Y0127559
Y0137559
Y0147559
Y0157559
Y0167717
Y0177717
Y0187716
Y0197716
X0118110Y0171260
X0139370
Y0131102
X0118110
X0053543Y0127559
X0053504Y0117756
Y0087756
X0053543Y0157559
Y0167717
Y0197716
T05
X0529134Y0072047
X0515354
T06
X0029409Y0300945
X0091417
X0110000Y0300591
X0172008
X0191102Y0300590
X0253110
X0272047Y0300394
X0334055
X0353811Y0300366
X0415819
X0434913
X0496921
X0515551Y0300551
X0577559
T07
X0564961Y0061024
X0295276Y0200787
X0041339Y0061024
X0041565Y0336114
X0565187
T08
X0037913Y0288937
X0082913
X0118504Y0288583
X0163504
X0199606Y0288583
X0244606
X0280551Y0288386
X0325551
X0362315Y0288358
X0407315
X0443417
X0488417
X0524055Y0288543
X0569055
M30
