G04*
G04 #@! TF.GenerationSoftware,Altium Limited,Altium Designer,22.11.1 (43)*
G04*
G04 Layer_Color=32896*
%FSAX25Y25*%
%MOIN*%
G70*
G04*
G04 #@! TF.SameCoordinates,EBA4B4AC-1B08-4463-AFC9-2197B451F785*
G04*
G04*
G04 #@! TF.FilePolarity,Positive*
G04*
G01*
G75*
%ADD10C,0.01000*%
%ADD14C,0.00500*%
%ADD15C,0.00800*%
D10*
X0200197Y0240158D02*
X0215945D01*
Y0248031D01*
X0200197Y0240158D02*
Y0248031D01*
X0213976D01*
X0215945D01*
X0048819Y0246654D02*
Y0248622D01*
Y0232874D02*
Y0246654D01*
Y0232874D02*
X0056693D01*
X0048819Y0248622D02*
X0056693D01*
Y0232874D02*
Y0248622D01*
X0292323Y0248819D02*
X0294291D01*
X0278543D02*
X0292323D01*
X0278543Y0240945D02*
Y0248819D01*
X0294291Y0240945D02*
Y0248819D01*
X0278543Y0240945D02*
X0294291D01*
X0377953Y0248819D02*
X0379921D01*
X0364173D02*
X0377953D01*
X0364173Y0240945D02*
Y0248819D01*
X0379921Y0240945D02*
Y0248819D01*
X0364173Y0240945D02*
X0379921D01*
X0459449Y0248819D02*
X0461417D01*
X0445669D02*
X0459449D01*
X0445669Y0240945D02*
Y0248819D01*
X0461417Y0240945D02*
Y0248819D01*
X0445669Y0240945D02*
X0461417D01*
X0536417Y0249213D02*
X0538386D01*
X0522638D02*
X0536417D01*
X0522638Y0241339D02*
Y0249213D01*
X0538386Y0241339D02*
Y0249213D01*
X0522638Y0241339D02*
X0538386D01*
X0121457Y0240551D02*
X0137205D01*
Y0248425D01*
X0121457Y0240551D02*
Y0248425D01*
X0135236D01*
X0137205D01*
X0181693Y0128819D02*
X0183662D01*
X0167914D02*
X0181693D01*
X0167914Y0120945D02*
Y0128819D01*
X0183662Y0120945D02*
Y0128819D01*
X0167914Y0120945D02*
X0183662D01*
X0175197Y0097441D02*
Y0099410D01*
Y0083662D02*
Y0097441D01*
Y0083662D02*
X0183071D01*
X0175197Y0099410D02*
X0183071D01*
Y0083662D02*
Y0099410D01*
X0187402Y0075590D02*
Y0099213D01*
Y0075590D02*
X0199213D01*
Y0099213D01*
X0187402D02*
X0199213D01*
X0112401Y0201575D02*
X0114370D01*
X0098622D02*
X0112401D01*
X0098622Y0193701D02*
Y0201575D01*
X0114370Y0193701D02*
Y0201575D01*
X0098622Y0193701D02*
X0114370D01*
X0075000Y0091339D02*
X0076969D01*
X0061221D02*
X0075000D01*
X0061221Y0083465D02*
Y0091339D01*
X0076969Y0083465D02*
Y0091339D01*
X0061221Y0083465D02*
X0076969D01*
X0053150Y0108268D02*
X0076772D01*
X0053150Y0096457D02*
Y0108268D01*
Y0096457D02*
X0076772D01*
Y0108268D01*
X0075000Y0131496D02*
X0076969D01*
X0061221D02*
X0075000D01*
X0061221Y0123622D02*
Y0131496D01*
X0076969Y0123622D02*
Y0131496D01*
X0061221Y0123622D02*
X0076969D01*
X0112402Y0121260D02*
X0114370D01*
X0098622D02*
X0112402D01*
X0098622Y0113386D02*
Y0121260D01*
X0114370Y0113386D02*
Y0121260D01*
X0098622Y0113386D02*
X0114370D01*
X0053150Y0149606D02*
X0076772D01*
X0053150Y0137795D02*
Y0149606D01*
Y0137795D02*
X0076772D01*
Y0149606D01*
X0053543Y0190551D02*
X0077165D01*
X0053543Y0178740D02*
Y0190551D01*
Y0178740D02*
X0077165D01*
Y0190551D01*
X0075394Y0171653D02*
X0077362D01*
X0061614D02*
X0075394D01*
X0061614Y0163779D02*
Y0171653D01*
X0077362Y0163779D02*
Y0171653D01*
X0061614Y0163779D02*
X0077362D01*
X0112401Y0161417D02*
X0114370D01*
X0098622D02*
X0112401D01*
X0098622Y0153543D02*
Y0161417D01*
X0114370Y0153543D02*
Y0161417D01*
X0098622Y0153543D02*
X0114370D01*
X0251969Y0075590D02*
Y0099213D01*
Y0075590D02*
X0263779D01*
Y0099213D01*
X0251969D02*
X0263779D01*
X0292126Y0075598D02*
Y0099221D01*
Y0075598D02*
X0303937D01*
Y0099221D01*
X0292126D02*
X0303937D01*
X0331890Y0075590D02*
Y0099213D01*
Y0075590D02*
X0343701D01*
Y0099213D01*
X0331890D02*
X0343701D01*
X0371654Y0075590D02*
Y0099213D01*
Y0075590D02*
X0383465D01*
Y0099213D01*
X0371654D02*
X0383465D01*
X0411417Y0075598D02*
Y0099221D01*
Y0075598D02*
X0423228D01*
Y0099221D01*
X0411417D02*
X0423228D01*
X0451575Y0075197D02*
Y0098819D01*
Y0075197D02*
X0463386D01*
Y0098819D01*
X0451575D02*
X0463386D01*
X0275787Y0120866D02*
X0277756D01*
X0291535D01*
Y0128740D01*
X0275787Y0120866D02*
Y0128740D01*
X0291535D01*
X0315748Y0120866D02*
X0317716D01*
X0331496D01*
Y0128740D01*
X0315748Y0120866D02*
Y0128740D01*
X0331496D01*
X0355709Y0120866D02*
X0357677D01*
X0371457D01*
Y0128740D01*
X0355709Y0120866D02*
Y0128740D01*
X0371457D01*
X0395473Y0120866D02*
X0397441D01*
X0411221D01*
Y0128740D01*
X0395473Y0120866D02*
Y0128740D01*
X0411221D01*
X0435785Y0121274D02*
X0437753D01*
X0451533D01*
Y0129148D01*
X0435785Y0121274D02*
Y0129148D01*
X0451533D01*
X0475787Y0121260D02*
X0477756D01*
X0491535D01*
Y0129134D01*
X0475787Y0121260D02*
Y0129134D01*
X0491535D01*
X0239764Y0097441D02*
Y0099410D01*
Y0083662D02*
Y0097441D01*
Y0083662D02*
X0247638D01*
X0239764Y0099410D02*
X0247638D01*
Y0083662D02*
Y0099410D01*
X0279528Y0097441D02*
Y0099409D01*
Y0083661D02*
Y0097441D01*
Y0083661D02*
X0287402D01*
X0279528Y0099409D02*
X0287402D01*
Y0083661D02*
Y0099409D01*
X0319685Y0097441D02*
Y0099410D01*
Y0083662D02*
Y0097441D01*
Y0083662D02*
X0327559D01*
X0319685Y0099410D02*
X0327559D01*
Y0083662D02*
Y0099410D01*
X0359449Y0097441D02*
Y0099410D01*
Y0083662D02*
Y0097441D01*
Y0083662D02*
X0367323D01*
X0359449Y0099410D02*
X0367323D01*
Y0083662D02*
Y0099410D01*
X0399213Y0097441D02*
Y0099409D01*
Y0083661D02*
Y0097441D01*
Y0083661D02*
X0407087D01*
X0399213Y0099409D02*
X0407087D01*
Y0083661D02*
Y0099409D01*
X0439370Y0097047D02*
Y0099016D01*
Y0083268D02*
Y0097047D01*
Y0083268D02*
X0447244D01*
X0439370Y0099016D02*
X0447244D01*
Y0083268D02*
Y0099016D01*
D14*
X0598319Y0189870D02*
Y0191203D01*
X0597652Y0191869D01*
X0596986Y0191203D01*
Y0189870D01*
Y0190870D01*
X0598319D01*
X0594987Y0191536D02*
X0595320Y0191869D01*
X0595986D01*
X0596319Y0191536D01*
Y0190203D01*
X0595986Y0189870D01*
X0595320D01*
X0594987Y0190203D01*
Y0190870D01*
X0595653D01*
X0594320Y0189870D02*
Y0191869D01*
X0592987Y0189870D01*
Y0191869D01*
X0592321D02*
Y0189870D01*
X0591321D01*
X0590988Y0190203D01*
Y0191536D01*
X0591321Y0191869D01*
X0592321D01*
X0596986Y0171851D02*
X0597319Y0172184D01*
X0597986D01*
X0598319Y0171851D01*
Y0170518D01*
X0597986Y0170185D01*
X0597319D01*
X0596986Y0170518D01*
Y0171185D01*
X0597652D01*
X0596319Y0170185D02*
Y0172184D01*
X0594987Y0170185D01*
Y0172184D01*
X0594320D02*
Y0170185D01*
X0593321D01*
X0592987Y0170518D01*
Y0171851D01*
X0593321Y0172184D01*
X0594320D01*
X0596986Y0160040D02*
X0597319Y0160373D01*
X0597986D01*
X0598319Y0160040D01*
Y0158707D01*
X0597986Y0158374D01*
X0597319D01*
X0596986Y0158707D01*
Y0159374D01*
X0597652D01*
X0596319Y0158374D02*
Y0160373D01*
X0594987Y0158374D01*
Y0160373D01*
X0594320D02*
Y0158374D01*
X0593321D01*
X0592987Y0158707D01*
Y0160040D01*
X0593321Y0160373D01*
X0594320D01*
X0596986Y0163977D02*
X0597319Y0164310D01*
X0597986D01*
X0598319Y0163977D01*
Y0162644D01*
X0597986Y0162311D01*
X0597319D01*
X0596986Y0162644D01*
Y0163311D01*
X0597652D01*
X0596319Y0162311D02*
Y0164310D01*
X0594987Y0162311D01*
Y0164310D01*
X0594320D02*
Y0162311D01*
X0593321D01*
X0592987Y0162644D01*
Y0163977D01*
X0593321Y0164310D01*
X0594320D01*
X0596986Y0167914D02*
X0597319Y0168247D01*
X0597986D01*
X0598319Y0167914D01*
Y0166581D01*
X0597986Y0166248D01*
X0597319D01*
X0596986Y0166581D01*
Y0167248D01*
X0597652D01*
X0596319Y0166248D02*
Y0168247D01*
X0594987Y0166248D01*
Y0168247D01*
X0594320D02*
Y0166248D01*
X0593321D01*
X0592987Y0166581D01*
Y0167914D01*
X0593321Y0168247D01*
X0594320D01*
X0598319Y0175788D02*
X0597986Y0176121D01*
X0597319D01*
X0596986Y0175788D01*
Y0175455D01*
X0597319Y0175122D01*
X0597652D01*
X0597319D01*
X0596986Y0174788D01*
Y0174455D01*
X0597319Y0174122D01*
X0597986D01*
X0598319Y0174455D01*
X0596319Y0176121D02*
Y0174788D01*
X0595653Y0174122D01*
X0594987Y0174788D01*
Y0176121D01*
X0594320Y0175788D02*
X0593987Y0176121D01*
X0593321D01*
X0592987Y0175788D01*
Y0175455D01*
X0593321Y0175122D01*
X0593654D01*
X0593321D01*
X0592987Y0174788D01*
Y0174455D01*
X0593321Y0174122D01*
X0593987D01*
X0594320Y0174455D01*
X0598319Y0179725D02*
X0597986Y0180058D01*
X0597319D01*
X0596986Y0179725D01*
Y0179392D01*
X0597319Y0179059D01*
X0597652D01*
X0597319D01*
X0596986Y0178726D01*
Y0178392D01*
X0597319Y0178059D01*
X0597986D01*
X0598319Y0178392D01*
X0596319Y0180058D02*
Y0178726D01*
X0595653Y0178059D01*
X0594987Y0178726D01*
Y0180058D01*
X0594320Y0179725D02*
X0593987Y0180058D01*
X0593321D01*
X0592987Y0179725D01*
Y0179392D01*
X0593321Y0179059D01*
X0593654D01*
X0593321D01*
X0592987Y0178726D01*
Y0178392D01*
X0593321Y0178059D01*
X0593987D01*
X0594320Y0178392D01*
X0598319Y0183662D02*
X0597986Y0183995D01*
X0597319D01*
X0596986Y0183662D01*
Y0183329D01*
X0597319Y0182996D01*
X0597652D01*
X0597319D01*
X0596986Y0182662D01*
Y0182329D01*
X0597319Y0181996D01*
X0597986D01*
X0598319Y0182329D01*
X0596319Y0183995D02*
Y0182662D01*
X0595653Y0181996D01*
X0594987Y0182662D01*
Y0183995D01*
X0594320Y0183662D02*
X0593987Y0183995D01*
X0593321D01*
X0592987Y0183662D01*
Y0183329D01*
X0593321Y0182996D01*
X0593654D01*
X0593321D01*
X0592987Y0182662D01*
Y0182329D01*
X0593321Y0181996D01*
X0593987D01*
X0594320Y0182329D01*
X0598319Y0193807D02*
Y0195140D01*
X0597652Y0195806D01*
X0596986Y0195140D01*
Y0193807D01*
Y0194807D01*
X0598319D01*
X0594987Y0195473D02*
X0595320Y0195806D01*
X0595986D01*
X0596319Y0195473D01*
Y0194140D01*
X0595986Y0193807D01*
X0595320D01*
X0594987Y0194140D01*
Y0194807D01*
X0595653D01*
X0594320Y0193807D02*
Y0195806D01*
X0592987Y0193807D01*
Y0195806D01*
X0592321D02*
Y0193807D01*
X0591321D01*
X0590988Y0194140D01*
Y0195473D01*
X0591321Y0195806D01*
X0592321D01*
X0598319Y0198138D02*
Y0199471D01*
X0597652Y0200137D01*
X0596986Y0199471D01*
Y0198138D01*
Y0199137D01*
X0598319D01*
X0594987Y0199804D02*
X0595320Y0200137D01*
X0595986D01*
X0596319Y0199804D01*
Y0198471D01*
X0595986Y0198138D01*
X0595320D01*
X0594987Y0198471D01*
Y0199137D01*
X0595653D01*
X0594320Y0198138D02*
Y0200137D01*
X0592987Y0198138D01*
Y0200137D01*
X0592321D02*
Y0198138D01*
X0591321D01*
X0590988Y0198471D01*
Y0199804D01*
X0591321Y0200137D01*
X0592321D01*
X0598319Y0202075D02*
Y0203408D01*
X0597652Y0204074D01*
X0596986Y0203408D01*
Y0202075D01*
Y0203075D01*
X0598319D01*
X0594987Y0203741D02*
X0595320Y0204074D01*
X0595986D01*
X0596319Y0203741D01*
Y0202408D01*
X0595986Y0202075D01*
X0595320D01*
X0594987Y0202408D01*
Y0203075D01*
X0595653D01*
X0594320Y0202075D02*
Y0204074D01*
X0592987Y0202075D01*
Y0204074D01*
X0592321D02*
Y0202075D01*
X0591321D01*
X0590988Y0202408D01*
Y0203741D01*
X0591321Y0204074D01*
X0592321D01*
X0598319Y0206012D02*
Y0207345D01*
X0597652Y0208011D01*
X0596986Y0207345D01*
Y0206012D01*
Y0207012D01*
X0598319D01*
X0594987Y0207678D02*
X0595320Y0208011D01*
X0595986D01*
X0596319Y0207678D01*
Y0206345D01*
X0595986Y0206012D01*
X0595320D01*
X0594987Y0206345D01*
Y0207012D01*
X0595653D01*
X0594320Y0206012D02*
Y0208011D01*
X0592987Y0206012D01*
Y0208011D01*
X0592321D02*
Y0206012D01*
X0591321D01*
X0590988Y0206345D01*
Y0207678D01*
X0591321Y0208011D01*
X0592321D01*
X0598319Y0209949D02*
Y0211282D01*
X0597652Y0211948D01*
X0596986Y0211282D01*
Y0209949D01*
Y0210948D01*
X0598319D01*
X0594987Y0211615D02*
X0595320Y0211948D01*
X0595986D01*
X0596319Y0211615D01*
Y0210282D01*
X0595986Y0209949D01*
X0595320D01*
X0594987Y0210282D01*
Y0210948D01*
X0595653D01*
X0594320Y0209949D02*
Y0211948D01*
X0592987Y0209949D01*
Y0211948D01*
X0592321D02*
Y0209949D01*
X0591321D01*
X0590988Y0210282D01*
Y0211615D01*
X0591321Y0211948D01*
X0592321D01*
X0598319Y0221760D02*
Y0223093D01*
X0597652Y0223759D01*
X0596986Y0223093D01*
Y0221760D01*
Y0222760D01*
X0598319D01*
X0594987Y0223426D02*
X0595320Y0223759D01*
X0595986D01*
X0596319Y0223426D01*
Y0222093D01*
X0595986Y0221760D01*
X0595320D01*
X0594987Y0222093D01*
Y0222760D01*
X0595653D01*
X0594320Y0221760D02*
Y0223759D01*
X0592987Y0221760D01*
Y0223759D01*
X0592321D02*
Y0221760D01*
X0591321D01*
X0590988Y0222093D01*
Y0223426D01*
X0591321Y0223759D01*
X0592321D01*
X0598319Y0218216D02*
Y0219549D01*
X0597652Y0220216D01*
X0596986Y0219549D01*
Y0218216D01*
Y0219216D01*
X0598319D01*
X0594987Y0219883D02*
X0595320Y0220216D01*
X0595986D01*
X0596319Y0219883D01*
Y0218550D01*
X0595986Y0218216D01*
X0595320D01*
X0594987Y0218550D01*
Y0219216D01*
X0595653D01*
X0594320Y0218216D02*
Y0220216D01*
X0592987Y0218216D01*
Y0220216D01*
X0592321D02*
Y0218216D01*
X0591321D01*
X0590988Y0218550D01*
Y0219883D01*
X0591321Y0220216D01*
X0592321D01*
X0598319Y0225697D02*
Y0227030D01*
X0597652Y0227696D01*
X0596986Y0227030D01*
Y0225697D01*
Y0226696D01*
X0598319D01*
X0594987Y0227363D02*
X0595320Y0227696D01*
X0595986D01*
X0596319Y0227363D01*
Y0226030D01*
X0595986Y0225697D01*
X0595320D01*
X0594987Y0226030D01*
Y0226696D01*
X0595653D01*
X0594320Y0225697D02*
Y0227696D01*
X0592987Y0225697D01*
Y0227696D01*
X0592321D02*
Y0225697D01*
X0591321D01*
X0590988Y0226030D01*
Y0227363D01*
X0591321Y0227696D01*
X0592321D01*
D15*
X0045500Y0239500D02*
Y0242499D01*
X0044001D01*
X0043501Y0241999D01*
Y0241000D01*
X0044001Y0240500D01*
X0045500D01*
X0044500D02*
X0043501Y0239500D01*
X0042501Y0239000D02*
X0040502D01*
X0039502Y0242499D02*
Y0240500D01*
X0038502Y0239500D01*
X0037503Y0240500D01*
Y0242499D01*
X0034504D02*
Y0239500D01*
X0036003D01*
X0036503Y0240000D01*
Y0241000D01*
X0036003Y0241499D01*
X0034504D01*
X0031504D02*
X0033004D01*
X0033504Y0241000D01*
Y0240000D01*
X0033004Y0239500D01*
X0031504D01*
X0162601Y0126099D02*
X0163101Y0126599D01*
X0164100D01*
X0164600Y0126099D01*
Y0124100D01*
X0164100Y0123600D01*
X0163101D01*
X0162601Y0124100D01*
X0159602Y0126599D02*
X0160601Y0126099D01*
X0161601Y0125100D01*
Y0124100D01*
X0161101Y0123600D01*
X0160101D01*
X0159602Y0124100D01*
Y0124600D01*
X0160101Y0125100D01*
X0161601D01*
X0158602Y0123100D02*
X0156603D01*
X0154103Y0123600D02*
Y0126599D01*
X0155603Y0125100D01*
X0153604D01*
X0168901Y0095001D02*
X0168401Y0095500D01*
Y0096500D01*
X0168901Y0097000D01*
X0170900D01*
X0171400Y0096500D01*
Y0095500D01*
X0170900Y0095001D01*
X0168401Y0092002D02*
Y0094001D01*
X0169901D01*
X0169401Y0093001D01*
Y0092501D01*
X0169901Y0092002D01*
X0170900D01*
X0171400Y0092501D01*
Y0093501D01*
X0170900Y0094001D01*
X0171900Y0091002D02*
Y0089003D01*
X0171400Y0086503D02*
X0168401D01*
X0169901Y0088003D01*
Y0086004D01*
X0196801Y0071799D02*
X0197301Y0072299D01*
X0198300D01*
X0198800Y0071799D01*
Y0069800D01*
X0198300Y0069300D01*
X0197301D01*
X0196801Y0069800D01*
X0194301Y0069300D02*
Y0072299D01*
X0195801Y0070799D01*
X0193802D01*
X0192802Y0068800D02*
X0190803D01*
X0188303Y0069300D02*
Y0072299D01*
X0189803Y0070799D01*
X0187804D01*
X0261101Y0071799D02*
X0261600Y0072299D01*
X0262600D01*
X0263100Y0071799D01*
Y0069800D01*
X0262600Y0069300D01*
X0261600D01*
X0261101Y0069800D01*
X0260101Y0069300D02*
X0259101D01*
X0259601D01*
Y0072299D01*
X0260101Y0071799D01*
X0257602Y0068800D02*
X0255602D01*
X0252603Y0072299D02*
X0253603Y0071799D01*
X0254603Y0070799D01*
Y0069800D01*
X0254103Y0069300D01*
X0253103D01*
X0252603Y0069800D01*
Y0070300D01*
X0253103Y0070799D01*
X0254603D01*
X0301301Y0071799D02*
X0301800Y0072299D01*
X0302800D01*
X0303300Y0071799D01*
Y0069800D01*
X0302800Y0069300D01*
X0301800D01*
X0301301Y0069800D01*
X0300301Y0069300D02*
X0299301D01*
X0299801D01*
Y0072299D01*
X0300301Y0071799D01*
X0297802Y0068800D02*
X0295802D01*
X0292803Y0072299D02*
X0294803D01*
Y0070799D01*
X0293803Y0071299D01*
X0293303D01*
X0292803Y0070799D01*
Y0069800D01*
X0293303Y0069300D01*
X0294303D01*
X0294803Y0069800D01*
X0341001Y0071799D02*
X0341500Y0072299D01*
X0342500D01*
X0343000Y0071799D01*
Y0069800D01*
X0342500Y0069300D01*
X0341500D01*
X0341001Y0069800D01*
X0340001Y0069300D02*
X0339001D01*
X0339501D01*
Y0072299D01*
X0340001Y0071799D01*
X0337502Y0068800D02*
X0335502D01*
X0333003Y0069300D02*
Y0072299D01*
X0334503Y0070799D01*
X0332503D01*
X0380801Y0071799D02*
X0381300Y0072299D01*
X0382300D01*
X0382800Y0071799D01*
Y0069800D01*
X0382300Y0069300D01*
X0381300D01*
X0380801Y0069800D01*
X0379801Y0069300D02*
X0378801D01*
X0379301D01*
Y0072299D01*
X0379801Y0071799D01*
X0377302Y0068800D02*
X0375302D01*
X0374303Y0071799D02*
X0373803Y0072299D01*
X0372803D01*
X0372303Y0071799D01*
Y0071299D01*
X0372803Y0070799D01*
X0373303D01*
X0372803D01*
X0372303Y0070300D01*
Y0069800D01*
X0372803Y0069300D01*
X0373803D01*
X0374303Y0069800D01*
X0420201Y0071799D02*
X0420701Y0072299D01*
X0421700D01*
X0422200Y0071799D01*
Y0069800D01*
X0421700Y0069300D01*
X0420701D01*
X0420201Y0069800D01*
X0419201Y0069300D02*
X0418201D01*
X0418701D01*
Y0072299D01*
X0419201Y0071799D01*
X0416702Y0068800D02*
X0414702D01*
X0411703Y0069300D02*
X0413703D01*
X0411703Y0071299D01*
Y0071799D01*
X0412203Y0072299D01*
X0413203D01*
X0413703Y0071799D01*
X0460201Y0071399D02*
X0460701Y0071899D01*
X0461700D01*
X0462200Y0071399D01*
Y0069400D01*
X0461700Y0068900D01*
X0460701D01*
X0460201Y0069400D01*
X0459201Y0068900D02*
X0458201D01*
X0458701D01*
Y0071899D01*
X0459201Y0071399D01*
X0456702Y0068400D02*
X0454702D01*
X0453703Y0068900D02*
X0452703D01*
X0453203D01*
Y0071899D01*
X0453703Y0071399D01*
X0074829Y0196854D02*
X0075329Y0197354D01*
X0076328D01*
X0076828Y0196854D01*
Y0194855D01*
X0076328Y0194355D01*
X0075329D01*
X0074829Y0194855D01*
X0072330Y0194355D02*
Y0197354D01*
X0073829Y0195855D01*
X0071830D01*
X0070830Y0193855D02*
X0068831D01*
X0067831Y0196854D02*
X0067331Y0197354D01*
X0066332D01*
X0065832Y0196854D01*
Y0196354D01*
X0066332Y0195855D01*
X0066832D01*
X0066332D01*
X0065832Y0195355D01*
Y0194855D01*
X0066332Y0194355D01*
X0067331D01*
X0067831Y0194855D01*
X0074429Y0155954D02*
X0074929Y0156454D01*
X0075928D01*
X0076428Y0155954D01*
Y0153955D01*
X0075928Y0153455D01*
X0074929D01*
X0074429Y0153955D01*
X0071930Y0153455D02*
Y0156454D01*
X0073429Y0154955D01*
X0071430D01*
X0070430Y0152955D02*
X0068431D01*
X0065432Y0153455D02*
X0067431D01*
X0065432Y0155455D01*
Y0155954D01*
X0065932Y0156454D01*
X0066931D01*
X0067431Y0155954D01*
X0074429Y0114554D02*
X0074929Y0115054D01*
X0075928D01*
X0076428Y0114554D01*
Y0112555D01*
X0075928Y0112055D01*
X0074929D01*
X0074429Y0112555D01*
X0071930Y0112055D02*
Y0115054D01*
X0073429Y0113555D01*
X0071430D01*
X0070430Y0111555D02*
X0068431D01*
X0067431Y0112055D02*
X0066432D01*
X0066931D01*
Y0115054D01*
X0067431Y0114554D01*
X0275200Y0243600D02*
Y0246599D01*
X0273700D01*
X0273201Y0246099D01*
Y0245099D01*
X0273700Y0244600D01*
X0275200D01*
X0274200D02*
X0273201Y0243600D01*
X0272201Y0243100D02*
X0270202D01*
X0269202Y0246599D02*
Y0244600D01*
X0268202Y0243600D01*
X0267203Y0244600D01*
Y0246599D01*
X0266203Y0243600D02*
X0264703D01*
X0264204Y0244100D01*
X0264703Y0244600D01*
X0265703D01*
X0266203Y0245099D01*
X0265703Y0245599D01*
X0264204D01*
X0263204Y0243600D02*
Y0245599D01*
X0261704D01*
X0261205Y0245099D01*
Y0243600D01*
X0260205D02*
X0258705D01*
X0258206Y0244100D01*
X0258705Y0244600D01*
X0259705D01*
X0260205Y0245099D01*
X0259705Y0245599D01*
X0258206D01*
X0257206Y0246099D02*
X0256706Y0246599D01*
X0255706D01*
X0255206Y0246099D01*
Y0245599D01*
X0255706Y0245099D01*
X0256206D01*
X0255706D01*
X0255206Y0244600D01*
Y0244100D01*
X0255706Y0243600D01*
X0256706D01*
X0257206Y0244100D01*
X0196217Y0242845D02*
Y0245844D01*
X0194718D01*
X0194218Y0245344D01*
Y0244344D01*
X0194718Y0243845D01*
X0196217D01*
X0195218D02*
X0194218Y0242845D01*
X0193218Y0242345D02*
X0191219D01*
X0190219Y0245844D02*
Y0243845D01*
X0189219Y0242845D01*
X0188220Y0243845D01*
Y0245844D01*
X0187220Y0242845D02*
X0185721D01*
X0185221Y0243345D01*
X0185721Y0243845D01*
X0186720D01*
X0187220Y0244344D01*
X0186720Y0244844D01*
X0185221D01*
X0184221Y0242845D02*
Y0244844D01*
X0182722D01*
X0182222Y0244344D01*
Y0242845D01*
X0181222D02*
X0179723D01*
X0179223Y0243345D01*
X0179723Y0243845D01*
X0180722D01*
X0181222Y0244344D01*
X0180722Y0244844D01*
X0179223D01*
X0176224Y0242845D02*
X0178223D01*
X0176224Y0244844D01*
Y0245344D01*
X0176724Y0245844D01*
X0177723D01*
X0178223Y0245344D01*
X0118200Y0243200D02*
Y0246199D01*
X0116700D01*
X0116201Y0245699D01*
Y0244700D01*
X0116700Y0244200D01*
X0118200D01*
X0117200D02*
X0116201Y0243200D01*
X0115201Y0242700D02*
X0113202D01*
X0112202Y0246199D02*
Y0244200D01*
X0111202Y0243200D01*
X0110203Y0244200D01*
Y0246199D01*
X0109203Y0243200D02*
X0107703D01*
X0107204Y0243700D01*
X0107703Y0244200D01*
X0108703D01*
X0109203Y0244700D01*
X0108703Y0245199D01*
X0107204D01*
X0106204Y0243200D02*
Y0245199D01*
X0104704D01*
X0104204Y0244700D01*
Y0243200D01*
X0103205D02*
X0101705D01*
X0101206Y0243700D01*
X0101705Y0244200D01*
X0102705D01*
X0103205Y0244700D01*
X0102705Y0245199D01*
X0101206D01*
X0100206Y0243200D02*
X0099206D01*
X0099706D01*
Y0246199D01*
X0100206Y0245699D01*
X0519300Y0244000D02*
Y0246999D01*
X0517801D01*
X0517301Y0246499D01*
Y0245499D01*
X0517801Y0245000D01*
X0519300D01*
X0518300D02*
X0517301Y0244000D01*
X0516301Y0243500D02*
X0514302D01*
X0513302Y0246999D02*
X0512302D01*
X0512802D01*
Y0244000D01*
X0513302D01*
X0512302D01*
X0510803D02*
X0509303D01*
X0508803Y0244500D01*
X0509303Y0245000D01*
X0510303D01*
X0510803Y0245499D01*
X0510303Y0245999D01*
X0508803D01*
X0507804Y0244000D02*
Y0245999D01*
X0506304D01*
X0505804Y0245499D01*
Y0244000D01*
X0504805D02*
X0503305D01*
X0502805Y0244500D01*
X0503305Y0245000D01*
X0504305D01*
X0504805Y0245499D01*
X0504305Y0245999D01*
X0502805D01*
X0501806Y0246499D02*
X0501306Y0246999D01*
X0500306D01*
X0499806Y0246499D01*
Y0245999D01*
X0500306Y0245499D01*
X0500806D01*
X0500306D01*
X0499806Y0245000D01*
Y0244500D01*
X0500306Y0244000D01*
X0501306D01*
X0501806Y0244500D01*
X0442400Y0243600D02*
Y0246599D01*
X0440901D01*
X0440401Y0246099D01*
Y0245099D01*
X0440901Y0244600D01*
X0442400D01*
X0441400D02*
X0440401Y0243600D01*
X0439401Y0243100D02*
X0437402D01*
X0436402Y0246599D02*
X0435402D01*
X0435902D01*
Y0243600D01*
X0436402D01*
X0435402D01*
X0433903D02*
X0432403D01*
X0431903Y0244100D01*
X0432403Y0244600D01*
X0433403D01*
X0433903Y0245099D01*
X0433403Y0245599D01*
X0431903D01*
X0430904Y0243600D02*
Y0245599D01*
X0429404D01*
X0428904Y0245099D01*
Y0243600D01*
X0427905D02*
X0426405D01*
X0425905Y0244100D01*
X0426405Y0244600D01*
X0427405D01*
X0427905Y0245099D01*
X0427405Y0245599D01*
X0425905D01*
X0422906Y0243600D02*
X0424906D01*
X0422906Y0245599D01*
Y0246099D01*
X0423406Y0246599D01*
X0424406D01*
X0424906Y0246099D01*
X0360900Y0243600D02*
Y0246599D01*
X0359401D01*
X0358901Y0246099D01*
Y0245099D01*
X0359401Y0244600D01*
X0360900D01*
X0359900D02*
X0358901Y0243600D01*
X0357901Y0243100D02*
X0355902D01*
X0354902Y0246599D02*
X0353902D01*
X0354402D01*
Y0243600D01*
X0354902D01*
X0353902D01*
X0352403D02*
X0350903D01*
X0350403Y0244100D01*
X0350903Y0244600D01*
X0351903D01*
X0352403Y0245099D01*
X0351903Y0245599D01*
X0350403D01*
X0349404Y0243600D02*
Y0245599D01*
X0347904D01*
X0347404Y0245099D01*
Y0243600D01*
X0346405D02*
X0344905D01*
X0344405Y0244100D01*
X0344905Y0244600D01*
X0345905D01*
X0346405Y0245099D01*
X0345905Y0245599D01*
X0344405D01*
X0343406Y0243600D02*
X0342406D01*
X0342906D01*
Y0246599D01*
X0343406Y0246099D01*
X0110029Y0207854D02*
X0110529Y0208354D01*
X0111529D01*
X0112028Y0207854D01*
Y0205855D01*
X0111529Y0205355D01*
X0110529D01*
X0110029Y0205855D01*
X0107030Y0208354D02*
X0108030Y0207854D01*
X0109029Y0206855D01*
Y0205855D01*
X0108529Y0205355D01*
X0107530D01*
X0107030Y0205855D01*
Y0206355D01*
X0107530Y0206855D01*
X0109029D01*
X0106030Y0204855D02*
X0104031D01*
X0103031Y0207854D02*
X0102531Y0208354D01*
X0101532D01*
X0101032Y0207854D01*
Y0207354D01*
X0101532Y0206855D01*
X0102032D01*
X0101532D01*
X0101032Y0206355D01*
Y0205855D01*
X0101532Y0205355D01*
X0102531D01*
X0103031Y0205855D01*
X0110029Y0167754D02*
X0110529Y0168254D01*
X0111529D01*
X0112028Y0167754D01*
Y0165755D01*
X0111529Y0165255D01*
X0110529D01*
X0110029Y0165755D01*
X0107030Y0168254D02*
X0108030Y0167754D01*
X0109029Y0166755D01*
Y0165755D01*
X0108529Y0165255D01*
X0107530D01*
X0107030Y0165755D01*
Y0166255D01*
X0107530Y0166755D01*
X0109029D01*
X0106030Y0164755D02*
X0104031D01*
X0101032Y0165255D02*
X0103031D01*
X0101032Y0167254D01*
Y0167754D01*
X0101532Y0168254D01*
X0102531D01*
X0103031Y0167754D01*
X0109529Y0127554D02*
X0110029Y0128054D01*
X0111029D01*
X0111528Y0127554D01*
Y0125555D01*
X0111029Y0125055D01*
X0110029D01*
X0109529Y0125555D01*
X0106530Y0128054D02*
X0107530Y0127554D01*
X0108529Y0126555D01*
Y0125555D01*
X0108029Y0125055D01*
X0107030D01*
X0106530Y0125555D01*
Y0126055D01*
X0107030Y0126555D01*
X0108529D01*
X0105530Y0124555D02*
X0103531D01*
X0102531Y0125055D02*
X0101532D01*
X0102031D01*
Y0128054D01*
X0102531Y0127554D01*
X0046019Y0168966D02*
X0046518Y0169466D01*
X0047518D01*
X0048018Y0168966D01*
Y0166967D01*
X0047518Y0166467D01*
X0046518D01*
X0046019Y0166967D01*
X0043020Y0169466D02*
X0045019D01*
Y0167966D01*
X0044019Y0168466D01*
X0043519D01*
X0043020Y0167966D01*
Y0166967D01*
X0043519Y0166467D01*
X0044519D01*
X0045019Y0166967D01*
X0042020Y0165967D02*
X0040020D01*
X0039021Y0168966D02*
X0038521Y0169466D01*
X0037521D01*
X0037021Y0168966D01*
Y0168466D01*
X0037521Y0167966D01*
X0038021D01*
X0037521D01*
X0037021Y0167467D01*
Y0166967D01*
X0037521Y0166467D01*
X0038521D01*
X0039021Y0166967D01*
X0046019Y0128809D02*
X0046518Y0129308D01*
X0047518D01*
X0048018Y0128809D01*
Y0126809D01*
X0047518Y0126310D01*
X0046518D01*
X0046019Y0126809D01*
X0043020Y0129308D02*
X0045019D01*
Y0127809D01*
X0044019Y0128309D01*
X0043519D01*
X0043020Y0127809D01*
Y0126809D01*
X0043519Y0126310D01*
X0044519D01*
X0045019Y0126809D01*
X0042020Y0125810D02*
X0040020D01*
X0037021Y0126310D02*
X0039021D01*
X0037021Y0128309D01*
Y0128809D01*
X0037521Y0129308D01*
X0038521D01*
X0039021Y0128809D01*
X0045912Y0088651D02*
X0046412Y0089151D01*
X0047412D01*
X0047912Y0088651D01*
Y0086652D01*
X0047412Y0086152D01*
X0046412D01*
X0045912Y0086652D01*
X0042913Y0089151D02*
X0044913D01*
Y0087651D01*
X0043913Y0088151D01*
X0043413D01*
X0042913Y0087651D01*
Y0086652D01*
X0043413Y0086152D01*
X0044413D01*
X0044913Y0086652D01*
X0041914Y0085652D02*
X0039914D01*
X0038915Y0086152D02*
X0037915D01*
X0038415D01*
Y0089151D01*
X0038915Y0088651D01*
X0270501Y0126099D02*
X0271001Y0126599D01*
X0272000D01*
X0272500Y0126099D01*
Y0124100D01*
X0272000Y0123600D01*
X0271001D01*
X0270501Y0124100D01*
X0269501Y0126099D02*
X0269001Y0126599D01*
X0268002D01*
X0267502Y0126099D01*
Y0125599D01*
X0268002Y0125100D01*
X0268501D01*
X0268002D01*
X0267502Y0124600D01*
Y0124100D01*
X0268002Y0123600D01*
X0269001D01*
X0269501Y0124100D01*
X0266502Y0123100D02*
X0264503D01*
X0261504Y0126599D02*
X0262503Y0126099D01*
X0263503Y0125100D01*
Y0124100D01*
X0263003Y0123600D01*
X0262003D01*
X0261504Y0124100D01*
Y0124600D01*
X0262003Y0125100D01*
X0263503D01*
X0310401Y0126099D02*
X0310900Y0126599D01*
X0311900D01*
X0312400Y0126099D01*
Y0124100D01*
X0311900Y0123600D01*
X0310900D01*
X0310401Y0124100D01*
X0309401Y0126099D02*
X0308901Y0126599D01*
X0307902D01*
X0307402Y0126099D01*
Y0125599D01*
X0307902Y0125100D01*
X0308401D01*
X0307902D01*
X0307402Y0124600D01*
Y0124100D01*
X0307902Y0123600D01*
X0308901D01*
X0309401Y0124100D01*
X0306402Y0123100D02*
X0304403D01*
X0301404Y0126599D02*
X0303403D01*
Y0125100D01*
X0302403Y0125599D01*
X0301903D01*
X0301404Y0125100D01*
Y0124100D01*
X0301903Y0123600D01*
X0302903D01*
X0303403Y0124100D01*
X0350401Y0126099D02*
X0350901Y0126599D01*
X0351900D01*
X0352400Y0126099D01*
Y0124100D01*
X0351900Y0123600D01*
X0350901D01*
X0350401Y0124100D01*
X0349401Y0126099D02*
X0348901Y0126599D01*
X0347902D01*
X0347402Y0126099D01*
Y0125599D01*
X0347902Y0125100D01*
X0348401D01*
X0347902D01*
X0347402Y0124600D01*
Y0124100D01*
X0347902Y0123600D01*
X0348901D01*
X0349401Y0124100D01*
X0346402Y0123100D02*
X0344403D01*
X0341903Y0123600D02*
Y0126599D01*
X0343403Y0125100D01*
X0341404D01*
X0390201Y0126099D02*
X0390701Y0126599D01*
X0391700D01*
X0392200Y0126099D01*
Y0124100D01*
X0391700Y0123600D01*
X0390701D01*
X0390201Y0124100D01*
X0389201Y0126099D02*
X0388701Y0126599D01*
X0387702D01*
X0387202Y0126099D01*
Y0125599D01*
X0387702Y0125100D01*
X0388201D01*
X0387702D01*
X0387202Y0124600D01*
Y0124100D01*
X0387702Y0123600D01*
X0388701D01*
X0389201Y0124100D01*
X0386202Y0123100D02*
X0384203D01*
X0383203Y0126099D02*
X0382703Y0126599D01*
X0381703D01*
X0381204Y0126099D01*
Y0125599D01*
X0381703Y0125100D01*
X0382203D01*
X0381703D01*
X0381204Y0124600D01*
Y0124100D01*
X0381703Y0123600D01*
X0382703D01*
X0383203Y0124100D01*
X0430501Y0126499D02*
X0431001Y0126999D01*
X0432000D01*
X0432500Y0126499D01*
Y0124500D01*
X0432000Y0124000D01*
X0431001D01*
X0430501Y0124500D01*
X0429501Y0126499D02*
X0429001Y0126999D01*
X0428001D01*
X0427502Y0126499D01*
Y0125999D01*
X0428001Y0125499D01*
X0428501D01*
X0428001D01*
X0427502Y0125000D01*
Y0124500D01*
X0428001Y0124000D01*
X0429001D01*
X0429501Y0124500D01*
X0426502Y0123500D02*
X0424503D01*
X0421504Y0124000D02*
X0423503D01*
X0421504Y0125999D01*
Y0126499D01*
X0422003Y0126999D01*
X0423003D01*
X0423503Y0126499D01*
X0470501Y0126399D02*
X0471000Y0126899D01*
X0472000D01*
X0472500Y0126399D01*
Y0124400D01*
X0472000Y0123900D01*
X0471000D01*
X0470501Y0124400D01*
X0469501Y0126399D02*
X0469001Y0126899D01*
X0468002D01*
X0467502Y0126399D01*
Y0125899D01*
X0468002Y0125399D01*
X0468501D01*
X0468002D01*
X0467502Y0124900D01*
Y0124400D01*
X0468002Y0123900D01*
X0469001D01*
X0469501Y0124400D01*
X0466502Y0123400D02*
X0464503D01*
X0463503Y0123900D02*
X0462503D01*
X0463003D01*
Y0126899D01*
X0463503Y0126399D01*
X0233501Y0095001D02*
X0233001Y0095500D01*
Y0096500D01*
X0233501Y0097000D01*
X0235500D01*
X0236000Y0096500D01*
Y0095500D01*
X0235500Y0095001D01*
X0236000Y0092002D02*
Y0094001D01*
X0234001Y0092002D01*
X0233501D01*
X0233001Y0092501D01*
Y0093501D01*
X0233501Y0094001D01*
X0236500Y0091002D02*
Y0089003D01*
X0233001Y0086004D02*
X0233501Y0087003D01*
X0234501Y0088003D01*
X0235500D01*
X0236000Y0087503D01*
Y0086503D01*
X0235500Y0086004D01*
X0235000D01*
X0234501Y0086503D01*
Y0088003D01*
X0273201Y0095001D02*
X0272701Y0095500D01*
Y0096500D01*
X0273201Y0097000D01*
X0275200D01*
X0275700Y0096500D01*
Y0095500D01*
X0275200Y0095001D01*
X0275700Y0092002D02*
Y0094001D01*
X0273701Y0092002D01*
X0273201D01*
X0272701Y0092501D01*
Y0093501D01*
X0273201Y0094001D01*
X0276200Y0091002D02*
Y0089003D01*
X0272701Y0086004D02*
Y0088003D01*
X0274201D01*
X0273701Y0087003D01*
Y0086503D01*
X0274201Y0086004D01*
X0275200D01*
X0275700Y0086503D01*
Y0087503D01*
X0275200Y0088003D01*
X0313401Y0095001D02*
X0312901Y0095500D01*
Y0096500D01*
X0313401Y0097000D01*
X0315400D01*
X0315900Y0096500D01*
Y0095500D01*
X0315400Y0095001D01*
X0315900Y0092002D02*
Y0094001D01*
X0313901Y0092002D01*
X0313401D01*
X0312901Y0092501D01*
Y0093501D01*
X0313401Y0094001D01*
X0316400Y0091002D02*
Y0089003D01*
X0315900Y0086503D02*
X0312901D01*
X0314401Y0088003D01*
Y0086004D01*
X0353101Y0095001D02*
X0352601Y0095500D01*
Y0096500D01*
X0353101Y0097000D01*
X0355100D01*
X0355600Y0096500D01*
Y0095500D01*
X0355100Y0095001D01*
X0355600Y0092002D02*
Y0094001D01*
X0353601Y0092002D01*
X0353101D01*
X0352601Y0092501D01*
Y0093501D01*
X0353101Y0094001D01*
X0356100Y0091002D02*
Y0089003D01*
X0353101Y0088003D02*
X0352601Y0087503D01*
Y0086503D01*
X0353101Y0086004D01*
X0353601D01*
X0354100Y0086503D01*
Y0087003D01*
Y0086503D01*
X0354600Y0086004D01*
X0355100D01*
X0355600Y0086503D01*
Y0087503D01*
X0355100Y0088003D01*
X0392901Y0095001D02*
X0392401Y0095500D01*
Y0096500D01*
X0392901Y0097000D01*
X0394900D01*
X0395400Y0096500D01*
Y0095500D01*
X0394900Y0095001D01*
X0395400Y0092002D02*
Y0094001D01*
X0393401Y0092002D01*
X0392901D01*
X0392401Y0092501D01*
Y0093501D01*
X0392901Y0094001D01*
X0395900Y0091002D02*
Y0089003D01*
X0395400Y0086004D02*
Y0088003D01*
X0393401Y0086004D01*
X0392901D01*
X0392401Y0086503D01*
Y0087503D01*
X0392901Y0088003D01*
X0433101Y0094101D02*
X0432601Y0094600D01*
Y0095600D01*
X0433101Y0096100D01*
X0435100D01*
X0435600Y0095600D01*
Y0094600D01*
X0435100Y0094101D01*
X0435600Y0091102D02*
Y0093101D01*
X0433601Y0091102D01*
X0433101D01*
X0432601Y0091601D01*
Y0092601D01*
X0433101Y0093101D01*
X0436100Y0090102D02*
Y0088103D01*
X0435600Y0087103D02*
Y0086103D01*
Y0086603D01*
X0432601D01*
X0433101Y0087103D01*
M02*
