G04*
G04 #@! TF.GenerationSoftware,Altium Limited,Altium Designer,22.11.1 (43)*
G04*
G04 Layer_Physical_Order=2*
G04 Layer_Color=36540*
%FSAX25Y25*%
%MOIN*%
G70*
G04*
G04 #@! TF.SameCoordinates,EBA4B4AC-1B08-4463-AFC9-2197B451F785*
G04*
G04*
G04 #@! TF.FilePolarity,Positive*
G04*
G01*
G75*
%ADD10C,0.01000*%
%ADD41C,0.07000*%
%ADD42C,0.09449*%
%ADD43C,0.06299*%
%ADD44C,0.05512*%
%ADD45R,0.05512X0.05512*%
%ADD46C,0.06000*%
%ADD47R,0.06000X0.06000*%
%ADD48C,0.23622*%
%ADD49R,0.06000X0.06000*%
%ADD50C,0.09000*%
%ADD51C,0.03000*%
%ADD52C,0.02500*%
%ADD53C,0.04000*%
G36*
X0059571Y0261693D02*
X0059114Y0261165D01*
X0058928Y0260913D01*
X0058771Y0260670D01*
X0058642Y0260434D01*
X0058542Y0260207D01*
X0058471Y0259987D01*
X0058428Y0259776D01*
X0058413Y0259573D01*
X0057413D01*
X0057399Y0259776D01*
X0057356Y0259987D01*
X0057285Y0260207D01*
X0057185Y0260434D01*
X0057056Y0260670D01*
X0056899Y0260913D01*
X0056713Y0261165D01*
X0056499Y0261425D01*
X0055984Y0261969D01*
X0059842D01*
X0059571Y0261693D01*
D02*
G37*
G36*
X0140162Y0261338D02*
X0139704Y0260811D01*
X0139518Y0260559D01*
X0139361Y0260315D01*
X0139233Y0260080D01*
X0139133Y0259852D01*
X0139061Y0259633D01*
X0139018Y0259422D01*
X0139004Y0259219D01*
X0138004D01*
X0137990Y0259422D01*
X0137947Y0259633D01*
X0137875Y0259852D01*
X0137775Y0260080D01*
X0137647Y0260315D01*
X0137489Y0260559D01*
X0137304Y0260811D01*
X0137089Y0261070D01*
X0136575Y0261615D01*
X0140433D01*
X0140162Y0261338D01*
D02*
G37*
G36*
X0221324Y0261384D02*
X0220874Y0260839D01*
X0220691Y0260580D01*
X0220536Y0260332D01*
X0220410Y0260093D01*
X0220312Y0259864D01*
X0220241Y0259645D01*
X0220199Y0259435D01*
X0220185Y0259235D01*
X0219185Y0259206D01*
X0219170Y0259411D01*
X0219127Y0259624D01*
X0219055Y0259842D01*
X0218953Y0260068D01*
X0218822Y0260300D01*
X0218663Y0260539D01*
X0218474Y0260784D01*
X0218256Y0261036D01*
X0217734Y0261560D01*
X0221591Y0261670D01*
X0221324Y0261384D01*
D02*
G37*
G36*
X0545713Y0261299D02*
X0545255Y0260771D01*
X0545070Y0260520D01*
X0544912Y0260276D01*
X0544784Y0260040D01*
X0544684Y0259813D01*
X0544612Y0259594D01*
X0544569Y0259383D01*
X0544555Y0259180D01*
X0543555D01*
X0543541Y0259383D01*
X0543498Y0259594D01*
X0543427Y0259813D01*
X0543327Y0260040D01*
X0543198Y0260276D01*
X0543041Y0260520D01*
X0542855Y0260771D01*
X0542640Y0261031D01*
X0542126Y0261575D01*
X0545984D01*
X0545713Y0261299D01*
D02*
G37*
G36*
X0302365Y0261311D02*
X0302085Y0261056D01*
X0301614Y0260563D01*
X0301423Y0260324D01*
X0301261Y0260090D01*
X0301129Y0259861D01*
X0301026Y0259637D01*
X0300953Y0259419D01*
X0300908Y0259206D01*
X0300894Y0258998D01*
X0299894Y0259056D01*
X0299880Y0259253D01*
X0299838Y0259461D01*
X0299769Y0259681D01*
X0299673Y0259911D01*
X0299549Y0260154D01*
X0299396Y0260407D01*
X0299217Y0260671D01*
X0298775Y0261233D01*
X0298513Y0261531D01*
X0302365Y0261311D01*
D02*
G37*
G36*
X0465075Y0261114D02*
X0464618Y0260586D01*
X0464432Y0260334D01*
X0464275Y0260091D01*
X0464146Y0259855D01*
X0464046Y0259628D01*
X0463975Y0259409D01*
X0463932Y0259198D01*
X0463917Y0258995D01*
X0462917D01*
X0462903Y0259198D01*
X0462860Y0259409D01*
X0462789Y0259628D01*
X0462689Y0259855D01*
X0462560Y0260091D01*
X0462403Y0260334D01*
X0462217Y0260586D01*
X0462003Y0260846D01*
X0461488Y0261390D01*
X0465346D01*
X0465075Y0261114D01*
D02*
G37*
G36*
X0383973D02*
X0383515Y0260586D01*
X0383329Y0260334D01*
X0383172Y0260091D01*
X0383044Y0259855D01*
X0382944Y0259628D01*
X0382872Y0259409D01*
X0382829Y0259198D01*
X0382815Y0258995D01*
X0381815D01*
X0381801Y0259198D01*
X0381758Y0259409D01*
X0381686Y0259628D01*
X0381586Y0259855D01*
X0381458Y0260091D01*
X0381300Y0260334D01*
X0381115Y0260586D01*
X0380900Y0260846D01*
X0380386Y0261390D01*
X0384244D01*
X0383973Y0261114D01*
D02*
G37*
G36*
X0564961Y0200787D02*
X0564961Y0200787D01*
X0566251Y0200787D01*
X0568809Y0200451D01*
X0571302Y0199783D01*
X0573686Y0198795D01*
X0575920Y0197505D01*
X0577968Y0195934D01*
X0579792Y0194109D01*
X0581363Y0192062D01*
X0582654Y0189828D01*
X0583641Y0187443D01*
X0584309Y0184951D01*
X0584646Y0182393D01*
X0584646Y0181102D01*
X0584646Y0061024D01*
X0584646Y0061024D01*
X0584646Y0059733D01*
X0584309Y0057175D01*
X0583641Y0054682D01*
X0582654Y0052298D01*
X0581363Y0050064D01*
X0579792Y0048017D01*
X0577968Y0046192D01*
X0575920Y0044621D01*
X0573686Y0043331D01*
X0571302Y0042343D01*
X0568809Y0041675D01*
X0566251Y0041339D01*
X0564961D01*
X0041339Y0041339D01*
X0040047Y0041339D01*
X0037487Y0041676D01*
X0034993Y0042345D01*
X0032607Y0043334D01*
X0030371Y0044626D01*
X0028323Y0046199D01*
X0026498Y0048026D01*
X0024927Y0050076D01*
X0023638Y0052314D01*
X0022652Y0054701D01*
X0021986Y0057196D01*
X0021652Y0059757D01*
X0021654Y0061048D01*
X0021654Y0180631D01*
X0021654Y0181102D01*
X0021654Y0181102D01*
X0021654Y0181102D01*
X0021654Y0181102D01*
X0021654Y0182393D01*
X0021990Y0184951D01*
X0022658Y0187443D01*
X0023646Y0189828D01*
X0024936Y0192062D01*
X0026507Y0194109D01*
X0028332Y0195934D01*
X0030379Y0197505D01*
X0032613Y0198795D01*
X0034997Y0199783D01*
X0037490Y0200451D01*
X0040048Y0200787D01*
X0041339Y0200787D01*
X0050304D01*
X0050495Y0200325D01*
X0050343Y0200173D01*
X0049816Y0199260D01*
X0049543Y0198243D01*
Y0198216D01*
X0057543D01*
Y0198243D01*
X0057271Y0199260D01*
X0056744Y0200173D01*
X0056591Y0200325D01*
X0056783Y0200787D01*
X0080304D01*
X0080495Y0200325D01*
X0080343Y0200173D01*
X0079816Y0199260D01*
X0079543Y0198243D01*
Y0197190D01*
X0079816Y0196173D01*
X0080343Y0195261D01*
X0081087Y0194516D01*
X0081999Y0193989D01*
X0083017Y0193717D01*
X0084070D01*
X0085087Y0193989D01*
X0085999Y0194516D01*
X0086744Y0195261D01*
X0087271Y0196173D01*
X0087543Y0197190D01*
Y0198243D01*
X0087271Y0199260D01*
X0086744Y0200173D01*
X0086591Y0200325D01*
X0086783Y0200787D01*
X0116565D01*
X0116699Y0200287D01*
X0116268Y0200038D01*
X0115709Y0199480D01*
X0115315Y0198796D01*
X0115110Y0198033D01*
Y0197243D01*
X0115315Y0196480D01*
X0115709Y0195796D01*
X0116268Y0195237D01*
X0116952Y0194842D01*
X0117715Y0194638D01*
X0118505D01*
X0119268Y0194842D01*
X0119952Y0195237D01*
X0120511Y0195796D01*
X0120906Y0196480D01*
X0121110Y0197243D01*
Y0198033D01*
X0120906Y0198796D01*
X0120511Y0199480D01*
X0119952Y0200038D01*
X0119521Y0200287D01*
X0119655Y0200787D01*
X0282465Y0200787D01*
Y0199779D01*
X0282780Y0197787D01*
X0283403Y0195870D01*
X0284319Y0194073D01*
X0285504Y0192442D01*
X0286930Y0191016D01*
X0288561Y0189830D01*
X0290358Y0188915D01*
X0292276Y0188292D01*
X0294267Y0187976D01*
X0296284D01*
X0298275Y0188292D01*
X0300193Y0188915D01*
X0301990Y0189830D01*
X0303621Y0191016D01*
X0305047Y0192442D01*
X0306233Y0194073D01*
X0307148Y0195870D01*
X0307771Y0197787D01*
X0308087Y0199779D01*
Y0200787D01*
X0564961Y0200787D01*
X0564961Y0200787D01*
D02*
G37*
%LPC*%
G36*
X0057543Y0197216D02*
X0054043D01*
Y0193717D01*
X0054070D01*
X0055087Y0193989D01*
X0055999Y0194516D01*
X0056744Y0195261D01*
X0057271Y0196173D01*
X0057543Y0197190D01*
Y0197216D01*
D02*
G37*
G36*
X0053043D02*
X0049543D01*
Y0197190D01*
X0049816Y0196173D01*
X0050343Y0195261D01*
X0051087Y0194516D01*
X0051999Y0193989D01*
X0053017Y0193717D01*
X0053043D01*
Y0197216D01*
D02*
G37*
G36*
X0084070Y0191717D02*
X0084043D01*
Y0188216D01*
X0087543D01*
Y0188243D01*
X0087271Y0189260D01*
X0086744Y0190173D01*
X0085999Y0190917D01*
X0085087Y0191444D01*
X0084070Y0191717D01*
D02*
G37*
G36*
X0083043D02*
X0083017D01*
X0081999Y0191444D01*
X0081087Y0190917D01*
X0080343Y0190173D01*
X0079816Y0189260D01*
X0079543Y0188243D01*
Y0188216D01*
X0083043D01*
Y0191717D01*
D02*
G37*
G36*
X0138978Y0193157D02*
X0138188D01*
X0137425Y0192953D01*
X0136741Y0192558D01*
X0136182Y0191999D01*
X0135787Y0191315D01*
X0135583Y0190552D01*
Y0189762D01*
X0135787Y0188999D01*
X0136182Y0188315D01*
X0136741Y0187757D01*
X0137425Y0187362D01*
X0138188Y0187157D01*
X0138978D01*
X0139741Y0187362D01*
X0140425Y0187757D01*
X0140983Y0188315D01*
X0141378Y0188999D01*
X0141583Y0189762D01*
Y0190552D01*
X0141378Y0191315D01*
X0140983Y0191999D01*
X0140425Y0192558D01*
X0139741Y0192953D01*
X0138978Y0193157D01*
D02*
G37*
G36*
X0087543Y0187216D02*
X0084043D01*
Y0183716D01*
X0084070D01*
X0085087Y0183989D01*
X0085999Y0184516D01*
X0086744Y0185260D01*
X0087271Y0186173D01*
X0087543Y0187190D01*
Y0187216D01*
D02*
G37*
G36*
X0083043D02*
X0079543D01*
Y0187190D01*
X0079816Y0186173D01*
X0080343Y0185260D01*
X0081087Y0184516D01*
X0081999Y0183989D01*
X0083017Y0183716D01*
X0083043D01*
Y0187216D01*
D02*
G37*
G36*
X0084070Y0181717D02*
X0083017D01*
X0081999Y0181444D01*
X0081087Y0180917D01*
X0080343Y0180173D01*
X0079816Y0179261D01*
X0079543Y0178243D01*
Y0177190D01*
X0079816Y0176173D01*
X0080343Y0175260D01*
X0081087Y0174516D01*
X0081999Y0173989D01*
X0083017Y0173716D01*
X0084070D01*
X0085087Y0173989D01*
X0085999Y0174516D01*
X0086744Y0175260D01*
X0087271Y0176173D01*
X0087543Y0177190D01*
Y0178243D01*
X0087271Y0179261D01*
X0086744Y0180173D01*
X0085999Y0180917D01*
X0085087Y0181444D01*
X0084070Y0181717D01*
D02*
G37*
G36*
X0139962Y0175760D02*
X0139870D01*
Y0171760D01*
X0143870D01*
Y0171852D01*
X0143563Y0172997D01*
X0142971Y0174023D01*
X0142133Y0174861D01*
X0141107Y0175453D01*
X0139962Y0175760D01*
D02*
G37*
G36*
X0138870D02*
X0138778D01*
X0137633Y0175453D01*
X0136607Y0174861D01*
X0135769Y0174023D01*
X0135177Y0172997D01*
X0134870Y0171852D01*
Y0171760D01*
X0138870D01*
Y0175760D01*
D02*
G37*
G36*
X0054070Y0171716D02*
X0054043D01*
Y0168217D01*
X0057543D01*
Y0168243D01*
X0057271Y0169261D01*
X0056744Y0170173D01*
X0055999Y0170917D01*
X0055087Y0171444D01*
X0054070Y0171716D01*
D02*
G37*
G36*
X0053043D02*
X0053017D01*
X0051999Y0171444D01*
X0051087Y0170917D01*
X0050343Y0170173D01*
X0049816Y0169261D01*
X0049543Y0168243D01*
Y0168217D01*
X0053043D01*
Y0171716D01*
D02*
G37*
G36*
X0143870Y0170760D02*
X0139870D01*
Y0166760D01*
X0139962D01*
X0141107Y0167067D01*
X0142133Y0167659D01*
X0142971Y0168497D01*
X0143563Y0169523D01*
X0143870Y0170667D01*
Y0170760D01*
D02*
G37*
G36*
X0138870D02*
X0134870D01*
Y0170667D01*
X0135177Y0169523D01*
X0135769Y0168497D01*
X0136607Y0167659D01*
X0137633Y0167067D01*
X0138778Y0166760D01*
X0138870D01*
Y0170760D01*
D02*
G37*
G36*
X0118703Y0175760D02*
X0117518D01*
X0116373Y0175453D01*
X0115347Y0174861D01*
X0114509Y0174023D01*
X0113917Y0172997D01*
X0113610Y0171852D01*
Y0170667D01*
X0113917Y0169523D01*
X0114509Y0168497D01*
X0115347Y0167659D01*
X0116373Y0167067D01*
X0117518Y0166760D01*
X0118703D01*
X0119847Y0167067D01*
X0120873Y0167659D01*
X0121711Y0168497D01*
X0122304Y0169523D01*
X0122610Y0170667D01*
Y0171852D01*
X0122304Y0172997D01*
X0121711Y0174023D01*
X0120873Y0174861D01*
X0119847Y0175453D01*
X0118703Y0175760D01*
D02*
G37*
G36*
X0087543Y0171716D02*
X0079543D01*
Y0163716D01*
X0087543D01*
Y0171716D01*
D02*
G37*
G36*
X0057543Y0167217D02*
X0054043D01*
Y0163716D01*
X0054070D01*
X0055087Y0163989D01*
X0055999Y0164516D01*
X0056744Y0165261D01*
X0057271Y0166173D01*
X0057543Y0167190D01*
Y0167217D01*
D02*
G37*
G36*
X0053043D02*
X0049543D01*
Y0167190D01*
X0049816Y0166173D01*
X0050343Y0165261D01*
X0051087Y0164516D01*
X0051999Y0163989D01*
X0053017Y0163716D01*
X0053043D01*
Y0167217D01*
D02*
G37*
G36*
X0054070Y0161559D02*
X0054043D01*
Y0158059D01*
X0057543D01*
Y0158086D01*
X0057271Y0159103D01*
X0056744Y0160015D01*
X0055999Y0160760D01*
X0055087Y0161286D01*
X0054070Y0161559D01*
D02*
G37*
G36*
X0053043D02*
X0053017D01*
X0051999Y0161286D01*
X0051087Y0160760D01*
X0050343Y0160015D01*
X0049816Y0159103D01*
X0049543Y0158086D01*
Y0158059D01*
X0053043D01*
Y0161559D01*
D02*
G37*
G36*
X0581209Y0157740D02*
Y0156012D01*
X0582937D01*
X0582616Y0156786D01*
X0581983Y0157419D01*
X0581209Y0157740D01*
D02*
G37*
G36*
X0580209D02*
X0579434Y0157419D01*
X0578801Y0156786D01*
X0578480Y0156012D01*
X0580209D01*
Y0157740D01*
D02*
G37*
G36*
X0575303D02*
Y0156012D01*
X0577031D01*
X0576711Y0156786D01*
X0576078Y0157419D01*
X0575303Y0157740D01*
D02*
G37*
G36*
X0574303D02*
X0573529Y0157419D01*
X0572896Y0156786D01*
X0572575Y0156012D01*
X0574303D01*
Y0157740D01*
D02*
G37*
G36*
X0569398D02*
Y0156012D01*
X0571126D01*
X0570805Y0156786D01*
X0570172Y0157419D01*
X0569398Y0157740D01*
D02*
G37*
G36*
X0568398D02*
X0567623Y0157419D01*
X0566990Y0156786D01*
X0566669Y0156012D01*
X0568398D01*
Y0157740D01*
D02*
G37*
G36*
X0118505Y0160087D02*
X0117715D01*
X0116952Y0159882D01*
X0116268Y0159487D01*
X0115709Y0158929D01*
X0115315Y0158245D01*
X0115110Y0157482D01*
Y0156692D01*
X0115315Y0155929D01*
X0115709Y0155245D01*
X0116268Y0154686D01*
X0116952Y0154291D01*
X0117715Y0154087D01*
X0118505D01*
X0119268Y0154291D01*
X0119952Y0154686D01*
X0120511Y0155245D01*
X0120906Y0155929D01*
X0121110Y0156692D01*
Y0157482D01*
X0120906Y0158245D01*
X0120511Y0158929D01*
X0119952Y0159487D01*
X0119268Y0159882D01*
X0118505Y0160087D01*
D02*
G37*
G36*
X0084070Y0161559D02*
X0083017D01*
X0081999Y0161286D01*
X0081087Y0160760D01*
X0080343Y0160015D01*
X0079816Y0159103D01*
X0079543Y0158086D01*
Y0157032D01*
X0079816Y0156015D01*
X0080343Y0155103D01*
X0081087Y0154358D01*
X0081999Y0153832D01*
X0083017Y0153559D01*
X0084070D01*
X0085087Y0153832D01*
X0085999Y0154358D01*
X0086744Y0155103D01*
X0087271Y0156015D01*
X0087543Y0157032D01*
Y0158086D01*
X0087271Y0159103D01*
X0086744Y0160015D01*
X0085999Y0160760D01*
X0085087Y0161286D01*
X0084070Y0161559D01*
D02*
G37*
G36*
X0057543Y0157059D02*
X0054043D01*
Y0153559D01*
X0054070D01*
X0055087Y0153832D01*
X0055999Y0154358D01*
X0056744Y0155103D01*
X0057271Y0156015D01*
X0057543Y0157032D01*
Y0157059D01*
D02*
G37*
G36*
X0053043D02*
X0049543D01*
Y0157032D01*
X0049816Y0156015D01*
X0050343Y0155103D01*
X0051087Y0154358D01*
X0051999Y0153832D01*
X0053017Y0153559D01*
X0053043D01*
Y0157059D01*
D02*
G37*
G36*
X0582937Y0155012D02*
X0581209D01*
Y0153284D01*
X0581983Y0153604D01*
X0582616Y0154237D01*
X0582937Y0155012D01*
D02*
G37*
G36*
X0580209D02*
X0578480D01*
X0578801Y0154237D01*
X0579434Y0153604D01*
X0580209Y0153284D01*
Y0155012D01*
D02*
G37*
G36*
X0577031D02*
X0575303D01*
Y0153284D01*
X0576078Y0153604D01*
X0576711Y0154237D01*
X0577031Y0155012D01*
D02*
G37*
G36*
X0574303D02*
X0572575D01*
X0572896Y0154237D01*
X0573529Y0153604D01*
X0574303Y0153284D01*
Y0155012D01*
D02*
G37*
G36*
X0571126D02*
X0569398D01*
Y0153284D01*
X0570172Y0153604D01*
X0570805Y0154237D01*
X0571126Y0155012D01*
D02*
G37*
G36*
X0568398D02*
X0566669D01*
X0566990Y0154237D01*
X0567623Y0153604D01*
X0568398Y0153284D01*
Y0155012D01*
D02*
G37*
G36*
X0581209Y0151835D02*
Y0150106D01*
X0582937D01*
X0582616Y0150881D01*
X0581983Y0151514D01*
X0581209Y0151835D01*
D02*
G37*
G36*
X0580209D02*
X0579434Y0151514D01*
X0578801Y0150881D01*
X0578480Y0150106D01*
X0580209D01*
Y0151835D01*
D02*
G37*
G36*
X0084070Y0151559D02*
X0084043D01*
Y0148059D01*
X0087543D01*
Y0148086D01*
X0087271Y0149103D01*
X0086744Y0150015D01*
X0085999Y0150760D01*
X0085087Y0151286D01*
X0084070Y0151559D01*
D02*
G37*
G36*
X0083043D02*
X0083017D01*
X0081999Y0151286D01*
X0081087Y0150760D01*
X0080343Y0150015D01*
X0079816Y0149103D01*
X0079543Y0148086D01*
Y0148059D01*
X0083043D01*
Y0151559D01*
D02*
G37*
G36*
X0138978Y0153394D02*
X0138188D01*
X0137425Y0153189D01*
X0136741Y0152794D01*
X0136182Y0152236D01*
X0135787Y0151552D01*
X0135583Y0150789D01*
Y0149999D01*
X0135787Y0149236D01*
X0136182Y0148552D01*
X0136741Y0147993D01*
X0137425Y0147598D01*
X0138188Y0147394D01*
X0138978D01*
X0139741Y0147598D01*
X0140425Y0147993D01*
X0140983Y0148552D01*
X0141378Y0149236D01*
X0141583Y0149999D01*
Y0150789D01*
X0141378Y0151552D01*
X0140983Y0152236D01*
X0140425Y0152794D01*
X0139741Y0153189D01*
X0138978Y0153394D01*
D02*
G37*
G36*
X0582937Y0149106D02*
X0581209D01*
Y0147378D01*
X0581983Y0147699D01*
X0582616Y0148332D01*
X0582937Y0149106D01*
D02*
G37*
G36*
X0580209D02*
X0578480D01*
X0578801Y0148332D01*
X0579434Y0147699D01*
X0580209Y0147378D01*
Y0149106D01*
D02*
G37*
G36*
X0447836Y0150169D02*
X0447744D01*
Y0146169D01*
X0451744D01*
Y0146262D01*
X0451437Y0147406D01*
X0450845Y0148432D01*
X0450007Y0149270D01*
X0448981Y0149863D01*
X0447836Y0150169D01*
D02*
G37*
G36*
X0367522D02*
X0367429D01*
Y0146169D01*
X0371429D01*
Y0146262D01*
X0371123Y0147406D01*
X0370530Y0148432D01*
X0369692Y0149270D01*
X0368666Y0149863D01*
X0367522Y0150169D01*
D02*
G37*
G36*
X0446744D02*
X0446652D01*
X0445507Y0149863D01*
X0444481Y0149270D01*
X0443643Y0148432D01*
X0443051Y0147406D01*
X0442744Y0146262D01*
Y0146169D01*
X0446744D01*
Y0150169D01*
D02*
G37*
G36*
X0366429D02*
X0366337D01*
X0365192Y0149863D01*
X0364166Y0149270D01*
X0363328Y0148432D01*
X0362736Y0147406D01*
X0362429Y0146262D01*
Y0146169D01*
X0366429D01*
Y0150169D01*
D02*
G37*
G36*
X0407285D02*
X0407193D01*
Y0146169D01*
X0411193D01*
Y0146262D01*
X0410886Y0147406D01*
X0410294Y0148432D01*
X0409456Y0149270D01*
X0408430Y0149863D01*
X0407285Y0150169D01*
D02*
G37*
G36*
X0327758D02*
X0327665D01*
Y0146169D01*
X0331665D01*
Y0146262D01*
X0331359Y0147406D01*
X0330766Y0148432D01*
X0329928Y0149270D01*
X0328902Y0149863D01*
X0327758Y0150169D01*
D02*
G37*
G36*
X0287600D02*
X0287508D01*
Y0146169D01*
X0291508D01*
Y0146262D01*
X0291201Y0147406D01*
X0290609Y0148432D01*
X0289771Y0149270D01*
X0288745Y0149863D01*
X0287600Y0150169D01*
D02*
G37*
G36*
X0406193D02*
X0406101D01*
X0404956Y0149863D01*
X0403930Y0149270D01*
X0403092Y0148432D01*
X0402500Y0147406D01*
X0402193Y0146262D01*
Y0146169D01*
X0406193D01*
Y0150169D01*
D02*
G37*
G36*
X0326665D02*
X0326573D01*
X0325428Y0149863D01*
X0324402Y0149270D01*
X0323564Y0148432D01*
X0322972Y0147406D01*
X0322665Y0146262D01*
Y0146169D01*
X0326665D01*
Y0150169D01*
D02*
G37*
G36*
X0286508D02*
X0286415D01*
X0285271Y0149863D01*
X0284245Y0149270D01*
X0283407Y0148432D01*
X0282815Y0147406D01*
X0282508Y0146262D01*
Y0146169D01*
X0286508D01*
Y0150169D01*
D02*
G37*
G36*
X0248624D02*
X0248532D01*
Y0146169D01*
X0252532D01*
Y0146262D01*
X0252225Y0147406D01*
X0251632Y0148432D01*
X0250795Y0149270D01*
X0249768Y0149863D01*
X0248624Y0150169D01*
D02*
G37*
G36*
X0247532D02*
X0247439D01*
X0246295Y0149863D01*
X0245268Y0149270D01*
X0244431Y0148432D01*
X0243838Y0147406D01*
X0243531Y0146262D01*
Y0146169D01*
X0247532D01*
Y0150169D01*
D02*
G37*
G36*
X0581209Y0145929D02*
Y0144201D01*
X0582937D01*
X0582616Y0144975D01*
X0581983Y0145608D01*
X0581209Y0145929D01*
D02*
G37*
G36*
X0580209D02*
X0579434Y0145608D01*
X0578801Y0144975D01*
X0578480Y0144201D01*
X0580209D01*
Y0145929D01*
D02*
G37*
G36*
X0087543Y0147059D02*
X0084043D01*
Y0143559D01*
X0084070D01*
X0085087Y0143832D01*
X0085999Y0144358D01*
X0086744Y0145103D01*
X0087271Y0146015D01*
X0087543Y0147032D01*
Y0147059D01*
D02*
G37*
G36*
X0083043D02*
X0079543D01*
Y0147032D01*
X0079816Y0146015D01*
X0080343Y0145103D01*
X0081087Y0144358D01*
X0081999Y0143832D01*
X0083017Y0143559D01*
X0083043D01*
Y0147059D01*
D02*
G37*
G36*
X0582937Y0143201D02*
X0581209D01*
Y0141472D01*
X0581983Y0141793D01*
X0582616Y0142426D01*
X0582937Y0143201D01*
D02*
G37*
G36*
X0580209D02*
X0578480D01*
X0578801Y0142426D01*
X0579434Y0141793D01*
X0580209Y0141472D01*
Y0143201D01*
D02*
G37*
G36*
X0466340Y0150169D02*
X0465156D01*
X0464011Y0149863D01*
X0462985Y0149270D01*
X0462147Y0148432D01*
X0461555Y0147406D01*
X0461248Y0146262D01*
Y0145077D01*
X0461555Y0143932D01*
X0462147Y0142906D01*
X0462985Y0142068D01*
X0464011Y0141476D01*
X0465156Y0141169D01*
X0466340D01*
X0467485Y0141476D01*
X0468511Y0142068D01*
X0469349Y0142906D01*
X0469941Y0143932D01*
X0470248Y0145077D01*
Y0146262D01*
X0469941Y0147406D01*
X0469349Y0148432D01*
X0468511Y0149270D01*
X0467485Y0149863D01*
X0466340Y0150169D01*
D02*
G37*
G36*
X0451744Y0145169D02*
X0447744D01*
Y0141169D01*
X0447836D01*
X0448981Y0141476D01*
X0450007Y0142068D01*
X0450845Y0142906D01*
X0451437Y0143932D01*
X0451744Y0145077D01*
Y0145169D01*
D02*
G37*
G36*
X0446744D02*
X0442744D01*
Y0145077D01*
X0443051Y0143932D01*
X0443643Y0142906D01*
X0444481Y0142068D01*
X0445507Y0141476D01*
X0446652Y0141169D01*
X0446744D01*
Y0145169D01*
D02*
G37*
G36*
X0423821Y0150169D02*
X0422636D01*
X0421491Y0149863D01*
X0420465Y0149270D01*
X0419628Y0148432D01*
X0419035Y0147406D01*
X0418728Y0146262D01*
Y0145077D01*
X0419035Y0143932D01*
X0419628Y0142906D01*
X0420465Y0142068D01*
X0421491Y0141476D01*
X0422636Y0141169D01*
X0423821D01*
X0424965Y0141476D01*
X0425991Y0142068D01*
X0426829Y0142906D01*
X0427422Y0143932D01*
X0427728Y0145077D01*
Y0146262D01*
X0427422Y0147406D01*
X0426829Y0148432D01*
X0425991Y0149270D01*
X0424965Y0149863D01*
X0423821Y0150169D01*
D02*
G37*
G36*
X0411193Y0145169D02*
X0407193D01*
Y0141169D01*
X0407285D01*
X0408430Y0141476D01*
X0409456Y0142068D01*
X0410294Y0142906D01*
X0410886Y0143932D01*
X0411193Y0145077D01*
Y0145169D01*
D02*
G37*
G36*
X0406193D02*
X0402193D01*
Y0145077D01*
X0402500Y0143932D01*
X0403092Y0142906D01*
X0403930Y0142068D01*
X0404956Y0141476D01*
X0406101Y0141169D01*
X0406193D01*
Y0145169D01*
D02*
G37*
G36*
X0383663Y0150169D02*
X0382478D01*
X0381334Y0149863D01*
X0380308Y0149270D01*
X0379470Y0148432D01*
X0378877Y0147406D01*
X0378571Y0146262D01*
Y0145077D01*
X0378877Y0143932D01*
X0379470Y0142906D01*
X0380308Y0142068D01*
X0381334Y0141476D01*
X0382478Y0141169D01*
X0383663D01*
X0384808Y0141476D01*
X0385834Y0142068D01*
X0386672Y0142906D01*
X0387264Y0143932D01*
X0387571Y0145077D01*
Y0146262D01*
X0387264Y0147406D01*
X0386672Y0148432D01*
X0385834Y0149270D01*
X0384808Y0149863D01*
X0383663Y0150169D01*
D02*
G37*
G36*
X0371429Y0145169D02*
X0367429D01*
Y0141169D01*
X0367522D01*
X0368666Y0141476D01*
X0369692Y0142068D01*
X0370530Y0142906D01*
X0371123Y0143932D01*
X0371429Y0145077D01*
Y0145169D01*
D02*
G37*
G36*
X0366429D02*
X0362429D01*
Y0145077D01*
X0362736Y0143932D01*
X0363328Y0142906D01*
X0364166Y0142068D01*
X0365192Y0141476D01*
X0366337Y0141169D01*
X0366429D01*
Y0145169D01*
D02*
G37*
G36*
X0344293Y0150169D02*
X0343108D01*
X0341964Y0149863D01*
X0340938Y0149270D01*
X0340100Y0148432D01*
X0339508Y0147406D01*
X0339201Y0146262D01*
Y0145077D01*
X0339508Y0143932D01*
X0340100Y0142906D01*
X0340938Y0142068D01*
X0341964Y0141476D01*
X0343108Y0141169D01*
X0344293D01*
X0345438Y0141476D01*
X0346464Y0142068D01*
X0347302Y0142906D01*
X0347894Y0143932D01*
X0348201Y0145077D01*
Y0146262D01*
X0347894Y0147406D01*
X0347302Y0148432D01*
X0346464Y0149270D01*
X0345438Y0149863D01*
X0344293Y0150169D01*
D02*
G37*
G36*
X0331665Y0145169D02*
X0327665D01*
Y0141169D01*
X0327758D01*
X0328902Y0141476D01*
X0329928Y0142068D01*
X0330766Y0142906D01*
X0331359Y0143932D01*
X0331665Y0145077D01*
Y0145169D01*
D02*
G37*
G36*
X0326665D02*
X0322665D01*
Y0145077D01*
X0322972Y0143932D01*
X0323564Y0142906D01*
X0324402Y0142068D01*
X0325428Y0141476D01*
X0326573Y0141169D01*
X0326665D01*
Y0145169D01*
D02*
G37*
G36*
X0304136Y0150169D02*
X0302951D01*
X0301806Y0149863D01*
X0300780Y0149270D01*
X0299942Y0148432D01*
X0299350Y0147406D01*
X0299043Y0146262D01*
Y0145077D01*
X0299350Y0143932D01*
X0299942Y0142906D01*
X0300780Y0142068D01*
X0301806Y0141476D01*
X0302951Y0141169D01*
X0304136D01*
X0305280Y0141476D01*
X0306306Y0142068D01*
X0307144Y0142906D01*
X0307737Y0143932D01*
X0308043Y0145077D01*
Y0146262D01*
X0307737Y0147406D01*
X0307144Y0148432D01*
X0306306Y0149270D01*
X0305280Y0149863D01*
X0304136Y0150169D01*
D02*
G37*
G36*
X0291508Y0145169D02*
X0287508D01*
Y0141169D01*
X0287600D01*
X0288745Y0141476D01*
X0289771Y0142068D01*
X0290609Y0142906D01*
X0291201Y0143932D01*
X0291508Y0145077D01*
Y0145169D01*
D02*
G37*
G36*
X0286508D02*
X0282508D01*
Y0145077D01*
X0282815Y0143932D01*
X0283407Y0142906D01*
X0284245Y0142068D01*
X0285271Y0141476D01*
X0286415Y0141169D01*
X0286508D01*
Y0145169D01*
D02*
G37*
G36*
X0264766Y0150169D02*
X0263581D01*
X0262436Y0149863D01*
X0261410Y0149270D01*
X0260572Y0148432D01*
X0259980Y0147406D01*
X0259673Y0146262D01*
Y0145077D01*
X0259980Y0143932D01*
X0260572Y0142906D01*
X0261410Y0142068D01*
X0262436Y0141476D01*
X0263581Y0141169D01*
X0264766D01*
X0265910Y0141476D01*
X0266936Y0142068D01*
X0267774Y0142906D01*
X0268367Y0143932D01*
X0268673Y0145077D01*
Y0146262D01*
X0268367Y0147406D01*
X0267774Y0148432D01*
X0266936Y0149270D01*
X0265910Y0149863D01*
X0264766Y0150169D01*
D02*
G37*
G36*
X0252532Y0145169D02*
X0248532D01*
Y0141169D01*
X0248624D01*
X0249768Y0141476D01*
X0250795Y0142068D01*
X0251632Y0142906D01*
X0252225Y0143932D01*
X0252532Y0145077D01*
Y0145169D01*
D02*
G37*
G36*
X0247532D02*
X0243531D01*
Y0145077D01*
X0243838Y0143932D01*
X0244431Y0142906D01*
X0245268Y0142068D01*
X0246295Y0141476D01*
X0247439Y0141169D01*
X0247532D01*
Y0145169D01*
D02*
G37*
G36*
X0218309Y0150169D02*
X0217124D01*
X0215980Y0149863D01*
X0214953Y0149270D01*
X0214116Y0148432D01*
X0213523Y0147406D01*
X0213216Y0146262D01*
Y0145077D01*
X0213523Y0143932D01*
X0214116Y0142906D01*
X0214953Y0142068D01*
X0215980Y0141476D01*
X0217124Y0141169D01*
X0218309D01*
X0219454Y0141476D01*
X0220480Y0142068D01*
X0221317Y0142906D01*
X0221910Y0143932D01*
X0222217Y0145077D01*
Y0146262D01*
X0221910Y0147406D01*
X0221317Y0148432D01*
X0220480Y0149270D01*
X0219454Y0149863D01*
X0218309Y0150169D01*
D02*
G37*
G36*
X0084070Y0141559D02*
X0083017D01*
X0081999Y0141287D01*
X0081087Y0140760D01*
X0080343Y0140015D01*
X0079816Y0139103D01*
X0079543Y0138086D01*
Y0137032D01*
X0079816Y0136015D01*
X0080343Y0135103D01*
X0081087Y0134358D01*
X0081999Y0133832D01*
X0083017Y0133559D01*
X0084070D01*
X0085087Y0133832D01*
X0085999Y0134358D01*
X0086744Y0135103D01*
X0087271Y0136015D01*
X0087543Y0137032D01*
Y0138086D01*
X0087271Y0139103D01*
X0086744Y0140015D01*
X0085999Y0140760D01*
X0085087Y0141287D01*
X0084070Y0141559D01*
D02*
G37*
G36*
X0139962Y0135602D02*
X0139870D01*
Y0131602D01*
X0143870D01*
Y0131695D01*
X0143563Y0132839D01*
X0142971Y0133865D01*
X0142133Y0134703D01*
X0141107Y0135296D01*
X0139962Y0135602D01*
D02*
G37*
G36*
X0138870D02*
X0138778D01*
X0137633Y0135296D01*
X0136607Y0134703D01*
X0135769Y0133865D01*
X0135177Y0132839D01*
X0134870Y0131695D01*
Y0131602D01*
X0138870D01*
Y0135602D01*
D02*
G37*
G36*
X0440946Y0137252D02*
X0440156D01*
X0439393Y0137048D01*
X0438709Y0136653D01*
X0438151Y0136094D01*
X0437756Y0135410D01*
X0437551Y0134647D01*
Y0133857D01*
X0437756Y0133094D01*
X0438151Y0132410D01*
X0438709Y0131851D01*
X0439393Y0131456D01*
X0440156Y0131252D01*
X0440946D01*
X0441709Y0131456D01*
X0442393Y0131851D01*
X0442952Y0132410D01*
X0443347Y0133094D01*
X0443551Y0133857D01*
Y0134647D01*
X0443347Y0135410D01*
X0442952Y0136094D01*
X0442393Y0136653D01*
X0441709Y0137048D01*
X0440946Y0137252D01*
D02*
G37*
G36*
X0480710Y0136295D02*
X0479920D01*
X0479157Y0136091D01*
X0478473Y0135696D01*
X0477914Y0135137D01*
X0477519Y0134453D01*
X0477315Y0133690D01*
Y0132900D01*
X0477519Y0132137D01*
X0477914Y0131453D01*
X0478473Y0130895D01*
X0479157Y0130500D01*
X0479920Y0130295D01*
X0480710D01*
X0481473Y0130500D01*
X0482157Y0130895D01*
X0482716Y0131453D01*
X0483111Y0132137D01*
X0483315Y0132900D01*
Y0133690D01*
X0483111Y0134453D01*
X0482716Y0135137D01*
X0482157Y0135696D01*
X0481473Y0136091D01*
X0480710Y0136295D01*
D02*
G37*
G36*
X0179529Y0135980D02*
X0178739D01*
X0177976Y0135776D01*
X0177292Y0135381D01*
X0176733Y0134822D01*
X0176338Y0134138D01*
X0176134Y0133375D01*
Y0132585D01*
X0176338Y0131822D01*
X0176733Y0131138D01*
X0177292Y0130580D01*
X0177976Y0130185D01*
X0178739Y0129980D01*
X0179529D01*
X0180292Y0130185D01*
X0180976Y0130580D01*
X0181535Y0131138D01*
X0181930Y0131822D01*
X0182134Y0132585D01*
Y0133375D01*
X0181930Y0134138D01*
X0181535Y0134822D01*
X0180976Y0135381D01*
X0180292Y0135776D01*
X0179529Y0135980D01*
D02*
G37*
G36*
X0400395Y0135901D02*
X0399605D01*
X0398842Y0135697D01*
X0398158Y0135302D01*
X0397599Y0134743D01*
X0397204Y0134059D01*
X0397000Y0133296D01*
Y0132507D01*
X0397204Y0131744D01*
X0397599Y0131059D01*
X0398158Y0130501D01*
X0398842Y0130106D01*
X0399605Y0129902D01*
X0400395D01*
X0401158Y0130106D01*
X0401842Y0130501D01*
X0402400Y0131059D01*
X0402795Y0131744D01*
X0403000Y0132507D01*
Y0133296D01*
X0402795Y0134059D01*
X0402400Y0134743D01*
X0401842Y0135302D01*
X0401158Y0135697D01*
X0400395Y0135901D01*
D02*
G37*
G36*
X0280710D02*
X0279920D01*
X0279157Y0135697D01*
X0278473Y0135302D01*
X0277914Y0134743D01*
X0277519Y0134059D01*
X0277315Y0133296D01*
Y0132507D01*
X0277519Y0131744D01*
X0277914Y0131059D01*
X0278473Y0130501D01*
X0279157Y0130106D01*
X0279920Y0129902D01*
X0280710D01*
X0281473Y0130106D01*
X0282157Y0130501D01*
X0282716Y0131059D01*
X0283110Y0131744D01*
X0283315Y0132507D01*
Y0133296D01*
X0283110Y0134059D01*
X0282716Y0134743D01*
X0282157Y0135302D01*
X0281473Y0135697D01*
X0280710Y0135901D01*
D02*
G37*
G36*
X0360631Y0135901D02*
X0359841D01*
X0359078Y0135697D01*
X0358394Y0135302D01*
X0357836Y0134743D01*
X0357440Y0134059D01*
X0357236Y0133296D01*
Y0132507D01*
X0357440Y0131744D01*
X0357836Y0131059D01*
X0358394Y0130501D01*
X0359078Y0130106D01*
X0359841Y0129901D01*
X0360631D01*
X0361394Y0130106D01*
X0362078Y0130501D01*
X0362637Y0131059D01*
X0363032Y0131744D01*
X0363236Y0132507D01*
Y0133296D01*
X0363032Y0134059D01*
X0362637Y0134743D01*
X0362078Y0135302D01*
X0361394Y0135697D01*
X0360631Y0135901D01*
D02*
G37*
G36*
X0320671Y0135901D02*
X0319881D01*
X0319118Y0135697D01*
X0318433Y0135302D01*
X0317875Y0134743D01*
X0317480Y0134059D01*
X0317276Y0133296D01*
Y0132507D01*
X0317480Y0131744D01*
X0317875Y0131059D01*
X0318433Y0130501D01*
X0319118Y0130106D01*
X0319881Y0129901D01*
X0320671D01*
X0321433Y0130106D01*
X0322118Y0130501D01*
X0322676Y0131059D01*
X0323071Y0131744D01*
X0323275Y0132507D01*
Y0133296D01*
X0323071Y0134059D01*
X0322676Y0134743D01*
X0322118Y0135302D01*
X0321433Y0135697D01*
X0320671Y0135901D01*
D02*
G37*
G36*
X0192521Y0135677D02*
X0191731D01*
X0190968Y0135473D01*
X0190284Y0135078D01*
X0189725Y0134519D01*
X0189330Y0133835D01*
X0189126Y0133072D01*
Y0132282D01*
X0189330Y0131519D01*
X0189725Y0130835D01*
X0190284Y0130277D01*
X0190968Y0129882D01*
X0191731Y0129677D01*
X0192521D01*
X0193284Y0129882D01*
X0193968Y0130277D01*
X0194527Y0130835D01*
X0194922Y0131519D01*
X0195126Y0132282D01*
Y0133072D01*
X0194922Y0133835D01*
X0194527Y0134519D01*
X0193968Y0135078D01*
X0193284Y0135473D01*
X0192521Y0135677D01*
D02*
G37*
G36*
X0214175Y0134496D02*
X0213385D01*
X0212622Y0134292D01*
X0211937Y0133897D01*
X0211379Y0133338D01*
X0210984Y0132654D01*
X0210780Y0131891D01*
Y0131101D01*
X0210984Y0130338D01*
X0211379Y0129654D01*
X0211937Y0129095D01*
X0212622Y0128700D01*
X0213385Y0128496D01*
X0214175D01*
X0214937Y0128700D01*
X0215622Y0129095D01*
X0216180Y0129654D01*
X0216575Y0130338D01*
X0216779Y0131101D01*
Y0131891D01*
X0216575Y0132654D01*
X0216180Y0133338D01*
X0215622Y0133897D01*
X0214937Y0134292D01*
X0214175Y0134496D01*
D02*
G37*
G36*
X0054070Y0131559D02*
X0054043D01*
Y0128059D01*
X0057543D01*
Y0128086D01*
X0057271Y0129103D01*
X0056744Y0130015D01*
X0055999Y0130760D01*
X0055087Y0131287D01*
X0054070Y0131559D01*
D02*
G37*
G36*
X0053043D02*
X0053017D01*
X0051999Y0131287D01*
X0051087Y0130760D01*
X0050343Y0130015D01*
X0049816Y0129103D01*
X0049543Y0128086D01*
Y0128059D01*
X0053043D01*
Y0131559D01*
D02*
G37*
G36*
X0143870Y0130602D02*
X0139870D01*
Y0126602D01*
X0139962D01*
X0141107Y0126909D01*
X0142133Y0127501D01*
X0142971Y0128339D01*
X0143563Y0129365D01*
X0143870Y0130510D01*
Y0130602D01*
D02*
G37*
G36*
X0138870D02*
X0134870D01*
Y0130510D01*
X0135177Y0129365D01*
X0135769Y0128339D01*
X0136607Y0127501D01*
X0137633Y0126909D01*
X0138778Y0126602D01*
X0138870D01*
Y0130602D01*
D02*
G37*
G36*
X0118703Y0135602D02*
X0117518D01*
X0116373Y0135296D01*
X0115347Y0134703D01*
X0114509Y0133865D01*
X0113917Y0132839D01*
X0113610Y0131695D01*
Y0130510D01*
X0113917Y0129365D01*
X0114509Y0128339D01*
X0115347Y0127501D01*
X0116373Y0126909D01*
X0117518Y0126602D01*
X0118703D01*
X0119847Y0126909D01*
X0120873Y0127501D01*
X0121711Y0128339D01*
X0122304Y0129365D01*
X0122610Y0130510D01*
Y0131695D01*
X0122304Y0132839D01*
X0121711Y0133865D01*
X0120873Y0134703D01*
X0119847Y0135296D01*
X0118703Y0135602D01*
D02*
G37*
G36*
X0087543Y0131559D02*
X0079543D01*
Y0123559D01*
X0087543D01*
Y0131559D01*
D02*
G37*
G36*
X0057543Y0127059D02*
X0054043D01*
Y0123559D01*
X0054070D01*
X0055087Y0123832D01*
X0055999Y0124358D01*
X0056744Y0125103D01*
X0057271Y0126015D01*
X0057543Y0127032D01*
Y0127059D01*
D02*
G37*
G36*
X0053043D02*
X0049543D01*
Y0127032D01*
X0049816Y0126015D01*
X0050343Y0125103D01*
X0051087Y0124358D01*
X0051999Y0123832D01*
X0053017Y0123559D01*
X0053043D01*
Y0127059D01*
D02*
G37*
G36*
X0054031Y0121756D02*
X0054004D01*
Y0118256D01*
X0057504D01*
Y0118282D01*
X0057231Y0119300D01*
X0056705Y0120212D01*
X0055960Y0120957D01*
X0055048Y0121483D01*
X0054031Y0121756D01*
D02*
G37*
G36*
X0053004D02*
X0052977D01*
X0051960Y0121483D01*
X0051048Y0120957D01*
X0050303Y0120212D01*
X0049777Y0119300D01*
X0049504Y0118282D01*
Y0118256D01*
X0053004D01*
Y0121756D01*
D02*
G37*
G36*
X0515854Y0120688D02*
Y0118217D01*
X0518326D01*
X0518150Y0118875D01*
X0517755Y0119559D01*
X0517196Y0120117D01*
X0516512Y0120512D01*
X0515854Y0120688D01*
D02*
G37*
G36*
X0514854D02*
X0514196Y0120512D01*
X0513512Y0120117D01*
X0512954Y0119559D01*
X0512559Y0118875D01*
X0512383Y0118217D01*
X0514854D01*
Y0120688D01*
D02*
G37*
G36*
X0487508Y0117539D02*
Y0115067D01*
X0489980D01*
X0489803Y0115725D01*
X0489408Y0116409D01*
X0488850Y0116968D01*
X0488166Y0117363D01*
X0487508Y0117539D01*
D02*
G37*
G36*
X0486508D02*
X0485850Y0117363D01*
X0485166Y0116968D01*
X0484607Y0116409D01*
X0484212Y0115725D01*
X0484036Y0115067D01*
X0486508D01*
Y0117539D01*
D02*
G37*
G36*
X0518326Y0117217D02*
X0515854D01*
Y0114745D01*
X0516512Y0114921D01*
X0517196Y0115316D01*
X0517755Y0115875D01*
X0518150Y0116559D01*
X0518326Y0117217D01*
D02*
G37*
G36*
X0514854D02*
X0512383D01*
X0512559Y0116559D01*
X0512954Y0115875D01*
X0513512Y0115316D01*
X0514196Y0114921D01*
X0514854Y0114745D01*
Y0117217D01*
D02*
G37*
G36*
X0118505Y0120323D02*
X0117715D01*
X0116952Y0120118D01*
X0116268Y0119723D01*
X0115709Y0119165D01*
X0115315Y0118481D01*
X0115110Y0117718D01*
Y0116928D01*
X0115315Y0116165D01*
X0115709Y0115481D01*
X0116268Y0114922D01*
X0116952Y0114527D01*
X0117715Y0114323D01*
X0118505D01*
X0119268Y0114527D01*
X0119952Y0114922D01*
X0120511Y0115481D01*
X0120906Y0116165D01*
X0121110Y0116928D01*
Y0117718D01*
X0120906Y0118481D01*
X0120511Y0119165D01*
X0119952Y0119723D01*
X0119268Y0120118D01*
X0118505Y0120323D01*
D02*
G37*
G36*
X0084030Y0121756D02*
X0082977D01*
X0081960Y0121483D01*
X0081048Y0120957D01*
X0080303Y0120212D01*
X0079777Y0119300D01*
X0079504Y0118282D01*
Y0117229D01*
X0079777Y0116212D01*
X0080303Y0115300D01*
X0081048Y0114555D01*
X0081960Y0114029D01*
X0082977Y0113756D01*
X0084030D01*
X0085048Y0114029D01*
X0085960Y0114555D01*
X0086705Y0115300D01*
X0087231Y0116212D01*
X0087504Y0117229D01*
Y0118282D01*
X0087231Y0119300D01*
X0086705Y0120212D01*
X0085960Y0120957D01*
X0085048Y0121483D01*
X0084030Y0121756D01*
D02*
G37*
G36*
X0057504Y0117256D02*
X0054004D01*
Y0113756D01*
X0054031D01*
X0055048Y0114029D01*
X0055960Y0114555D01*
X0056705Y0115300D01*
X0057231Y0116212D01*
X0057504Y0117229D01*
Y0117256D01*
D02*
G37*
G36*
X0053004D02*
X0049504D01*
Y0117229D01*
X0049777Y0116212D01*
X0050303Y0115300D01*
X0051048Y0114555D01*
X0051960Y0114029D01*
X0052977Y0113756D01*
X0053004D01*
Y0117256D01*
D02*
G37*
G36*
X0489980Y0114067D02*
X0487508D01*
Y0111595D01*
X0488166Y0111772D01*
X0488850Y0112166D01*
X0489408Y0112725D01*
X0489803Y0113409D01*
X0489980Y0114067D01*
D02*
G37*
G36*
X0486508D02*
X0484036D01*
X0484212Y0113409D01*
X0484607Y0112725D01*
X0485166Y0112166D01*
X0485850Y0111772D01*
X0486508Y0111595D01*
Y0114067D01*
D02*
G37*
G36*
X0084030Y0111756D02*
X0084004D01*
Y0108256D01*
X0087504D01*
Y0108282D01*
X0087231Y0109300D01*
X0086705Y0110212D01*
X0085960Y0110957D01*
X0085048Y0111483D01*
X0084030Y0111756D01*
D02*
G37*
G36*
X0083004D02*
X0082977D01*
X0081960Y0111483D01*
X0081048Y0110957D01*
X0080303Y0110212D01*
X0079777Y0109300D01*
X0079504Y0108282D01*
Y0108256D01*
X0083004D01*
Y0111756D01*
D02*
G37*
G36*
X0138978Y0112843D02*
X0138188D01*
X0137425Y0112638D01*
X0136741Y0112243D01*
X0136182Y0111685D01*
X0135787Y0111001D01*
X0135583Y0110238D01*
Y0109448D01*
X0135787Y0108685D01*
X0136182Y0108001D01*
X0136741Y0107442D01*
X0137425Y0107047D01*
X0138188Y0106843D01*
X0138978D01*
X0139741Y0107047D01*
X0140425Y0107442D01*
X0140983Y0108001D01*
X0141378Y0108685D01*
X0141583Y0109448D01*
Y0110238D01*
X0141378Y0111001D01*
X0140983Y0111685D01*
X0140425Y0112243D01*
X0139741Y0112638D01*
X0138978Y0112843D01*
D02*
G37*
G36*
X0423991Y0109197D02*
X0423965D01*
Y0105697D01*
X0427465D01*
Y0105724D01*
X0427192Y0106741D01*
X0426665Y0107653D01*
X0425921Y0108398D01*
X0425008Y0108924D01*
X0423991Y0109197D01*
D02*
G37*
G36*
X0422965D02*
X0422938D01*
X0421921Y0108924D01*
X0421008Y0108398D01*
X0420264Y0107653D01*
X0419737Y0106741D01*
X0419465Y0105724D01*
Y0105697D01*
X0422965D01*
Y0109197D01*
D02*
G37*
G36*
X0344070D02*
X0344043D01*
Y0105697D01*
X0347543D01*
Y0105724D01*
X0347271Y0106741D01*
X0346744Y0107653D01*
X0345999Y0108398D01*
X0345087Y0108924D01*
X0344070Y0109197D01*
D02*
G37*
G36*
X0343043D02*
X0343017D01*
X0341999Y0108924D01*
X0341087Y0108398D01*
X0340342Y0107653D01*
X0339816Y0106741D01*
X0339543Y0105724D01*
Y0105697D01*
X0343043D01*
Y0109197D01*
D02*
G37*
G36*
X0383834D02*
X0383807D01*
Y0105697D01*
X0387307D01*
Y0105724D01*
X0387035Y0106741D01*
X0386508Y0107653D01*
X0385763Y0108398D01*
X0384851Y0108924D01*
X0383834Y0109197D01*
D02*
G37*
G36*
X0189661Y0109197D02*
X0189634D01*
Y0105697D01*
X0193134D01*
Y0105724D01*
X0192861Y0106741D01*
X0192335Y0107653D01*
X0191590Y0108398D01*
X0190678Y0108924D01*
X0189661Y0109197D01*
D02*
G37*
G36*
X0188634D02*
X0188607D01*
X0187590Y0108924D01*
X0186678Y0108398D01*
X0185933Y0107653D01*
X0185406Y0106741D01*
X0185134Y0105724D01*
Y0105697D01*
X0188634D01*
Y0109197D01*
D02*
G37*
G36*
X0382807Y0109197D02*
X0382781D01*
X0381763Y0108924D01*
X0380851Y0108398D01*
X0380106Y0107653D01*
X0379580Y0106741D01*
X0379307Y0105724D01*
Y0105697D01*
X0382807D01*
Y0109197D01*
D02*
G37*
G36*
X0264149Y0109118D02*
X0264122D01*
Y0105618D01*
X0267622D01*
Y0105645D01*
X0267350Y0106662D01*
X0266823Y0107574D01*
X0266078Y0108319D01*
X0265166Y0108845D01*
X0264149Y0109118D01*
D02*
G37*
G36*
X0263122D02*
X0263095D01*
X0262078Y0108845D01*
X0261166Y0108319D01*
X0260421Y0107574D01*
X0259895Y0106662D01*
X0259622Y0105645D01*
Y0105618D01*
X0263122D01*
Y0109118D01*
D02*
G37*
G36*
X0463912Y0109118D02*
X0463886D01*
Y0105618D01*
X0467386D01*
Y0105645D01*
X0467113Y0106662D01*
X0466587Y0107574D01*
X0465842Y0108319D01*
X0464930Y0108845D01*
X0463912Y0109118D01*
D02*
G37*
G36*
X0462886D02*
X0462859D01*
X0461842Y0108845D01*
X0460930Y0108319D01*
X0460185Y0107574D01*
X0459658Y0106662D01*
X0459386Y0105645D01*
Y0105618D01*
X0462886D01*
Y0109118D01*
D02*
G37*
G36*
X0304070Y0109118D02*
X0304043D01*
Y0105618D01*
X0307543D01*
Y0105645D01*
X0307271Y0106662D01*
X0306744Y0107574D01*
X0305999Y0108319D01*
X0305087Y0108845D01*
X0304070Y0109118D01*
D02*
G37*
G36*
X0303043D02*
X0303017D01*
X0301999Y0108845D01*
X0301087Y0108319D01*
X0300342Y0107574D01*
X0299816Y0106662D01*
X0299543Y0105645D01*
Y0105618D01*
X0303043D01*
Y0109118D01*
D02*
G37*
G36*
X0087504Y0107256D02*
X0084004D01*
Y0103756D01*
X0084030D01*
X0085048Y0104028D01*
X0085960Y0104555D01*
X0086705Y0105300D01*
X0087231Y0106212D01*
X0087504Y0107229D01*
Y0107256D01*
D02*
G37*
G36*
X0083004D02*
X0079504D01*
Y0107229D01*
X0079777Y0106212D01*
X0080303Y0105300D01*
X0081048Y0104555D01*
X0081960Y0104028D01*
X0082977Y0103756D01*
X0083004D01*
Y0107256D01*
D02*
G37*
G36*
X0437465Y0109197D02*
X0429465D01*
Y0101197D01*
X0437465D01*
Y0109197D01*
D02*
G37*
G36*
X0427465Y0104697D02*
X0423965D01*
Y0101197D01*
X0423991D01*
X0425008Y0101469D01*
X0425921Y0101996D01*
X0426665Y0102741D01*
X0427192Y0103653D01*
X0427465Y0104670D01*
Y0104697D01*
D02*
G37*
G36*
X0422965D02*
X0419465D01*
Y0104670D01*
X0419737Y0103653D01*
X0420264Y0102741D01*
X0421008Y0101996D01*
X0421921Y0101469D01*
X0422938Y0101197D01*
X0422965D01*
Y0104697D01*
D02*
G37*
G36*
X0413991Y0109197D02*
X0412938D01*
X0411921Y0108924D01*
X0411009Y0108398D01*
X0410264Y0107653D01*
X0409737Y0106741D01*
X0409465Y0105724D01*
Y0104670D01*
X0409737Y0103653D01*
X0410264Y0102741D01*
X0411009Y0101996D01*
X0411921Y0101469D01*
X0412938Y0101197D01*
X0413991D01*
X0415008Y0101469D01*
X0415921Y0101996D01*
X0416665Y0102741D01*
X0417192Y0103653D01*
X0417465Y0104670D01*
Y0105724D01*
X0417192Y0106741D01*
X0416665Y0107653D01*
X0415921Y0108398D01*
X0415008Y0108924D01*
X0413991Y0109197D01*
D02*
G37*
G36*
X0403991D02*
X0402938D01*
X0401921Y0108924D01*
X0401009Y0108398D01*
X0400264Y0107653D01*
X0399737Y0106741D01*
X0399465Y0105724D01*
Y0104670D01*
X0399737Y0103653D01*
X0400264Y0102741D01*
X0401009Y0101996D01*
X0401921Y0101469D01*
X0402938Y0101197D01*
X0403991D01*
X0405009Y0101469D01*
X0405921Y0101996D01*
X0406665Y0102741D01*
X0407192Y0103653D01*
X0407465Y0104670D01*
Y0105724D01*
X0407192Y0106741D01*
X0406665Y0107653D01*
X0405921Y0108398D01*
X0405009Y0108924D01*
X0403991Y0109197D01*
D02*
G37*
G36*
X0397307D02*
X0389307D01*
Y0101197D01*
X0397307D01*
Y0109197D01*
D02*
G37*
G36*
X0387307Y0104697D02*
X0383807D01*
Y0101197D01*
X0383834D01*
X0384851Y0101469D01*
X0385763Y0101996D01*
X0386508Y0102741D01*
X0387035Y0103653D01*
X0387307Y0104670D01*
Y0104697D01*
D02*
G37*
G36*
X0382807D02*
X0379307D01*
Y0104670D01*
X0379580Y0103653D01*
X0380106Y0102741D01*
X0380851Y0101996D01*
X0381763Y0101469D01*
X0382781Y0101197D01*
X0382807D01*
Y0104697D01*
D02*
G37*
G36*
X0373834Y0109197D02*
X0372780D01*
X0371763Y0108924D01*
X0370851Y0108398D01*
X0370106Y0107653D01*
X0369580Y0106741D01*
X0369307Y0105724D01*
Y0104670D01*
X0369580Y0103653D01*
X0370106Y0102741D01*
X0370851Y0101996D01*
X0371763Y0101469D01*
X0372780Y0101197D01*
X0373834D01*
X0374851Y0101469D01*
X0375763Y0101996D01*
X0376508Y0102741D01*
X0377034Y0103653D01*
X0377307Y0104670D01*
Y0105724D01*
X0377034Y0106741D01*
X0376508Y0107653D01*
X0375763Y0108398D01*
X0374851Y0108924D01*
X0373834Y0109197D01*
D02*
G37*
G36*
X0363834D02*
X0362780D01*
X0361763Y0108924D01*
X0360851Y0108398D01*
X0360106Y0107653D01*
X0359580Y0106741D01*
X0359307Y0105724D01*
Y0104670D01*
X0359580Y0103653D01*
X0360106Y0102741D01*
X0360851Y0101996D01*
X0361763Y0101469D01*
X0362780Y0101197D01*
X0363834D01*
X0364851Y0101469D01*
X0365763Y0101996D01*
X0366508Y0102741D01*
X0367035Y0103653D01*
X0367307Y0104670D01*
Y0105724D01*
X0367035Y0106741D01*
X0366508Y0107653D01*
X0365763Y0108398D01*
X0364851Y0108924D01*
X0363834Y0109197D01*
D02*
G37*
G36*
X0357543D02*
X0349543D01*
Y0101197D01*
X0357543D01*
Y0109197D01*
D02*
G37*
G36*
X0347543Y0104697D02*
X0344043D01*
Y0101197D01*
X0344070D01*
X0345087Y0101469D01*
X0345999Y0101996D01*
X0346744Y0102741D01*
X0347271Y0103653D01*
X0347543Y0104670D01*
Y0104697D01*
D02*
G37*
G36*
X0343043D02*
X0339543D01*
Y0104670D01*
X0339816Y0103653D01*
X0340342Y0102741D01*
X0341087Y0101996D01*
X0341999Y0101469D01*
X0343017Y0101197D01*
X0343043D01*
Y0104697D01*
D02*
G37*
G36*
X0334070Y0109197D02*
X0333017D01*
X0331999Y0108924D01*
X0331087Y0108398D01*
X0330343Y0107653D01*
X0329816Y0106741D01*
X0329543Y0105724D01*
Y0104670D01*
X0329816Y0103653D01*
X0330343Y0102741D01*
X0331087Y0101996D01*
X0331999Y0101469D01*
X0333017Y0101197D01*
X0334070D01*
X0335087Y0101469D01*
X0335999Y0101996D01*
X0336744Y0102741D01*
X0337271Y0103653D01*
X0337543Y0104670D01*
Y0105724D01*
X0337271Y0106741D01*
X0336744Y0107653D01*
X0335999Y0108398D01*
X0335087Y0108924D01*
X0334070Y0109197D01*
D02*
G37*
G36*
X0324070D02*
X0323017D01*
X0321999Y0108924D01*
X0321087Y0108398D01*
X0320342Y0107653D01*
X0319816Y0106741D01*
X0319543Y0105724D01*
Y0104670D01*
X0319816Y0103653D01*
X0320342Y0102741D01*
X0321087Y0101996D01*
X0321999Y0101469D01*
X0323017Y0101197D01*
X0324070D01*
X0325087Y0101469D01*
X0325999Y0101996D01*
X0326744Y0102741D01*
X0327271Y0103653D01*
X0327543Y0104670D01*
Y0105724D01*
X0327271Y0106741D01*
X0326744Y0107653D01*
X0325999Y0108398D01*
X0325087Y0108924D01*
X0324070Y0109197D01*
D02*
G37*
G36*
X0213134Y0109197D02*
X0205134D01*
Y0101197D01*
X0213134D01*
Y0109197D01*
D02*
G37*
G36*
X0199661D02*
X0198607D01*
X0197590Y0108924D01*
X0196678Y0108398D01*
X0195933Y0107653D01*
X0195406Y0106741D01*
X0195134Y0105724D01*
Y0104670D01*
X0195406Y0103653D01*
X0195933Y0102741D01*
X0196678Y0101996D01*
X0197590Y0101469D01*
X0198607Y0101197D01*
X0199661D01*
X0200678Y0101469D01*
X0201590Y0101996D01*
X0202335Y0102741D01*
X0202861Y0103653D01*
X0203134Y0104670D01*
Y0105724D01*
X0202861Y0106741D01*
X0202335Y0107653D01*
X0201590Y0108398D01*
X0200678Y0108924D01*
X0199661Y0109197D01*
D02*
G37*
G36*
X0193134Y0104697D02*
X0189634D01*
Y0101197D01*
X0189661D01*
X0190678Y0101469D01*
X0191590Y0101996D01*
X0192335Y0102741D01*
X0192861Y0103653D01*
X0193134Y0104670D01*
Y0104697D01*
D02*
G37*
G36*
X0188634D02*
X0185134D01*
Y0104670D01*
X0185406Y0103653D01*
X0185933Y0102741D01*
X0186678Y0101996D01*
X0187590Y0101469D01*
X0188607Y0101197D01*
X0188634D01*
Y0104697D01*
D02*
G37*
G36*
X0179660Y0109197D02*
X0178607D01*
X0177590Y0108924D01*
X0176678Y0108398D01*
X0175933Y0107653D01*
X0175406Y0106741D01*
X0175134Y0105724D01*
Y0104670D01*
X0175406Y0103653D01*
X0175933Y0102741D01*
X0176678Y0101996D01*
X0177590Y0101469D01*
X0178607Y0101197D01*
X0179660D01*
X0180678Y0101469D01*
X0181590Y0101996D01*
X0182335Y0102741D01*
X0182861Y0103653D01*
X0183134Y0104670D01*
Y0105724D01*
X0182861Y0106741D01*
X0182335Y0107653D01*
X0181590Y0108398D01*
X0180678Y0108924D01*
X0179660Y0109197D01*
D02*
G37*
G36*
X0477386Y0109118D02*
X0469386D01*
Y0101118D01*
X0477386D01*
Y0109118D01*
D02*
G37*
G36*
X0467386Y0104618D02*
X0463886D01*
Y0101118D01*
X0463912D01*
X0464930Y0101391D01*
X0465842Y0101917D01*
X0466587Y0102662D01*
X0467113Y0103574D01*
X0467386Y0104592D01*
Y0104618D01*
D02*
G37*
G36*
X0462886D02*
X0459386D01*
Y0104592D01*
X0459658Y0103574D01*
X0460185Y0102662D01*
X0460930Y0101917D01*
X0461842Y0101391D01*
X0462859Y0101118D01*
X0462886D01*
Y0104618D01*
D02*
G37*
G36*
X0453912Y0109118D02*
X0452859D01*
X0451842Y0108845D01*
X0450930Y0108319D01*
X0450185Y0107574D01*
X0449658Y0106662D01*
X0449386Y0105645D01*
Y0104592D01*
X0449658Y0103574D01*
X0450185Y0102662D01*
X0450930Y0101917D01*
X0451842Y0101391D01*
X0452859Y0101118D01*
X0453912D01*
X0454930Y0101391D01*
X0455842Y0101917D01*
X0456587Y0102662D01*
X0457113Y0103574D01*
X0457386Y0104592D01*
Y0105645D01*
X0457113Y0106662D01*
X0456587Y0107574D01*
X0455842Y0108319D01*
X0454930Y0108845D01*
X0453912Y0109118D01*
D02*
G37*
G36*
X0443912D02*
X0442859D01*
X0441842Y0108845D01*
X0440930Y0108319D01*
X0440185Y0107574D01*
X0439658Y0106662D01*
X0439386Y0105645D01*
Y0104592D01*
X0439658Y0103574D01*
X0440185Y0102662D01*
X0440930Y0101917D01*
X0441842Y0101391D01*
X0442859Y0101118D01*
X0443912D01*
X0444930Y0101391D01*
X0445842Y0101917D01*
X0446587Y0102662D01*
X0447113Y0103574D01*
X0447386Y0104592D01*
Y0105645D01*
X0447113Y0106662D01*
X0446587Y0107574D01*
X0445842Y0108319D01*
X0444930Y0108845D01*
X0443912Y0109118D01*
D02*
G37*
G36*
X0317543Y0109118D02*
X0309543D01*
Y0101118D01*
X0317543D01*
Y0109118D01*
D02*
G37*
G36*
X0307543Y0104618D02*
X0304043D01*
Y0101118D01*
X0304070D01*
X0305087Y0101391D01*
X0305999Y0101917D01*
X0306744Y0102662D01*
X0307271Y0103574D01*
X0307543Y0104592D01*
Y0104618D01*
D02*
G37*
G36*
X0303043D02*
X0299543D01*
Y0104592D01*
X0299816Y0103574D01*
X0300342Y0102662D01*
X0301087Y0101917D01*
X0301999Y0101391D01*
X0303017Y0101118D01*
X0303043D01*
Y0104618D01*
D02*
G37*
G36*
X0294070Y0109118D02*
X0293017D01*
X0291999Y0108845D01*
X0291087Y0108319D01*
X0290342Y0107574D01*
X0289816Y0106662D01*
X0289543Y0105645D01*
Y0104592D01*
X0289816Y0103574D01*
X0290342Y0102662D01*
X0291087Y0101917D01*
X0291999Y0101391D01*
X0293017Y0101118D01*
X0294070D01*
X0295087Y0101391D01*
X0295999Y0101917D01*
X0296744Y0102662D01*
X0297271Y0103574D01*
X0297543Y0104592D01*
Y0105645D01*
X0297271Y0106662D01*
X0296744Y0107574D01*
X0295999Y0108319D01*
X0295087Y0108845D01*
X0294070Y0109118D01*
D02*
G37*
G36*
X0284070D02*
X0283017D01*
X0281999Y0108845D01*
X0281087Y0108319D01*
X0280343Y0107574D01*
X0279816Y0106662D01*
X0279543Y0105645D01*
Y0104592D01*
X0279816Y0103574D01*
X0280343Y0102662D01*
X0281087Y0101917D01*
X0281999Y0101391D01*
X0283017Y0101118D01*
X0284070D01*
X0285087Y0101391D01*
X0285999Y0101917D01*
X0286744Y0102662D01*
X0287271Y0103574D01*
X0287543Y0104592D01*
Y0105645D01*
X0287271Y0106662D01*
X0286744Y0107574D01*
X0285999Y0108319D01*
X0285087Y0108845D01*
X0284070Y0109118D01*
D02*
G37*
G36*
X0277622D02*
X0269622D01*
Y0101118D01*
X0277622D01*
Y0109118D01*
D02*
G37*
G36*
X0267622Y0104618D02*
X0264122D01*
Y0101118D01*
X0264149D01*
X0265166Y0101391D01*
X0266078Y0101917D01*
X0266823Y0102662D01*
X0267350Y0103574D01*
X0267622Y0104592D01*
Y0104618D01*
D02*
G37*
G36*
X0263122D02*
X0259622D01*
Y0104592D01*
X0259895Y0103574D01*
X0260421Y0102662D01*
X0261166Y0101917D01*
X0262078Y0101391D01*
X0263095Y0101118D01*
X0263122D01*
Y0104618D01*
D02*
G37*
G36*
X0254149Y0109118D02*
X0253095D01*
X0252078Y0108845D01*
X0251166Y0108319D01*
X0250421Y0107574D01*
X0249895Y0106662D01*
X0249622Y0105645D01*
Y0104592D01*
X0249895Y0103574D01*
X0250421Y0102662D01*
X0251166Y0101917D01*
X0252078Y0101391D01*
X0253095Y0101118D01*
X0254149D01*
X0255166Y0101391D01*
X0256078Y0101917D01*
X0256823Y0102662D01*
X0257349Y0103574D01*
X0257622Y0104592D01*
Y0105645D01*
X0257349Y0106662D01*
X0256823Y0107574D01*
X0256078Y0108319D01*
X0255166Y0108845D01*
X0254149Y0109118D01*
D02*
G37*
G36*
X0244149D02*
X0243095D01*
X0242078Y0108845D01*
X0241166Y0108319D01*
X0240421Y0107574D01*
X0239895Y0106662D01*
X0239622Y0105645D01*
Y0104592D01*
X0239895Y0103574D01*
X0240421Y0102662D01*
X0241166Y0101917D01*
X0242078Y0101391D01*
X0243095Y0101118D01*
X0244149D01*
X0245166Y0101391D01*
X0246078Y0101917D01*
X0246823Y0102662D01*
X0247350Y0103574D01*
X0247622Y0104592D01*
Y0105645D01*
X0247350Y0106662D01*
X0246823Y0107574D01*
X0246078Y0108319D01*
X0245166Y0108845D01*
X0244149Y0109118D01*
D02*
G37*
G36*
X0084030Y0101756D02*
X0082977D01*
X0081960Y0101483D01*
X0081048Y0100957D01*
X0080303Y0100212D01*
X0079777Y0099300D01*
X0079504Y0098282D01*
Y0097229D01*
X0079777Y0096212D01*
X0080303Y0095300D01*
X0081048Y0094555D01*
X0081960Y0094029D01*
X0082977Y0093756D01*
X0084030D01*
X0085048Y0094029D01*
X0085960Y0094555D01*
X0086705Y0095300D01*
X0087231Y0096212D01*
X0087504Y0097229D01*
Y0098282D01*
X0087231Y0099300D01*
X0086705Y0100212D01*
X0085960Y0100957D01*
X0085048Y0101483D01*
X0084030Y0101756D01*
D02*
G37*
G36*
X0139962Y0095445D02*
X0139870D01*
Y0091445D01*
X0143870D01*
Y0091537D01*
X0143563Y0092682D01*
X0142971Y0093708D01*
X0142133Y0094546D01*
X0141107Y0095138D01*
X0139962Y0095445D01*
D02*
G37*
G36*
X0138870D02*
X0138778D01*
X0137633Y0095138D01*
X0136607Y0094546D01*
X0135769Y0093708D01*
X0135177Y0092682D01*
X0134870Y0091537D01*
Y0091445D01*
X0138870D01*
Y0095445D01*
D02*
G37*
G36*
X0054031Y0091756D02*
X0054004D01*
Y0088256D01*
X0057504D01*
Y0088283D01*
X0057231Y0089300D01*
X0056705Y0090212D01*
X0055960Y0090957D01*
X0055048Y0091483D01*
X0054031Y0091756D01*
D02*
G37*
G36*
X0053004D02*
X0052977D01*
X0051960Y0091483D01*
X0051048Y0090957D01*
X0050303Y0090212D01*
X0049777Y0089300D01*
X0049504Y0088283D01*
Y0088256D01*
X0053004D01*
Y0091756D01*
D02*
G37*
G36*
X0143870Y0090445D02*
X0139870D01*
Y0086445D01*
X0139962D01*
X0141107Y0086752D01*
X0142133Y0087344D01*
X0142971Y0088182D01*
X0143563Y0089208D01*
X0143870Y0090352D01*
Y0090445D01*
D02*
G37*
G36*
X0138870D02*
X0134870D01*
Y0090352D01*
X0135177Y0089208D01*
X0135769Y0088182D01*
X0136607Y0087344D01*
X0137633Y0086752D01*
X0138778Y0086445D01*
X0138870D01*
Y0090445D01*
D02*
G37*
G36*
X0118703Y0095445D02*
X0117518D01*
X0116373Y0095138D01*
X0115347Y0094546D01*
X0114509Y0093708D01*
X0113917Y0092682D01*
X0113610Y0091537D01*
Y0090352D01*
X0113917Y0089208D01*
X0114509Y0088182D01*
X0115347Y0087344D01*
X0116373Y0086752D01*
X0117518Y0086445D01*
X0118703D01*
X0119847Y0086752D01*
X0120873Y0087344D01*
X0121711Y0088182D01*
X0122304Y0089208D01*
X0122610Y0090352D01*
Y0091537D01*
X0122304Y0092682D01*
X0121711Y0093708D01*
X0120873Y0094546D01*
X0119847Y0095138D01*
X0118703Y0095445D01*
D02*
G37*
G36*
X0500789Y0092370D02*
X0499999D01*
X0499236Y0092166D01*
X0498552Y0091771D01*
X0497993Y0091212D01*
X0497598Y0090528D01*
X0497394Y0089765D01*
Y0088975D01*
X0497598Y0088212D01*
X0497993Y0087528D01*
X0498552Y0086970D01*
X0499236Y0086575D01*
X0499999Y0086370D01*
X0500789D01*
X0501552Y0086575D01*
X0502236Y0086970D01*
X0502794Y0087528D01*
X0503189Y0088212D01*
X0503394Y0088975D01*
Y0089765D01*
X0503189Y0090528D01*
X0502794Y0091212D01*
X0502236Y0091771D01*
X0501552Y0092166D01*
X0500789Y0092370D01*
D02*
G37*
G36*
X0087504Y0091756D02*
X0079504D01*
Y0083756D01*
X0087504D01*
Y0091756D01*
D02*
G37*
G36*
X0057504Y0087256D02*
X0054004D01*
Y0083756D01*
X0054031D01*
X0055048Y0084029D01*
X0055960Y0084555D01*
X0056705Y0085300D01*
X0057231Y0086212D01*
X0057504Y0087229D01*
Y0087256D01*
D02*
G37*
G36*
X0053004D02*
X0049504D01*
Y0087229D01*
X0049777Y0086212D01*
X0050303Y0085300D01*
X0051048Y0084555D01*
X0051960Y0084029D01*
X0052977Y0083756D01*
X0053004D01*
Y0087256D01*
D02*
G37*
G36*
X0518505Y0087252D02*
X0517715D01*
X0516952Y0087047D01*
X0516268Y0086653D01*
X0515710Y0086094D01*
X0515315Y0085410D01*
X0515110Y0084647D01*
Y0083857D01*
X0515315Y0083094D01*
X0515710Y0082410D01*
X0516268Y0081851D01*
X0516952Y0081456D01*
X0517715Y0081252D01*
X0518505D01*
X0519268Y0081456D01*
X0519952Y0081851D01*
X0520511Y0082410D01*
X0520906Y0083094D01*
X0521110Y0083857D01*
Y0084647D01*
X0520906Y0085410D01*
X0520511Y0086094D01*
X0519952Y0086653D01*
X0519268Y0087047D01*
X0518505Y0087252D01*
D02*
G37*
G36*
X0433991Y0079197D02*
X0433965D01*
Y0075697D01*
X0437465D01*
Y0075723D01*
X0437192Y0076741D01*
X0436665Y0077653D01*
X0435921Y0078398D01*
X0435008Y0078924D01*
X0433991Y0079197D01*
D02*
G37*
G36*
X0403991D02*
X0403965D01*
Y0075697D01*
X0407465D01*
Y0075723D01*
X0407192Y0076741D01*
X0406665Y0077653D01*
X0405921Y0078398D01*
X0405009Y0078924D01*
X0403991Y0079197D01*
D02*
G37*
G36*
X0432965D02*
X0432938D01*
X0431921Y0078924D01*
X0431008Y0078398D01*
X0430264Y0077653D01*
X0429737Y0076741D01*
X0429465Y0075723D01*
Y0075697D01*
X0432965D01*
Y0079197D01*
D02*
G37*
G36*
X0402965D02*
X0402938D01*
X0401921Y0078924D01*
X0401009Y0078398D01*
X0400264Y0077653D01*
X0399737Y0076741D01*
X0399465Y0075723D01*
Y0075697D01*
X0402965D01*
Y0079197D01*
D02*
G37*
G36*
X0354070D02*
X0354043D01*
Y0075697D01*
X0357543D01*
Y0075723D01*
X0357271Y0076741D01*
X0356744Y0077653D01*
X0355999Y0078398D01*
X0355087Y0078924D01*
X0354070Y0079197D01*
D02*
G37*
G36*
X0324070D02*
X0324043D01*
Y0075697D01*
X0327543D01*
Y0075723D01*
X0327271Y0076741D01*
X0326744Y0077653D01*
X0325999Y0078398D01*
X0325087Y0078924D01*
X0324070Y0079197D01*
D02*
G37*
G36*
X0353043D02*
X0353017D01*
X0351999Y0078924D01*
X0351087Y0078398D01*
X0350342Y0077653D01*
X0349816Y0076741D01*
X0349543Y0075723D01*
Y0075697D01*
X0353043D01*
Y0079197D01*
D02*
G37*
G36*
X0323043D02*
X0323017D01*
X0321999Y0078924D01*
X0321087Y0078398D01*
X0320342Y0077653D01*
X0319816Y0076741D01*
X0319543Y0075723D01*
Y0075697D01*
X0323043D01*
Y0079197D01*
D02*
G37*
G36*
X0393834D02*
X0393807D01*
Y0075697D01*
X0397307D01*
Y0075723D01*
X0397035Y0076741D01*
X0396508Y0077653D01*
X0395763Y0078398D01*
X0394851Y0078924D01*
X0393834Y0079197D01*
D02*
G37*
G36*
X0363834D02*
X0363807D01*
Y0075697D01*
X0367307D01*
Y0075723D01*
X0367035Y0076741D01*
X0366508Y0077653D01*
X0365763Y0078398D01*
X0364851Y0078924D01*
X0363834Y0079197D01*
D02*
G37*
G36*
X0209661Y0079197D02*
X0209634D01*
Y0075697D01*
X0213134D01*
Y0075723D01*
X0212861Y0076741D01*
X0212335Y0077653D01*
X0211590Y0078398D01*
X0210678Y0078924D01*
X0209661Y0079197D01*
D02*
G37*
G36*
X0179660D02*
X0179634D01*
Y0075697D01*
X0183134D01*
Y0075723D01*
X0182861Y0076741D01*
X0182335Y0077653D01*
X0181590Y0078398D01*
X0180678Y0078924D01*
X0179660Y0079197D01*
D02*
G37*
G36*
X0208634D02*
X0208607D01*
X0207590Y0078924D01*
X0206678Y0078398D01*
X0205933Y0077653D01*
X0205406Y0076741D01*
X0205134Y0075723D01*
Y0075697D01*
X0208634D01*
Y0079197D01*
D02*
G37*
G36*
X0178634D02*
X0178607D01*
X0177590Y0078924D01*
X0176678Y0078398D01*
X0175933Y0077653D01*
X0175406Y0076741D01*
X0175134Y0075723D01*
Y0075697D01*
X0178634D01*
Y0079197D01*
D02*
G37*
G36*
X0392807Y0079197D02*
X0392780D01*
X0391763Y0078924D01*
X0390851Y0078398D01*
X0390106Y0077653D01*
X0389580Y0076741D01*
X0389307Y0075723D01*
Y0075697D01*
X0392807D01*
Y0079197D01*
D02*
G37*
G36*
X0362807D02*
X0362780D01*
X0361763Y0078924D01*
X0360851Y0078398D01*
X0360106Y0077653D01*
X0359580Y0076741D01*
X0359307Y0075723D01*
Y0075697D01*
X0362807D01*
Y0079197D01*
D02*
G37*
G36*
X0274149Y0079118D02*
X0274122D01*
Y0075618D01*
X0277622D01*
Y0075645D01*
X0277349Y0076662D01*
X0276823Y0077574D01*
X0276078Y0078319D01*
X0275166Y0078846D01*
X0274149Y0079118D01*
D02*
G37*
G36*
X0244149D02*
X0244122D01*
Y0075618D01*
X0247622D01*
Y0075645D01*
X0247350Y0076662D01*
X0246823Y0077574D01*
X0246078Y0078319D01*
X0245166Y0078846D01*
X0244149Y0079118D01*
D02*
G37*
G36*
X0273122D02*
X0273095D01*
X0272078Y0078846D01*
X0271166Y0078319D01*
X0270421Y0077574D01*
X0269895Y0076662D01*
X0269622Y0075645D01*
Y0075618D01*
X0273122D01*
Y0079118D01*
D02*
G37*
G36*
X0243122D02*
X0243095D01*
X0242078Y0078846D01*
X0241166Y0078319D01*
X0240421Y0077574D01*
X0239895Y0076662D01*
X0239622Y0075645D01*
Y0075618D01*
X0243122D01*
Y0079118D01*
D02*
G37*
G36*
X0473912Y0079118D02*
X0473886D01*
Y0075618D01*
X0477386D01*
Y0075645D01*
X0477113Y0076662D01*
X0476587Y0077574D01*
X0475842Y0078319D01*
X0474930Y0078846D01*
X0473912Y0079118D01*
D02*
G37*
G36*
X0443912D02*
X0443886D01*
Y0075618D01*
X0447386D01*
Y0075645D01*
X0447113Y0076662D01*
X0446587Y0077574D01*
X0445842Y0078319D01*
X0444930Y0078846D01*
X0443912Y0079118D01*
D02*
G37*
G36*
X0472886D02*
X0472859D01*
X0471842Y0078846D01*
X0470930Y0078319D01*
X0470185Y0077574D01*
X0469658Y0076662D01*
X0469386Y0075645D01*
Y0075618D01*
X0472886D01*
Y0079118D01*
D02*
G37*
G36*
X0442886D02*
X0442859D01*
X0441842Y0078846D01*
X0440930Y0078319D01*
X0440185Y0077574D01*
X0439658Y0076662D01*
X0439386Y0075645D01*
Y0075618D01*
X0442886D01*
Y0079118D01*
D02*
G37*
G36*
X0314070Y0079118D02*
X0314043D01*
Y0075618D01*
X0317543D01*
Y0075645D01*
X0317271Y0076662D01*
X0316744Y0077574D01*
X0315999Y0078319D01*
X0315087Y0078846D01*
X0314070Y0079118D01*
D02*
G37*
G36*
X0284070D02*
X0284043D01*
Y0075618D01*
X0287543D01*
Y0075645D01*
X0287271Y0076662D01*
X0286744Y0077574D01*
X0285999Y0078319D01*
X0285087Y0078846D01*
X0284070Y0079118D01*
D02*
G37*
G36*
X0313043D02*
X0313017D01*
X0311999Y0078846D01*
X0311087Y0078319D01*
X0310343Y0077574D01*
X0309816Y0076662D01*
X0309543Y0075645D01*
Y0075618D01*
X0313043D01*
Y0079118D01*
D02*
G37*
G36*
X0283043D02*
X0283017D01*
X0281999Y0078846D01*
X0281087Y0078319D01*
X0280343Y0077574D01*
X0279816Y0076662D01*
X0279543Y0075645D01*
Y0075618D01*
X0283043D01*
Y0079118D01*
D02*
G37*
G36*
X0529858Y0077547D02*
X0529634D01*
Y0072547D01*
X0534634D01*
Y0072771D01*
X0534259Y0074170D01*
X0533535Y0075424D01*
X0532511Y0076448D01*
X0531257Y0077172D01*
X0529858Y0077547D01*
D02*
G37*
G36*
X0528634D02*
X0528410D01*
X0527011Y0077172D01*
X0525757Y0076448D01*
X0524733Y0075424D01*
X0524009Y0074170D01*
X0523634Y0072771D01*
Y0072547D01*
X0528634D01*
Y0077547D01*
D02*
G37*
G36*
X0437465Y0074697D02*
X0433965D01*
Y0071197D01*
X0433991D01*
X0435008Y0071469D01*
X0435921Y0071996D01*
X0436665Y0072741D01*
X0437192Y0073653D01*
X0437465Y0074670D01*
Y0074697D01*
D02*
G37*
G36*
X0432965D02*
X0429465D01*
Y0074670D01*
X0429737Y0073653D01*
X0430264Y0072741D01*
X0431008Y0071996D01*
X0431921Y0071469D01*
X0432938Y0071197D01*
X0432965D01*
Y0074697D01*
D02*
G37*
G36*
X0407465D02*
X0403965D01*
Y0071197D01*
X0403991D01*
X0405009Y0071469D01*
X0405921Y0071996D01*
X0406665Y0072741D01*
X0407192Y0073653D01*
X0407465Y0074670D01*
Y0074697D01*
D02*
G37*
G36*
X0402965D02*
X0399465D01*
Y0074670D01*
X0399737Y0073653D01*
X0400264Y0072741D01*
X0401009Y0071996D01*
X0401921Y0071469D01*
X0402938Y0071197D01*
X0402965D01*
Y0074697D01*
D02*
G37*
G36*
X0397307Y0074697D02*
X0393807D01*
Y0071197D01*
X0393834D01*
X0394851Y0071469D01*
X0395763Y0071996D01*
X0396508Y0072741D01*
X0397035Y0073653D01*
X0397307Y0074670D01*
Y0074697D01*
D02*
G37*
G36*
X0392807D02*
X0389307D01*
Y0074670D01*
X0389580Y0073653D01*
X0390106Y0072741D01*
X0390851Y0071996D01*
X0391763Y0071469D01*
X0392780Y0071197D01*
X0392807D01*
Y0074697D01*
D02*
G37*
G36*
X0367307D02*
X0363807D01*
Y0071197D01*
X0363834D01*
X0364851Y0071469D01*
X0365763Y0071996D01*
X0366508Y0072741D01*
X0367035Y0073653D01*
X0367307Y0074670D01*
Y0074697D01*
D02*
G37*
G36*
X0362807D02*
X0359307D01*
Y0074670D01*
X0359580Y0073653D01*
X0360106Y0072741D01*
X0360851Y0071996D01*
X0361763Y0071469D01*
X0362780Y0071197D01*
X0362807D01*
Y0074697D01*
D02*
G37*
G36*
X0357543Y0074697D02*
X0354043D01*
Y0071197D01*
X0354070D01*
X0355087Y0071469D01*
X0355999Y0071996D01*
X0356744Y0072741D01*
X0357271Y0073653D01*
X0357543Y0074670D01*
Y0074697D01*
D02*
G37*
G36*
X0353043D02*
X0349543D01*
Y0074670D01*
X0349816Y0073653D01*
X0350342Y0072741D01*
X0351087Y0071996D01*
X0351999Y0071469D01*
X0353017Y0071197D01*
X0353043D01*
Y0074697D01*
D02*
G37*
G36*
X0327543D02*
X0324043D01*
Y0071197D01*
X0324070D01*
X0325087Y0071469D01*
X0325999Y0071996D01*
X0326744Y0072741D01*
X0327271Y0073653D01*
X0327543Y0074670D01*
Y0074697D01*
D02*
G37*
G36*
X0323043D02*
X0319543D01*
Y0074670D01*
X0319816Y0073653D01*
X0320342Y0072741D01*
X0321087Y0071996D01*
X0321999Y0071469D01*
X0323017Y0071197D01*
X0323043D01*
Y0074697D01*
D02*
G37*
G36*
X0213134Y0074697D02*
X0209634D01*
Y0071197D01*
X0209661D01*
X0210678Y0071469D01*
X0211590Y0071996D01*
X0212335Y0072741D01*
X0212861Y0073653D01*
X0213134Y0074670D01*
Y0074697D01*
D02*
G37*
G36*
X0208634D02*
X0205134D01*
Y0074670D01*
X0205406Y0073653D01*
X0205933Y0072741D01*
X0206678Y0071996D01*
X0207590Y0071469D01*
X0208607Y0071197D01*
X0208634D01*
Y0074697D01*
D02*
G37*
G36*
X0183134D02*
X0179634D01*
Y0071197D01*
X0179660D01*
X0180678Y0071469D01*
X0181590Y0071996D01*
X0182335Y0072741D01*
X0182861Y0073653D01*
X0183134Y0074670D01*
Y0074697D01*
D02*
G37*
G36*
X0178634D02*
X0175134D01*
Y0074670D01*
X0175406Y0073653D01*
X0175933Y0072741D01*
X0176678Y0071996D01*
X0177590Y0071469D01*
X0178607Y0071197D01*
X0178634D01*
Y0074697D01*
D02*
G37*
G36*
X0477386Y0074618D02*
X0473886D01*
Y0071118D01*
X0473912D01*
X0474930Y0071391D01*
X0475842Y0071917D01*
X0476587Y0072662D01*
X0477113Y0073574D01*
X0477386Y0074591D01*
Y0074618D01*
D02*
G37*
G36*
X0472886D02*
X0469386D01*
Y0074591D01*
X0469658Y0073574D01*
X0470185Y0072662D01*
X0470930Y0071917D01*
X0471842Y0071391D01*
X0472859Y0071118D01*
X0472886D01*
Y0074618D01*
D02*
G37*
G36*
X0447386D02*
X0443886D01*
Y0071118D01*
X0443912D01*
X0444930Y0071391D01*
X0445842Y0071917D01*
X0446587Y0072662D01*
X0447113Y0073574D01*
X0447386Y0074591D01*
Y0074618D01*
D02*
G37*
G36*
X0442886D02*
X0439386D01*
Y0074591D01*
X0439658Y0073574D01*
X0440185Y0072662D01*
X0440930Y0071917D01*
X0441842Y0071391D01*
X0442859Y0071118D01*
X0442886D01*
Y0074618D01*
D02*
G37*
G36*
X0317543Y0074618D02*
X0314043D01*
Y0071118D01*
X0314070D01*
X0315087Y0071391D01*
X0315999Y0071917D01*
X0316744Y0072662D01*
X0317271Y0073574D01*
X0317543Y0074591D01*
Y0074618D01*
D02*
G37*
G36*
X0313043D02*
X0309543D01*
Y0074591D01*
X0309816Y0073574D01*
X0310343Y0072662D01*
X0311087Y0071917D01*
X0311999Y0071391D01*
X0313017Y0071118D01*
X0313043D01*
Y0074618D01*
D02*
G37*
G36*
X0287543D02*
X0284043D01*
Y0071118D01*
X0284070D01*
X0285087Y0071391D01*
X0285999Y0071917D01*
X0286744Y0072662D01*
X0287271Y0073574D01*
X0287543Y0074591D01*
Y0074618D01*
D02*
G37*
G36*
X0283043D02*
X0279543D01*
Y0074591D01*
X0279816Y0073574D01*
X0280343Y0072662D01*
X0281087Y0071917D01*
X0281999Y0071391D01*
X0283017Y0071118D01*
X0283043D01*
Y0074618D01*
D02*
G37*
G36*
X0277622Y0074618D02*
X0274122D01*
Y0071118D01*
X0274149D01*
X0275166Y0071391D01*
X0276078Y0071917D01*
X0276823Y0072662D01*
X0277349Y0073574D01*
X0277622Y0074591D01*
Y0074618D01*
D02*
G37*
G36*
X0273122D02*
X0269622D01*
Y0074591D01*
X0269895Y0073574D01*
X0270421Y0072662D01*
X0271166Y0071917D01*
X0272078Y0071391D01*
X0273095Y0071118D01*
X0273122D01*
Y0074618D01*
D02*
G37*
G36*
X0247622D02*
X0244122D01*
Y0071118D01*
X0244149D01*
X0245166Y0071391D01*
X0246078Y0071917D01*
X0246823Y0072662D01*
X0247350Y0073574D01*
X0247622Y0074591D01*
Y0074618D01*
D02*
G37*
G36*
X0243122D02*
X0239622D01*
Y0074591D01*
X0239895Y0073574D01*
X0240421Y0072662D01*
X0241166Y0071917D01*
X0242078Y0071391D01*
X0243095Y0071118D01*
X0243122D01*
Y0074618D01*
D02*
G37*
G36*
X0534634Y0071547D02*
X0529634D01*
Y0066547D01*
X0529858D01*
X0531257Y0066922D01*
X0532511Y0067646D01*
X0533535Y0068670D01*
X0534259Y0069924D01*
X0534634Y0071323D01*
Y0071547D01*
D02*
G37*
G36*
X0528634D02*
X0523634D01*
Y0071323D01*
X0524009Y0069924D01*
X0524733Y0068670D01*
X0525757Y0067646D01*
X0527011Y0066922D01*
X0528410Y0066547D01*
X0528634D01*
Y0071547D01*
D02*
G37*
G36*
X0516078Y0077547D02*
X0514630D01*
X0513231Y0077172D01*
X0511977Y0076448D01*
X0510953Y0075424D01*
X0510229Y0074170D01*
X0509854Y0072771D01*
Y0071323D01*
X0510229Y0069924D01*
X0510953Y0068670D01*
X0511977Y0067646D01*
X0513231Y0066922D01*
X0514630Y0066547D01*
X0516078D01*
X0517477Y0066922D01*
X0518731Y0067646D01*
X0519755Y0068670D01*
X0520479Y0069924D01*
X0520854Y0071323D01*
Y0072771D01*
X0520479Y0074170D01*
X0519755Y0075424D01*
X0518731Y0076448D01*
X0517477Y0077172D01*
X0516078Y0077547D01*
D02*
G37*
G36*
X0565969Y0073835D02*
X0563952D01*
X0561961Y0073519D01*
X0560043Y0072896D01*
X0558246Y0071981D01*
X0556615Y0070795D01*
X0555189Y0069369D01*
X0554004Y0067738D01*
X0553088Y0065941D01*
X0552465Y0064024D01*
X0552150Y0062032D01*
Y0060015D01*
X0552465Y0058024D01*
X0553088Y0056106D01*
X0554004Y0054309D01*
X0555189Y0052678D01*
X0556615Y0051252D01*
X0558246Y0050067D01*
X0560043Y0049151D01*
X0561961Y0048528D01*
X0563952Y0048213D01*
X0565969D01*
X0567961Y0048528D01*
X0569878Y0049151D01*
X0571675Y0050067D01*
X0573306Y0051252D01*
X0574732Y0052678D01*
X0575918Y0054309D01*
X0576833Y0056106D01*
X0577456Y0058024D01*
X0577772Y0060015D01*
Y0062032D01*
X0577456Y0064024D01*
X0576833Y0065941D01*
X0575918Y0067738D01*
X0574732Y0069369D01*
X0573306Y0070795D01*
X0571675Y0071981D01*
X0569878Y0072896D01*
X0567961Y0073519D01*
X0565969Y0073835D01*
D02*
G37*
G36*
X0042347D02*
X0040330D01*
X0038339Y0073519D01*
X0036421Y0072896D01*
X0034624Y0071981D01*
X0032993Y0070795D01*
X0031567Y0069369D01*
X0030382Y0067738D01*
X0029466Y0065941D01*
X0028843Y0064024D01*
X0028528Y0062032D01*
Y0060015D01*
X0028843Y0058024D01*
X0029466Y0056106D01*
X0030382Y0054309D01*
X0031567Y0052678D01*
X0032993Y0051252D01*
X0034624Y0050067D01*
X0036421Y0049151D01*
X0038339Y0048528D01*
X0040330Y0048213D01*
X0042347D01*
X0044339Y0048528D01*
X0046256Y0049151D01*
X0048053Y0050067D01*
X0049684Y0051252D01*
X0051110Y0052678D01*
X0052296Y0054309D01*
X0053211Y0056106D01*
X0053834Y0058024D01*
X0054150Y0060015D01*
Y0062032D01*
X0053834Y0064024D01*
X0053211Y0065941D01*
X0052296Y0067738D01*
X0051110Y0069369D01*
X0049684Y0070795D01*
X0048053Y0071981D01*
X0046256Y0072896D01*
X0044339Y0073519D01*
X0042347Y0073835D01*
D02*
G37*
%LPD*%
D10*
X0304237Y0210630D02*
G03*
X0286314Y0210630I-0008961J-0009843D01*
G01*
X0382315Y0235402D02*
Y0263358D01*
X0304237Y0210630D02*
X0304237D01*
X0098032D02*
X0286314D01*
X0304237D02*
X0551181D01*
X0382315Y0235402D02*
X0391339Y0226378D01*
X0300394Y0263228D02*
X0300551Y0263386D01*
X0300394Y0237008D02*
Y0263228D01*
Y0237008D02*
X0314961Y0222441D01*
X0219685Y0232677D02*
Y0263504D01*
X0219606Y0263583D02*
X0219685Y0263504D01*
Y0232677D02*
X0233858Y0218504D01*
X0559842D01*
X0544055Y0242559D02*
Y0263543D01*
Y0242559D02*
X0552362Y0234252D01*
X0577165D01*
X0578346Y0233071D01*
X0463417Y0235795D02*
Y0263358D01*
X0468898Y0230315D02*
X0572835D01*
X0463417Y0235795D02*
X0468898Y0230315D01*
X0572835D02*
X0574016Y0229134D01*
X0559842Y0218504D02*
X0561024Y0217323D01*
X0391339Y0226378D02*
X0568504Y0226378D01*
X0314961Y0222441D02*
X0564173D01*
X0138291Y0249116D02*
X0138504Y0249329D01*
X0138291Y0236118D02*
Y0249116D01*
X0138504Y0249329D02*
Y0263583D01*
X0138291Y0236118D02*
X0159918Y0214491D01*
X0555588D01*
X0057913Y0250748D02*
Y0263937D01*
Y0250748D02*
X0098032Y0210630D01*
X0568504Y0226378D02*
X0569685Y0225197D01*
X0564173Y0222441D02*
X0565354Y0221260D01*
X0555588Y0214491D02*
X0556693Y0213386D01*
X0551181Y0210630D02*
X0552362Y0209449D01*
D41*
X0217717Y0145669D02*
D03*
X0118110Y0171260D02*
D03*
X0139370D02*
D03*
Y0090945D02*
D03*
X0118110Y0131102D02*
D03*
X0139370D02*
D03*
X0118110Y0090945D02*
D03*
X0248031Y0145669D02*
D03*
X0465748D02*
D03*
X0447244D02*
D03*
X0423228D02*
D03*
X0406693D02*
D03*
X0383071D02*
D03*
X0366929D02*
D03*
X0343701D02*
D03*
X0327165D02*
D03*
X0303543D02*
D03*
X0287008D02*
D03*
X0264173D02*
D03*
D42*
X0515551Y0300551D02*
D03*
X0577559D02*
D03*
X0272047Y0300394D02*
D03*
X0334055D02*
D03*
X0091417Y0300945D02*
D03*
X0029409D02*
D03*
X0496921Y0300366D02*
D03*
X0434913D02*
D03*
X0253110Y0300590D02*
D03*
X0191102D02*
D03*
X0415819Y0300366D02*
D03*
X0353811D02*
D03*
X0172008Y0300591D02*
D03*
X0110000D02*
D03*
D43*
X0524055Y0288543D02*
D03*
X0569055D02*
D03*
X0280551Y0288386D02*
D03*
X0325551D02*
D03*
X0082913Y0288937D02*
D03*
X0037913D02*
D03*
X0488417Y0288358D02*
D03*
X0443417D02*
D03*
X0244606Y0288583D02*
D03*
X0199606D02*
D03*
X0407315Y0288358D02*
D03*
X0362315D02*
D03*
X0163504Y0288583D02*
D03*
X0118504D02*
D03*
D44*
X0529055Y0253543D02*
D03*
X0534055Y0263543D02*
D03*
X0539055Y0253543D02*
D03*
X0544055Y0263543D02*
D03*
X0549055Y0253543D02*
D03*
X0554055Y0263543D02*
D03*
X0559055Y0253543D02*
D03*
X0285551Y0253386D02*
D03*
X0290551Y0263386D02*
D03*
X0295551Y0253386D02*
D03*
X0300551Y0263386D02*
D03*
X0305551Y0253386D02*
D03*
X0310551Y0263386D02*
D03*
X0315551Y0253386D02*
D03*
X0072913Y0253937D02*
D03*
X0067913Y0263937D02*
D03*
X0062913Y0253937D02*
D03*
X0057913Y0263937D02*
D03*
X0052913Y0253937D02*
D03*
X0047913Y0263937D02*
D03*
X0042913Y0253937D02*
D03*
X0478417Y0253358D02*
D03*
X0473417Y0263358D02*
D03*
X0468417Y0253358D02*
D03*
X0463417Y0263358D02*
D03*
X0458417Y0253358D02*
D03*
X0453417Y0263358D02*
D03*
X0448417Y0253358D02*
D03*
X0234606Y0253583D02*
D03*
X0229606Y0263583D02*
D03*
X0224606Y0253583D02*
D03*
X0219606Y0263583D02*
D03*
X0214606Y0253583D02*
D03*
X0209606Y0263583D02*
D03*
X0204606Y0253583D02*
D03*
X0397315Y0253358D02*
D03*
X0392315Y0263358D02*
D03*
X0387315Y0253358D02*
D03*
X0382315Y0263358D02*
D03*
X0377315Y0253358D02*
D03*
X0372315Y0263358D02*
D03*
X0367315Y0253358D02*
D03*
X0153504Y0253583D02*
D03*
X0148504Y0263583D02*
D03*
X0143504Y0253583D02*
D03*
X0138504Y0263583D02*
D03*
X0133504Y0253583D02*
D03*
X0128504Y0263583D02*
D03*
X0123504Y0253583D02*
D03*
D45*
X0564055Y0263543D02*
D03*
X0320551Y0263386D02*
D03*
X0077913Y0263937D02*
D03*
X0483417Y0263358D02*
D03*
X0239606Y0263583D02*
D03*
X0402315Y0263358D02*
D03*
X0158504Y0263583D02*
D03*
D46*
X0209134Y0075197D02*
D03*
X0179134D02*
D03*
Y0105197D02*
D03*
X0189134D02*
D03*
X0199134D02*
D03*
X0083543Y0137559D02*
D03*
Y0147559D02*
D03*
Y0157559D02*
D03*
X0053543D02*
D03*
Y0127559D02*
D03*
X0083504Y0097756D02*
D03*
Y0107756D02*
D03*
Y0117756D02*
D03*
X0053504D02*
D03*
Y0087756D02*
D03*
X0083543Y0177717D02*
D03*
Y0187716D02*
D03*
Y0197716D02*
D03*
X0053543D02*
D03*
Y0167717D02*
D03*
X0393307Y0075197D02*
D03*
X0363307D02*
D03*
Y0105197D02*
D03*
X0373307D02*
D03*
X0383307D02*
D03*
X0473386Y0075118D02*
D03*
X0443386D02*
D03*
Y0105118D02*
D03*
X0453386D02*
D03*
X0463386D02*
D03*
X0303543Y0105118D02*
D03*
X0293543D02*
D03*
X0283543D02*
D03*
Y0075118D02*
D03*
X0313543D02*
D03*
X0263622Y0105118D02*
D03*
X0253622D02*
D03*
X0243622D02*
D03*
Y0075118D02*
D03*
X0273622D02*
D03*
X0343543Y0105197D02*
D03*
X0333543D02*
D03*
X0323543D02*
D03*
Y0075197D02*
D03*
X0353543D02*
D03*
X0423465Y0105197D02*
D03*
X0413465D02*
D03*
X0403465D02*
D03*
Y0075197D02*
D03*
X0433465D02*
D03*
D47*
X0209134Y0105197D02*
D03*
X0393307Y0105197D02*
D03*
X0473386Y0105118D02*
D03*
X0313543Y0105118D02*
D03*
X0273622D02*
D03*
X0353543Y0105197D02*
D03*
X0433465D02*
D03*
D48*
X0041339Y0061024D02*
D03*
X0295276Y0200787D02*
D03*
X0565187Y0336114D02*
D03*
X0564961Y0061024D02*
D03*
X0041565Y0336114D02*
D03*
D49*
X0083543Y0127559D02*
D03*
X0083504Y0087756D02*
D03*
X0083543Y0167717D02*
D03*
D50*
X0529134Y0072047D02*
D03*
X0515354D02*
D03*
D51*
X0512598Y0238189D02*
D03*
X0064567Y0227165D02*
D03*
X0506299Y0238189D02*
D03*
X0500000D02*
D03*
X0442126D02*
D03*
X0436614D02*
D03*
X0231102D02*
D03*
X0211811D02*
D03*
X0294488D02*
D03*
X0359055D02*
D03*
X0352362D02*
D03*
X0346063D02*
D03*
X0371654D02*
D03*
X0365748D02*
D03*
X0474016D02*
D03*
X0454724D02*
D03*
X0448425D02*
D03*
X0429921D02*
D03*
X0480315D02*
D03*
X0487008D02*
D03*
X0493307D02*
D03*
X0141291D02*
D03*
X0147638D02*
D03*
X0135039D02*
D03*
X0154331D02*
D03*
X0064567Y0232283D02*
D03*
X0122047Y0205906D02*
D03*
X0109449D02*
D03*
X0141339D02*
D03*
X0115748D02*
D03*
X0103150D02*
D03*
X0128740D02*
D03*
X0135039D02*
D03*
X0096457D02*
D03*
X0064567Y0222047D02*
D03*
Y0211811D02*
D03*
Y0216929D02*
D03*
Y0238189D02*
D03*
X0198819D02*
D03*
X0538189D02*
D03*
X0531496D02*
D03*
X0525197D02*
D03*
X0544488Y0205906D02*
D03*
X0538189D02*
D03*
X0531496D02*
D03*
X0525197D02*
D03*
X0090158D02*
D03*
X0064567D02*
D03*
X0070866D02*
D03*
X0077559D02*
D03*
X0083858D02*
D03*
X0314173D02*
D03*
X0269291D02*
D03*
X0275590D02*
D03*
X0237402D02*
D03*
X0231102D02*
D03*
X0224410D02*
D03*
X0218110D02*
D03*
X0243701D02*
D03*
X0250000D02*
D03*
X0256693D02*
D03*
X0262992D02*
D03*
X0160630D02*
D03*
X0154331D02*
D03*
X0147638D02*
D03*
X0186221D02*
D03*
X0179921D02*
D03*
X0173228D02*
D03*
X0166929D02*
D03*
X0192520D02*
D03*
X0198819D02*
D03*
X0205512D02*
D03*
X0211811D02*
D03*
X0416535D02*
D03*
X0410236D02*
D03*
X0403543D02*
D03*
X0397244D02*
D03*
X0371654D02*
D03*
X0377953D02*
D03*
X0384646D02*
D03*
X0390945D02*
D03*
X0339764D02*
D03*
X0333465D02*
D03*
X0326772D02*
D03*
X0320472D02*
D03*
X0346063D02*
D03*
X0352362D02*
D03*
X0359055D02*
D03*
X0365354D02*
D03*
X0467717D02*
D03*
X0461417D02*
D03*
X0454724D02*
D03*
X0448425D02*
D03*
X0422835D02*
D03*
X0429134D02*
D03*
X0435827D02*
D03*
X0442126D02*
D03*
X0493307D02*
D03*
X0487008D02*
D03*
X0480315D02*
D03*
X0474016D02*
D03*
X0499606D02*
D03*
X0505905D02*
D03*
X0512598D02*
D03*
X0518898D02*
D03*
X0109449Y0238189D02*
D03*
X0103150D02*
D03*
X0314173D02*
D03*
X0269291D02*
D03*
X0275590D02*
D03*
X0282283D02*
D03*
X0288583D02*
D03*
X0237402D02*
D03*
X0243701D02*
D03*
X0250000D02*
D03*
X0256693D02*
D03*
X0262992D02*
D03*
X0115748D02*
D03*
X0122047D02*
D03*
X0128740D02*
D03*
X0186221D02*
D03*
X0179921D02*
D03*
X0173228D02*
D03*
X0166929D02*
D03*
X0192520D02*
D03*
X0205512D02*
D03*
X0416535D02*
D03*
X0410236D02*
D03*
X0403543D02*
D03*
X0397244D02*
D03*
X0390945D02*
D03*
X0339764D02*
D03*
X0333465D02*
D03*
X0326772D02*
D03*
X0320472D02*
D03*
X0422835D02*
D03*
X0518898D02*
D03*
D52*
X0578346Y0233071D02*
D03*
X0580709Y0143701D02*
D03*
Y0149606D02*
D03*
X0594488Y0232283D02*
D03*
X0580709Y0155512D02*
D03*
X0574803D02*
D03*
X0568898D02*
D03*
X0578346Y0229134D02*
D03*
X0574016Y0225197D02*
D03*
Y0229134D02*
D03*
X0569685Y0221260D02*
D03*
Y0225197D02*
D03*
X0565354Y0217323D02*
D03*
Y0221260D02*
D03*
X0561024Y0213386D02*
D03*
Y0217323D02*
D03*
X0556693Y0209449D02*
D03*
Y0213386D02*
D03*
X0552362Y0209449D02*
D03*
Y0205512D02*
D03*
D53*
X0192126Y0132677D02*
D03*
X0213779Y0131496D02*
D03*
X0179134Y0132980D02*
D03*
X0138583Y0109843D02*
D03*
Y0150394D02*
D03*
X0118110Y0117323D02*
D03*
Y0157087D02*
D03*
Y0197638D02*
D03*
X0138583Y0190157D02*
D03*
X0515354Y0117717D02*
D03*
X0440551Y0134252D02*
D03*
X0487008Y0114567D02*
D03*
X0518110Y0084252D02*
D03*
X0480315Y0133295D02*
D03*
X0400000Y0132902D02*
D03*
X0360236Y0132901D02*
D03*
X0320275Y0132901D02*
D03*
X0280315Y0132902D02*
D03*
X0500394Y0089370D02*
D03*
M02*
