G04*
G04 #@! TF.GenerationSoftware,Altium Limited,Altium Designer,22.11.1 (43)*
G04*
G04 Layer_Color=128*
%FSAX25Y25*%
%MOIN*%
G70*
G04*
G04 #@! TF.SameCoordinates,EBA4B4AC-1B08-4463-AFC9-2197B451F785*
G04*
G04*
G04 #@! TF.FilePolarity,Positive*
G04*
G01*
G75*
%ADD17R,0.04331X0.03937*%
%ADD18R,0.03937X0.04331*%
%ADD19R,0.18300X0.02400*%
%ADD54R,0.07000X0.06000*%
%ADD55R,0.06000X0.07000*%
D17*
X0204725Y0244094D02*
D03*
X0211417D02*
D03*
X0289764Y0244882D02*
D03*
X0283071D02*
D03*
X0375394D02*
D03*
X0368701D02*
D03*
X0456890D02*
D03*
X0450197D02*
D03*
X0533858Y0245276D02*
D03*
X0527166D02*
D03*
X0125984Y0244488D02*
D03*
X0132677D02*
D03*
X0179134Y0124882D02*
D03*
X0172441D02*
D03*
X0109842Y0197638D02*
D03*
X0103150D02*
D03*
X0072441Y0087402D02*
D03*
X0065748D02*
D03*
X0072441Y0127559D02*
D03*
X0065748D02*
D03*
X0109843Y0117323D02*
D03*
X0103150D02*
D03*
X0072835Y0167717D02*
D03*
X0066142D02*
D03*
X0109842Y0157480D02*
D03*
X0103150D02*
D03*
X0280315Y0124803D02*
D03*
X0287008D02*
D03*
X0320275Y0124803D02*
D03*
X0326968D02*
D03*
X0360236Y0124803D02*
D03*
X0366929D02*
D03*
X0400000Y0124803D02*
D03*
X0406693D02*
D03*
X0440312Y0125211D02*
D03*
X0447005D02*
D03*
X0480315Y0125197D02*
D03*
X0487008D02*
D03*
D18*
X0052756Y0244094D02*
D03*
Y0237402D02*
D03*
X0179134Y0094882D02*
D03*
Y0088189D02*
D03*
X0243701Y0094882D02*
D03*
Y0088189D02*
D03*
X0283465Y0094882D02*
D03*
Y0088189D02*
D03*
X0323622Y0094882D02*
D03*
Y0088189D02*
D03*
X0363386Y0094882D02*
D03*
Y0088189D02*
D03*
X0403150Y0094882D02*
D03*
Y0088189D02*
D03*
X0443307Y0094488D02*
D03*
Y0087795D02*
D03*
D19*
X0616142Y0234252D02*
D03*
Y0159449D02*
D03*
Y0163386D02*
D03*
Y0167323D02*
D03*
Y0171260D02*
D03*
Y0175197D02*
D03*
Y0179134D02*
D03*
Y0183071D02*
D03*
Y0190945D02*
D03*
Y0194882D02*
D03*
Y0202756D02*
D03*
Y0206693D02*
D03*
Y0210630D02*
D03*
Y0214567D02*
D03*
Y0218504D02*
D03*
Y0222441D02*
D03*
Y0226378D02*
D03*
Y0230315D02*
D03*
Y0198819D02*
D03*
D54*
X0193307Y0080307D02*
D03*
Y0093307D02*
D03*
X0257874Y0080307D02*
D03*
Y0093307D02*
D03*
X0298031Y0080315D02*
D03*
Y0093315D02*
D03*
X0337795Y0080307D02*
D03*
Y0093307D02*
D03*
X0377559Y0080307D02*
D03*
Y0093307D02*
D03*
X0417323Y0080315D02*
D03*
Y0093315D02*
D03*
X0457480Y0079913D02*
D03*
Y0092913D02*
D03*
D55*
X0057866Y0102362D02*
D03*
X0070866D02*
D03*
X0057866Y0143701D02*
D03*
X0070866D02*
D03*
X0058260Y0184646D02*
D03*
X0071260D02*
D03*
M02*
