G04*
G04 #@! TF.GenerationSoftware,Altium Limited,Altium Designer,22.11.1 (43)*
G04*
G04 Layer_Color=32896*
%FSAX25Y25*%
%MOIN*%
G70*
G04*
G04 #@! TF.SameCoordinates,EBA4B4AC-1B08-4463-AFC9-2197B451F785*
G04*
G04*
G04 #@! TF.FilePolarity,Positive*
G04*
G01*
G75*
%ADD14C,0.00500*%
D14*
X0019685Y0039370D02*
X0019685Y0354331D01*
X0587008Y0241535D02*
Y0354331D01*
X0628740Y0153937D02*
X0631299Y0156496D01*
X0626968Y0152165D02*
X0628740Y0153937D01*
X0586811Y0152165D02*
X0626968D01*
X0631398Y0193799D02*
Y0236516D01*
X0626378Y0241535D02*
X0631398Y0236516D01*
X0631299Y0156496D02*
Y0180315D01*
X0626575Y0185039D02*
X0631299Y0180315D01*
X0595768Y0185039D02*
X0626575D01*
X0595768D02*
Y0186048D01*
X0631201Y0193602D02*
X0631398Y0193799D01*
X0626476Y0188878D02*
X0631201Y0193602D01*
X0595768Y0188878D02*
X0626476D01*
X0595768Y0186048D02*
Y0188878D01*
X0503937Y0354331D02*
X0587008D01*
X0351969D02*
X0503937D01*
X0224016D02*
X0351969D01*
X0084252D02*
X0224016D01*
X0019685Y0354331D02*
X0084252Y0354331D01*
X0019685Y0039370D02*
X0212598Y0039370D01*
X0347638D01*
X0431890D01*
X0505512D01*
X0586614D01*
X0586811D02*
Y0152165D01*
X0587008Y0241535D02*
X0626378D01*
M02*
