G04*
G04 #@! TF.GenerationSoftware,Altium Limited,Altium Designer,22.11.1 (43)*
G04*
G04 Layer_Color=65535*
%FSAX25Y25*%
%MOIN*%
G70*
G04*
G04 #@! TF.SameCoordinates,EBA4B4AC-1B08-4463-AFC9-2197B451F785*
G04*
G04*
G04 #@! TF.FilePolarity,Positive*
G04*
G01*
G75*
%ADD10C,0.01000*%
%ADD11C,0.00394*%
%ADD12C,0.00600*%
%ADD13C,0.00787*%
%ADD14C,0.00500*%
%ADD15C,0.00800*%
%ADD16C,0.00700*%
D10*
X0222716Y0145669D02*
G03*
X0222716Y0145669I-0005000J0000000D01*
G01*
X0123110Y0171260D02*
G03*
X0123110Y0171260I-0005000J0000000D01*
G01*
X0144370D02*
G03*
X0144370Y0171260I-0005000J0000000D01*
G01*
Y0090945D02*
G03*
X0144370Y0090945I-0005000J0000000D01*
G01*
X0123110Y0131102D02*
G03*
X0123110Y0131102I-0005000J0000000D01*
G01*
X0144370D02*
G03*
X0144370Y0131102I-0005000J0000000D01*
G01*
X0123110Y0090945D02*
G03*
X0123110Y0090945I-0005000J0000000D01*
G01*
X0253031Y0145669D02*
G03*
X0253031Y0145669I-0005000J0000000D01*
G01*
X0470748D02*
G03*
X0470748Y0145669I-0005000J0000000D01*
G01*
X0452244D02*
G03*
X0452244Y0145669I-0005000J0000000D01*
G01*
X0428228D02*
G03*
X0428228Y0145669I-0005000J0000000D01*
G01*
X0411693D02*
G03*
X0411693Y0145669I-0005000J0000000D01*
G01*
X0388071D02*
G03*
X0388071Y0145669I-0005000J0000000D01*
G01*
X0371929D02*
G03*
X0371929Y0145669I-0005000J0000000D01*
G01*
X0348701D02*
G03*
X0348701Y0145669I-0005000J0000000D01*
G01*
X0332165D02*
G03*
X0332165Y0145669I-0005000J0000000D01*
G01*
X0308543D02*
G03*
X0308543Y0145669I-0005000J0000000D01*
G01*
X0292008D02*
G03*
X0292008Y0145669I-0005000J0000000D01*
G01*
X0269173D02*
G03*
X0269173Y0145669I-0005000J0000000D01*
G01*
X0553937Y0240551D02*
X0555905D01*
X0569685D01*
Y0232677D02*
Y0240551D01*
X0553937Y0232677D02*
Y0240551D01*
Y0232677D02*
X0569685D01*
X0179134Y0116197D02*
X0209134D01*
X0214134Y0077447D02*
Y0081697D01*
Y0086697D02*
Y0116197D01*
X0174134Y0068197D02*
Y0081697D01*
X0178134D01*
X0177634Y0079697D02*
X0178134Y0081697D01*
X0177634Y0079697D02*
X0182134D01*
Y0086697D01*
X0214134Y0081697D02*
X0218134D01*
X0217634Y0079697D02*
X0218134Y0081697D01*
X0217634Y0079697D02*
X0222134D01*
Y0086697D01*
X0214134D02*
X0222134D01*
X0181134Y0042197D02*
X0207134D01*
X0214134Y0067897D01*
X0174134D02*
X0181134Y0042197D01*
X0214134Y0068197D02*
Y0077447D01*
X0174134Y0116197D02*
X0179134D01*
X0209134D02*
X0214134D01*
Y0067897D02*
Y0068197D01*
X0209134Y0067897D02*
X0214134D01*
X0174134D02*
Y0068197D01*
Y0067897D02*
X0209134D01*
X0174134Y0086697D02*
X0182134D01*
X0174134D02*
Y0116197D01*
X0174606Y0120945D02*
X0190354D01*
X0174606D02*
Y0128819D01*
X0190354Y0120945D02*
Y0128819D01*
X0176575D02*
X0190354D01*
X0174606D02*
X0176575D01*
X0206693Y0120275D02*
Y0136024D01*
X0198819Y0120275D02*
X0206693D01*
X0198819Y0136024D02*
X0206693D01*
X0198819Y0122244D02*
Y0136024D01*
Y0120275D02*
Y0122244D01*
X0065043Y0162559D02*
X0094543D01*
X0065043Y0154559D02*
Y0162559D01*
X0046243Y0127559D02*
Y0162559D01*
X0046543D01*
X0046243Y0122559D02*
Y0127559D01*
Y0122559D02*
X0046543D01*
X0094543D02*
Y0127559D01*
Y0157559D02*
Y0162559D01*
X0046543Y0122559D02*
X0055793D01*
X0020543Y0155559D02*
X0046243Y0162559D01*
X0020543Y0129559D02*
X0046243Y0122559D01*
X0020543Y0129559D02*
Y0155559D01*
X0065043Y0114559D02*
Y0122559D01*
X0058043Y0114559D02*
X0065043D01*
X0058043D02*
Y0119059D01*
X0060043Y0118559D01*
Y0122559D01*
X0058043Y0154559D02*
X0065043D01*
X0058043D02*
Y0159059D01*
X0060043Y0158559D01*
Y0162559D01*
X0046543D02*
X0060043D01*
X0065043Y0122559D02*
X0094543D01*
X0055793D02*
X0060043D01*
X0094543Y0127559D02*
Y0157559D01*
X0065004Y0122756D02*
X0094504D01*
X0065004Y0114756D02*
Y0122756D01*
X0046204Y0087756D02*
Y0122756D01*
X0046504D01*
X0046204Y0082756D02*
Y0087756D01*
Y0082756D02*
X0046504D01*
X0094504D02*
Y0087756D01*
Y0117756D02*
Y0122756D01*
X0046504Y0082756D02*
X0055754D01*
X0020504Y0115756D02*
X0046204Y0122756D01*
X0020504Y0089756D02*
X0046204Y0082756D01*
X0020504Y0089756D02*
Y0115756D01*
X0065004Y0074756D02*
Y0082756D01*
X0058004Y0074756D02*
X0065004D01*
X0058004D02*
Y0079256D01*
X0060004Y0078756D01*
Y0082756D01*
X0058004Y0114756D02*
X0065004D01*
X0058004D02*
Y0119256D01*
X0060004Y0118756D01*
Y0122756D01*
X0046504D02*
X0060004D01*
X0065004Y0082756D02*
X0094504D01*
X0055754D02*
X0060004D01*
X0094504Y0087756D02*
Y0117756D01*
X0065043Y0202716D02*
X0094543D01*
X0065043Y0194717D02*
Y0202716D01*
X0046243Y0167717D02*
Y0202716D01*
X0046543D01*
X0046243Y0162716D02*
Y0167717D01*
Y0162716D02*
X0046543D01*
X0094543D02*
Y0167717D01*
Y0197716D02*
Y0202716D01*
X0046543Y0162716D02*
X0055793D01*
X0020543Y0195717D02*
X0046243Y0202716D01*
X0020543Y0169717D02*
X0046243Y0162716D01*
X0020543Y0169717D02*
Y0195717D01*
X0065043Y0154717D02*
Y0162716D01*
X0058043Y0154717D02*
X0065043D01*
X0058043D02*
Y0159216D01*
X0060043Y0158716D01*
Y0162716D01*
X0058043Y0194717D02*
X0065043D01*
X0058043D02*
Y0199216D01*
X0060043Y0198716D01*
Y0202716D01*
X0046543D02*
X0060043D01*
X0065043Y0162716D02*
X0094543D01*
X0055793D02*
X0060043D01*
X0094543Y0167717D02*
Y0197716D01*
X0113779Y0159646D02*
Y0161614D01*
Y0145866D02*
Y0159646D01*
X0105905Y0145866D02*
X0113779D01*
X0105905Y0161614D02*
X0113779D01*
X0105905Y0145866D02*
Y0161614D01*
X0113779Y0119882D02*
Y0121850D01*
Y0106102D02*
Y0119882D01*
X0105905Y0106102D02*
X0113779D01*
X0105905Y0121850D02*
X0113779D01*
X0105905Y0106102D02*
Y0121850D01*
X0118701Y0113779D02*
X0120669D01*
X0134449D01*
Y0105905D02*
Y0113779D01*
X0118701Y0105905D02*
Y0113779D01*
Y0105905D02*
X0134449D01*
X0118701Y0154331D02*
X0120669D01*
X0134449D01*
Y0146457D02*
Y0154331D01*
X0118701Y0146457D02*
Y0154331D01*
Y0146457D02*
X0134449D01*
X0113779Y0200197D02*
Y0202165D01*
Y0186417D02*
Y0200197D01*
X0105905Y0186417D02*
X0113779D01*
X0105905Y0202165D02*
X0113779D01*
X0105905Y0186417D02*
Y0202165D01*
X0118701Y0194095D02*
X0120669D01*
X0134449D01*
Y0186221D02*
Y0194095D01*
X0118701Y0186221D02*
Y0194095D01*
Y0186221D02*
X0134449D01*
X0537854Y0042047D02*
Y0077547D01*
X0539354Y0042047D02*
Y0077547D01*
X0505354Y0042047D02*
Y0077547D01*
X0506854Y0042047D02*
Y0077547D01*
X0505354D02*
X0539354D01*
X0505354Y0042047D02*
X0539354D01*
X0309055Y0128740D02*
X0311024D01*
X0324803D01*
Y0120866D02*
Y0128740D01*
X0309055Y0120866D02*
Y0128740D01*
Y0120866D02*
X0324803D01*
X0349016Y0128740D02*
X0350984D01*
X0364764D01*
Y0120866D02*
Y0128740D01*
X0349016Y0120866D02*
Y0128740D01*
Y0120866D02*
X0364764D01*
X0388779Y0128740D02*
X0390748D01*
X0404528D01*
Y0120866D02*
Y0128740D01*
X0388779Y0120866D02*
Y0128740D01*
Y0120866D02*
X0404528D01*
X0429092Y0129148D02*
X0431061D01*
X0444840D01*
Y0121274D02*
Y0129148D01*
X0429092Y0121274D02*
Y0129148D01*
Y0121274D02*
X0444840D01*
X0469095Y0129134D02*
X0471063D01*
X0484843D01*
Y0121260D02*
Y0129134D01*
X0469095Y0121260D02*
Y0129134D01*
Y0121260D02*
X0484843D01*
X0511417Y0091929D02*
Y0093898D01*
Y0107677D01*
X0519291D01*
X0511417Y0091929D02*
X0519291D01*
Y0107677D01*
X0269094Y0120866D02*
X0284843D01*
X0269094D02*
Y0128740D01*
X0284843Y0120866D02*
Y0128740D01*
X0271063D02*
X0284843D01*
X0269094D02*
X0271063D01*
X0363307Y0116197D02*
X0393307D01*
X0398307Y0077447D02*
Y0081697D01*
Y0086697D02*
Y0116197D01*
X0358307Y0068197D02*
Y0081697D01*
X0362307D01*
X0361807Y0079697D02*
X0362307Y0081697D01*
X0361807Y0079697D02*
X0366307D01*
Y0086697D01*
X0398307Y0081697D02*
X0402307D01*
X0401807Y0079697D02*
X0402307Y0081697D01*
X0401807Y0079697D02*
X0406307D01*
Y0086697D01*
X0398307D02*
X0406307D01*
X0365307Y0042197D02*
X0391307D01*
X0398307Y0067897D01*
X0358307D02*
X0365307Y0042197D01*
X0398307Y0068197D02*
Y0077447D01*
X0358307Y0116197D02*
X0363307D01*
X0393307D02*
X0398307D01*
Y0067897D02*
Y0068197D01*
X0393307Y0067897D02*
X0398307D01*
X0358307D02*
Y0068197D01*
Y0067897D02*
X0393307D01*
X0358307Y0086697D02*
X0366307D01*
X0358307D02*
Y0116197D01*
X0443386Y0116118D02*
X0473386D01*
X0478386Y0077368D02*
Y0081618D01*
Y0086618D02*
Y0116118D01*
X0438386Y0068118D02*
Y0081618D01*
X0442386D01*
X0441886Y0079618D02*
X0442386Y0081618D01*
X0441886Y0079618D02*
X0446386D01*
Y0086618D01*
X0478386Y0081618D02*
X0482386D01*
X0481886Y0079618D02*
X0482386Y0081618D01*
X0481886Y0079618D02*
X0486386D01*
Y0086618D01*
X0478386D02*
X0486386D01*
X0445386Y0042118D02*
X0471386D01*
X0478386Y0067818D01*
X0438386D02*
X0445386Y0042118D01*
X0478386Y0068118D02*
Y0077368D01*
X0438386Y0116118D02*
X0443386D01*
X0473386D02*
X0478386D01*
Y0067818D02*
Y0068118D01*
X0473386Y0067818D02*
X0478386D01*
X0438386D02*
Y0068118D01*
Y0067818D02*
X0473386D01*
X0438386Y0086618D02*
X0446386D01*
X0438386D02*
Y0116118D01*
X0278543Y0086618D02*
Y0116118D01*
Y0086618D02*
X0286543D01*
X0278543Y0067818D02*
X0313543D01*
X0278543D02*
Y0068118D01*
X0313543Y0067818D02*
X0318543D01*
Y0068118D01*
X0313543Y0116118D02*
X0318543D01*
X0278543D02*
X0283543D01*
X0318543Y0068118D02*
Y0077368D01*
X0278543Y0067818D02*
X0285543Y0042118D01*
X0311543D02*
X0318543Y0067818D01*
X0285543Y0042118D02*
X0311543D01*
X0318543Y0086618D02*
X0326543D01*
Y0079618D02*
Y0086618D01*
X0322043Y0079618D02*
X0326543D01*
X0322043D02*
X0322543Y0081618D01*
X0318543D02*
X0322543D01*
X0286543Y0079618D02*
Y0086618D01*
X0282043Y0079618D02*
X0286543D01*
X0282043D02*
X0282543Y0081618D01*
X0278543D02*
X0282543D01*
X0278543Y0068118D02*
Y0081618D01*
X0318543Y0086618D02*
Y0116118D01*
Y0077368D02*
Y0081618D01*
X0283543Y0116118D02*
X0313543D01*
X0238622Y0086618D02*
Y0116118D01*
Y0086618D02*
X0246622D01*
X0238622Y0067818D02*
X0273622D01*
X0238622D02*
Y0068118D01*
X0273622Y0067818D02*
X0278622D01*
Y0068118D01*
X0273622Y0116118D02*
X0278622D01*
X0238622D02*
X0243622D01*
X0278622Y0068118D02*
Y0077368D01*
X0238622Y0067818D02*
X0245622Y0042118D01*
X0271622D02*
X0278622Y0067818D01*
X0245622Y0042118D02*
X0271622D01*
X0278622Y0086618D02*
X0286622D01*
Y0079618D02*
Y0086618D01*
X0282122Y0079618D02*
X0286622D01*
X0282122D02*
X0282622Y0081618D01*
X0278622D02*
X0282622D01*
X0246622Y0079618D02*
Y0086618D01*
X0242122Y0079618D02*
X0246622D01*
X0242122D02*
X0242622Y0081618D01*
X0238622D02*
X0242622D01*
X0238622Y0068118D02*
Y0081618D01*
X0278622Y0086618D02*
Y0116118D01*
Y0077368D02*
Y0081618D01*
X0243622Y0116118D02*
X0273622D01*
X0318543Y0086697D02*
Y0116197D01*
Y0086697D02*
X0326543D01*
X0318543Y0067897D02*
X0353543D01*
X0318543D02*
Y0068197D01*
X0353543Y0067897D02*
X0358543D01*
Y0068197D01*
X0353543Y0116197D02*
X0358543D01*
X0318543D02*
X0323543D01*
X0358543Y0068197D02*
Y0077447D01*
X0318543Y0067897D02*
X0325543Y0042197D01*
X0351543D02*
X0358543Y0067897D01*
X0325543Y0042197D02*
X0351543D01*
X0358543Y0086697D02*
X0366543D01*
Y0079697D02*
Y0086697D01*
X0362043Y0079697D02*
X0366543D01*
X0362043D02*
X0362543Y0081697D01*
X0358543D02*
X0362543D01*
X0326543Y0079697D02*
Y0086697D01*
X0322043Y0079697D02*
X0326543D01*
X0322043D02*
X0322543Y0081697D01*
X0318543D02*
X0322543D01*
X0318543Y0068197D02*
Y0081697D01*
X0358543Y0086697D02*
Y0116197D01*
Y0077447D02*
Y0081697D01*
X0323543Y0116197D02*
X0353543D01*
X0398465Y0086697D02*
Y0116197D01*
Y0086697D02*
X0406465D01*
X0398465Y0067897D02*
X0433465D01*
X0398465D02*
Y0068197D01*
X0433465Y0067897D02*
X0438465D01*
Y0068197D01*
X0433465Y0116197D02*
X0438465D01*
X0398465D02*
X0403465D01*
X0438465Y0068197D02*
Y0077447D01*
X0398465Y0067897D02*
X0405465Y0042197D01*
X0431465D02*
X0438465Y0067897D01*
X0405465Y0042197D02*
X0431465D01*
X0438465Y0086697D02*
X0446465D01*
Y0079697D02*
Y0086697D01*
X0441965Y0079697D02*
X0446465D01*
X0441965D02*
X0442465Y0081697D01*
X0438465D02*
X0442465D01*
X0406465Y0079697D02*
Y0086697D01*
X0401965Y0079697D02*
X0406465D01*
X0401965D02*
X0402465Y0081697D01*
X0398465D02*
X0402465D01*
X0398465Y0068197D02*
Y0081697D01*
X0438465Y0086697D02*
Y0116197D01*
Y0077447D02*
Y0081697D01*
X0403465Y0116197D02*
X0433465D01*
X0213172Y0157511D02*
X0211839D01*
X0211173Y0156845D01*
Y0154179D01*
X0211839Y0153513D01*
X0213172D01*
X0213839Y0154179D01*
Y0156845D01*
X0213172Y0157511D01*
X0217838Y0156845D02*
X0217171Y0157511D01*
X0215838D01*
X0215172Y0156845D01*
Y0154179D01*
X0215838Y0153513D01*
X0217171D01*
X0217838Y0154179D01*
X0219170Y0153513D02*
Y0157511D01*
X0221170D01*
X0221836Y0156845D01*
Y0155512D01*
X0221170Y0154845D01*
X0219170D01*
X0223169Y0153513D02*
Y0156178D01*
X0225168D01*
X0225835Y0155512D01*
Y0153513D01*
X0113508Y0181770D02*
X0110843D01*
Y0177772D01*
X0113508D01*
X0110843Y0179771D02*
X0112175D01*
X0114841Y0177772D02*
Y0181770D01*
X0117507Y0177772D01*
Y0181770D01*
X0121506Y0181104D02*
X0120839Y0181770D01*
X0119506D01*
X0118840Y0181104D01*
Y0178438D01*
X0119506Y0177772D01*
X0120839D01*
X0121506Y0178438D01*
X0122839Y0181770D02*
X0124172D01*
X0123505D01*
Y0177772D01*
X0122839D01*
X0124172D01*
X0113508Y0141613D02*
X0110843D01*
Y0137614D01*
X0113508D01*
X0110843Y0139613D02*
X0112175D01*
X0114841Y0137614D02*
Y0141613D01*
X0117507Y0137614D01*
Y0141613D01*
X0121506Y0140946D02*
X0120839Y0141613D01*
X0119506D01*
X0118840Y0140946D01*
Y0138281D01*
X0119506Y0137614D01*
X0120839D01*
X0121506Y0138281D01*
X0122839Y0141613D02*
Y0137614D01*
X0124838D01*
X0125504Y0138281D01*
Y0138947D01*
X0124838Y0139613D01*
X0122839D01*
X0124838D01*
X0125504Y0140280D01*
Y0140946D01*
X0124838Y0141613D01*
X0122839D01*
X0114296Y0101849D02*
X0111630D01*
Y0097850D01*
X0114296D01*
X0111630Y0099850D02*
X0112963D01*
X0115629Y0097850D02*
Y0101849D01*
X0118294Y0097850D01*
Y0101849D01*
X0122293Y0101183D02*
X0121627Y0101849D01*
X0120294D01*
X0119627Y0101183D01*
Y0098517D01*
X0120294Y0097850D01*
X0121627D01*
X0122293Y0098517D01*
X0123626Y0097850D02*
Y0100516D01*
X0124959Y0101849D01*
X0126292Y0100516D01*
Y0097850D01*
Y0099850D01*
X0123626D01*
X0457693Y0153362D02*
Y0157361D01*
X0459692D01*
X0460359Y0156694D01*
Y0155362D01*
X0459692Y0154695D01*
X0457693D01*
X0461692Y0157361D02*
Y0153362D01*
X0463025Y0154695D01*
X0464357Y0153362D01*
Y0157361D01*
X0465690Y0153362D02*
Y0157361D01*
X0467023Y0156028D01*
X0468356Y0157361D01*
Y0153362D01*
X0469689D02*
X0471022D01*
X0470356D01*
Y0157361D01*
X0469689Y0156694D01*
X0473021Y0157361D02*
Y0153362D01*
Y0155362D01*
X0475687D01*
Y0157361D01*
Y0153362D01*
X0415567Y0152969D02*
Y0156967D01*
X0417566D01*
X0418233Y0156301D01*
Y0154968D01*
X0417566Y0154301D01*
X0415567D01*
X0419566Y0156967D02*
Y0152969D01*
X0420898Y0154301D01*
X0422231Y0152969D01*
Y0156967D01*
X0423564Y0152969D02*
Y0156967D01*
X0424897Y0155634D01*
X0426230Y0156967D01*
Y0152969D01*
X0427563D02*
X0428896D01*
X0428230D01*
Y0156967D01*
X0427563Y0156301D01*
X0430895Y0156967D02*
Y0152969D01*
X0433561D01*
X0376590Y0152575D02*
Y0156573D01*
X0378590D01*
X0379256Y0155907D01*
Y0154574D01*
X0378590Y0153908D01*
X0376590D01*
X0380589Y0156573D02*
Y0152575D01*
X0381922Y0153908D01*
X0383255Y0152575D01*
Y0156573D01*
X0384588Y0152575D02*
Y0156573D01*
X0385921Y0155241D01*
X0387254Y0156573D01*
Y0152575D01*
X0391252D02*
X0388587D01*
X0391252Y0155241D01*
Y0155907D01*
X0390586Y0156573D01*
X0389253D01*
X0388587Y0155907D01*
X0392585Y0156573D02*
Y0152575D01*
Y0154574D01*
X0395251D01*
Y0156573D01*
Y0152575D01*
X0336827Y0152969D02*
Y0156967D01*
X0338826D01*
X0339493Y0156301D01*
Y0154968D01*
X0338826Y0154301D01*
X0336827D01*
X0340826Y0156967D02*
Y0152969D01*
X0342158Y0154301D01*
X0343491Y0152969D01*
Y0156967D01*
X0344824Y0152969D02*
Y0156967D01*
X0346157Y0155634D01*
X0347490Y0156967D01*
Y0152969D01*
X0351489D02*
X0348823D01*
X0351489Y0155634D01*
Y0156301D01*
X0350822Y0156967D01*
X0349489D01*
X0348823Y0156301D01*
X0352822Y0156967D02*
Y0152969D01*
X0355487D01*
X0296276D02*
Y0156967D01*
X0298275D01*
X0298941Y0156301D01*
Y0154968D01*
X0298275Y0154301D01*
X0296276D01*
X0300274Y0156967D02*
Y0152969D01*
X0301607Y0154301D01*
X0302940Y0152969D01*
Y0156967D01*
X0304273Y0152969D02*
Y0156967D01*
X0305606Y0155634D01*
X0306939Y0156967D01*
Y0152969D01*
X0308272Y0156301D02*
X0308938Y0156967D01*
X0310271D01*
X0310938Y0156301D01*
Y0155634D01*
X0310271Y0154968D01*
X0309605D01*
X0310271D01*
X0310938Y0154301D01*
Y0153635D01*
X0310271Y0152969D01*
X0308938D01*
X0308272Y0153635D01*
X0312270Y0156967D02*
Y0152969D01*
Y0154968D01*
X0314936D01*
Y0156967D01*
Y0152969D01*
X0256118Y0153362D02*
Y0157361D01*
X0258118D01*
X0258784Y0156694D01*
Y0155362D01*
X0258118Y0154695D01*
X0256118D01*
X0260117Y0157361D02*
Y0153362D01*
X0261450Y0154695D01*
X0262783Y0153362D01*
Y0157361D01*
X0264116Y0153362D02*
Y0157361D01*
X0265448Y0156028D01*
X0266781Y0157361D01*
Y0153362D01*
X0268114Y0156694D02*
X0268781Y0157361D01*
X0270114D01*
X0270780Y0156694D01*
Y0156028D01*
X0270114Y0155362D01*
X0269447D01*
X0270114D01*
X0270780Y0154695D01*
Y0154029D01*
X0270114Y0153362D01*
X0268781D01*
X0268114Y0154029D01*
X0272113Y0157361D02*
Y0153362D01*
X0274779D01*
X0443823Y0156694D02*
X0443157Y0157361D01*
X0441824D01*
X0441157Y0156694D01*
Y0154029D01*
X0441824Y0153362D01*
X0443157D01*
X0443823Y0154029D01*
Y0155362D01*
X0442490D01*
X0445156Y0153362D02*
Y0157361D01*
X0447822Y0153362D01*
Y0157361D01*
X0449155D02*
Y0153362D01*
X0451154D01*
X0451821Y0154029D01*
Y0156694D01*
X0451154Y0157361D01*
X0449155D01*
X0402091Y0155907D02*
X0401425Y0156573D01*
X0400092D01*
X0399425Y0155907D01*
Y0153241D01*
X0400092Y0152575D01*
X0401425D01*
X0402091Y0153241D01*
Y0154574D01*
X0400758D01*
X0403424Y0152575D02*
Y0156573D01*
X0406090Y0152575D01*
Y0156573D01*
X0407423D02*
Y0152575D01*
X0409422D01*
X0410088Y0153241D01*
Y0155907D01*
X0409422Y0156573D01*
X0407423D01*
X0283587Y0156301D02*
X0282921Y0156967D01*
X0281588D01*
X0280921Y0156301D01*
Y0153635D01*
X0281588Y0152969D01*
X0282921D01*
X0283587Y0153635D01*
Y0154968D01*
X0282254D01*
X0284920Y0152969D02*
Y0156967D01*
X0287586Y0152969D01*
Y0156967D01*
X0288919D02*
Y0152969D01*
X0290918D01*
X0291584Y0153635D01*
Y0156301D01*
X0290918Y0156967D01*
X0288919D01*
X0323351Y0156301D02*
X0322684Y0156967D01*
X0321352D01*
X0320685Y0156301D01*
Y0153635D01*
X0321352Y0152969D01*
X0322684D01*
X0323351Y0153635D01*
Y0154968D01*
X0322018D01*
X0324684Y0152969D02*
Y0156967D01*
X0327349Y0152969D01*
Y0156967D01*
X0328682D02*
Y0152969D01*
X0330682D01*
X0331348Y0153635D01*
Y0156301D01*
X0330682Y0156967D01*
X0328682D01*
X0362327Y0155907D02*
X0361661Y0156573D01*
X0360328D01*
X0359661Y0155907D01*
Y0153241D01*
X0360328Y0152575D01*
X0361661D01*
X0362327Y0153241D01*
Y0154574D01*
X0360994D01*
X0363660Y0152575D02*
Y0156573D01*
X0366326Y0152575D01*
Y0156573D01*
X0367659D02*
Y0152575D01*
X0369658D01*
X0370325Y0153241D01*
Y0155907D01*
X0369658Y0156573D01*
X0367659D01*
X0244217Y0156694D02*
X0243550Y0157361D01*
X0242218D01*
X0241551Y0156694D01*
Y0154029D01*
X0242218Y0153362D01*
X0243550D01*
X0244217Y0154029D01*
Y0155362D01*
X0242884D01*
X0245550Y0153362D02*
Y0157361D01*
X0248216Y0153362D01*
Y0157361D01*
X0249549D02*
Y0153362D01*
X0251548D01*
X0252214Y0154029D01*
Y0156694D01*
X0251548Y0157361D01*
X0249549D01*
D11*
X0582165Y0263543D02*
G03*
X0582559Y0263543I0000197J0000000D01*
G01*
D02*
G03*
X0582165Y0263543I-0000197J0000000D01*
G01*
X0338661Y0263386D02*
G03*
X0339055Y0263386I0000197J0000000D01*
G01*
D02*
G03*
X0338661Y0263386I-0000197J0000000D01*
G01*
X0096417Y0263937D02*
G03*
X0096024Y0263937I-0000197J0000000D01*
G01*
D02*
G03*
X0096417Y0263937I0000197J0000000D01*
G01*
X0501921Y0263358D02*
G03*
X0501528Y0263358I-0000197J0000000D01*
G01*
D02*
G03*
X0501921Y0263358I0000197J0000000D01*
G01*
X0258110Y0263583D02*
G03*
X0257716Y0263583I-0000197J0000000D01*
G01*
D02*
G03*
X0258110Y0263583I0000197J0000000D01*
G01*
X0420819Y0263358D02*
G03*
X0420425Y0263358I-0000197J0000000D01*
G01*
D02*
G03*
X0420819Y0263358I0000197J0000000D01*
G01*
X0177008Y0263583D02*
G03*
X0176614Y0263583I-0000197J0000000D01*
G01*
D02*
G03*
X0177008Y0263583I0000197J0000000D01*
G01*
D12*
X0310669Y0200894D02*
G03*
X0310669Y0200894I-0015620J0000000D01*
G01*
X0580581Y0336221D02*
G03*
X0580581Y0336221I-0015620J0000000D01*
G01*
X0580354Y0061130D02*
G03*
X0580354Y0061130I-0015620J0000000D01*
G01*
X0056732D02*
G03*
X0056732Y0061130I-0015620J0000000D01*
G01*
X0056959Y0336221D02*
G03*
X0056959Y0336221I-0015620J0000000D01*
G01*
D13*
X0606004Y0159547D02*
G03*
X0606004Y0159547I-0000394J0000000D01*
G01*
X0578346Y0248583D02*
Y0291102D01*
X0514764Y0248583D02*
X0578346D01*
X0514764D02*
Y0291102D01*
X0578346Y0306850D02*
Y0314331D01*
X0514764D02*
X0578346D01*
X0514764Y0306850D02*
Y0314331D01*
X0334842Y0248425D02*
Y0290945D01*
X0271260Y0248425D02*
X0334842D01*
X0271260D02*
Y0290945D01*
X0334842Y0306693D02*
Y0314173D01*
X0271260D02*
X0334842D01*
X0271260Y0306693D02*
Y0314173D01*
X0028622Y0307244D02*
Y0314724D01*
X0092205D01*
Y0307244D02*
Y0314724D01*
X0028622Y0248976D02*
Y0291496D01*
Y0248976D02*
X0092205D01*
Y0291496D01*
X0434126Y0306665D02*
Y0314146D01*
X0497709D01*
Y0306665D02*
Y0314146D01*
X0434126Y0248398D02*
Y0290917D01*
Y0248398D02*
X0497709D01*
Y0290917D01*
X0190315Y0306890D02*
Y0314370D01*
X0253898D01*
Y0306890D02*
Y0314370D01*
X0190315Y0248622D02*
Y0291142D01*
Y0248622D02*
X0253898D01*
Y0291142D01*
X0353024Y0306665D02*
Y0314146D01*
X0416606D01*
Y0306665D02*
Y0314146D01*
X0353024Y0248398D02*
Y0290917D01*
Y0248398D02*
X0416606D01*
Y0290917D01*
X0109213Y0306890D02*
Y0314370D01*
X0172795D01*
Y0306890D02*
Y0314370D01*
X0109213Y0248622D02*
Y0291142D01*
Y0248622D02*
X0172795D01*
Y0291142D01*
X0587694Y0241237D02*
X0592146D01*
X0587500Y0152482D02*
Y0241237D01*
X0626498Y0152482D02*
X0630512Y0156496D01*
X0625864Y0152482D02*
X0626498D01*
X0630512Y0156496D02*
Y0181102D01*
X0630564Y0192966D02*
Y0236777D01*
X0626378Y0185236D02*
X0630512Y0181102D01*
X0626378Y0188779D02*
X0630444Y0192846D01*
X0595669Y0185256D02*
Y0188779D01*
Y0185256D02*
X0595689Y0185236D01*
X0626378D01*
X0595669Y0188779D02*
X0626378D01*
X0626104Y0241237D02*
X0630564Y0236777D01*
X0592146Y0241237D02*
X0626104D01*
X0619665Y0152482D02*
X0625864D01*
X0587500D02*
X0619665D01*
D14*
X0529559Y0089939D02*
Y0090439D01*
X0528028Y0090539D02*
X0531128D01*
X0528028D02*
X0529559Y0092070D01*
X0528028Y0092039D02*
X0531128D01*
X0533128Y0089839D02*
Y0092839D01*
X0525928Y0089839D02*
Y0092839D01*
X0529559Y0092107D02*
X0531128Y0090539D01*
X0529559Y0092239D02*
Y0092739D01*
X0589476Y0162311D02*
Y0164310D01*
X0590476D01*
X0590809Y0163977D01*
Y0163311D01*
X0590476Y0162978D01*
X0589476D01*
X0591476Y0164310D02*
Y0162311D01*
X0592142Y0162978D01*
X0592809Y0162311D01*
Y0164310D01*
X0593475Y0162311D02*
Y0164310D01*
X0594141Y0163644D01*
X0594808Y0164310D01*
Y0162311D01*
X0595474Y0164310D02*
Y0162311D01*
X0596807D01*
X0597474D02*
X0598140D01*
X0597807D01*
Y0164310D01*
X0597474Y0163977D01*
X0589476Y0166248D02*
Y0168247D01*
X0590476D01*
X0590809Y0167914D01*
Y0167248D01*
X0590476Y0166914D01*
X0589476D01*
X0591476Y0168247D02*
Y0166248D01*
X0592142Y0166914D01*
X0592809Y0166248D01*
Y0168247D01*
X0593475Y0166248D02*
Y0168247D01*
X0594141Y0167581D01*
X0594808Y0168247D01*
Y0166248D01*
X0595474Y0168247D02*
Y0166248D01*
Y0167248D01*
X0596807D01*
Y0168247D01*
Y0166248D01*
X0598807D02*
X0597474D01*
X0598807Y0167581D01*
Y0167914D01*
X0598474Y0168247D01*
X0597807D01*
X0597474Y0167914D01*
X0589476Y0170185D02*
Y0172184D01*
X0590476D01*
X0590809Y0171851D01*
Y0171185D01*
X0590476Y0170852D01*
X0589476D01*
X0591476Y0172184D02*
Y0170185D01*
X0592142Y0170852D01*
X0592809Y0170185D01*
Y0172184D01*
X0593475Y0170185D02*
Y0172184D01*
X0594141Y0171518D01*
X0594808Y0172184D01*
Y0170185D01*
X0595474Y0172184D02*
Y0170185D01*
X0596807D01*
X0598807D02*
X0597474D01*
X0598807Y0171518D01*
Y0171851D01*
X0598474Y0172184D01*
X0597807D01*
X0597474Y0171851D01*
X0589476Y0174122D02*
Y0176121D01*
X0590476D01*
X0590809Y0175788D01*
Y0175122D01*
X0590476Y0174788D01*
X0589476D01*
X0591476Y0176121D02*
Y0174122D01*
X0592142Y0174788D01*
X0592809Y0174122D01*
Y0176121D01*
X0593475Y0174122D02*
Y0176121D01*
X0594141Y0175455D01*
X0594808Y0176121D01*
Y0174122D01*
X0595474Y0176121D02*
Y0174122D01*
Y0175122D01*
X0596807D01*
Y0176121D01*
Y0174122D01*
X0597474Y0175788D02*
X0597807Y0176121D01*
X0598474D01*
X0598807Y0175788D01*
Y0175455D01*
X0598474Y0175122D01*
X0598140D01*
X0598474D01*
X0598807Y0174788D01*
Y0174455D01*
X0598474Y0174122D01*
X0597807D01*
X0597474Y0174455D01*
X0589476Y0178059D02*
Y0180058D01*
X0590476D01*
X0590809Y0179725D01*
Y0179059D01*
X0590476Y0178726D01*
X0589476D01*
X0591476Y0180058D02*
Y0178059D01*
X0592142Y0178726D01*
X0592809Y0178059D01*
Y0180058D01*
X0593475Y0178059D02*
Y0180058D01*
X0594141Y0179392D01*
X0594808Y0180058D01*
Y0178059D01*
X0595474Y0180058D02*
Y0178059D01*
X0596807D01*
X0597474Y0179725D02*
X0597807Y0180058D01*
X0598474D01*
X0598807Y0179725D01*
Y0179392D01*
X0598474Y0179059D01*
X0598140D01*
X0598474D01*
X0598807Y0178726D01*
Y0178392D01*
X0598474Y0178059D01*
X0597807D01*
X0597474Y0178392D01*
X0590809Y0183995D02*
X0589476D01*
Y0181996D01*
X0590809D01*
X0589476Y0182996D02*
X0590143D01*
X0591476Y0181996D02*
Y0183329D01*
X0592475D01*
X0592809Y0182996D01*
Y0181996D01*
X0594808Y0183329D02*
X0593808D01*
X0593475Y0182996D01*
Y0182329D01*
X0593808Y0181996D01*
X0594808D01*
X0595474D02*
Y0183329D01*
X0596141Y0183995D01*
X0596807Y0183329D01*
Y0181996D01*
Y0182996D01*
X0595474D01*
X0590809Y0191869D02*
X0589476D01*
Y0189870D01*
X0590809D01*
X0589476Y0190870D02*
X0590143D01*
X0591476Y0189870D02*
Y0191203D01*
X0592475D01*
X0592809Y0190870D01*
Y0189870D01*
X0594808Y0191203D02*
X0593808D01*
X0593475Y0190870D01*
Y0190203D01*
X0593808Y0189870D01*
X0594808D01*
X0595474Y0191869D02*
Y0189870D01*
X0596474D01*
X0596807Y0190203D01*
Y0190536D01*
X0596474Y0190870D01*
X0595474D01*
X0596474D01*
X0596807Y0191203D01*
Y0191536D01*
X0596474Y0191869D01*
X0595474D01*
X0590809Y0195806D02*
X0589476D01*
Y0193807D01*
X0590809D01*
X0589476Y0194807D02*
X0590143D01*
X0591476Y0193807D02*
Y0195140D01*
X0592475D01*
X0592809Y0194807D01*
Y0193807D01*
X0594808Y0195140D02*
X0593808D01*
X0593475Y0194807D01*
Y0194140D01*
X0593808Y0193807D01*
X0594808D01*
X0595474Y0195806D02*
X0596141D01*
X0595808D01*
Y0193807D01*
X0595474D01*
X0596141D01*
X0589476Y0200137D02*
Y0198804D01*
X0590143Y0198138D01*
X0590809Y0198804D01*
Y0200137D01*
X0592809D02*
Y0198138D01*
X0591809D01*
X0591476Y0198471D01*
Y0199137D01*
X0591809Y0199471D01*
X0592809D01*
X0594808D02*
X0593808D01*
X0593475Y0199137D01*
Y0198471D01*
X0593808Y0198138D01*
X0594808D01*
X0589476Y0204074D02*
Y0202741D01*
X0590143Y0202075D01*
X0590809Y0202741D01*
Y0204074D01*
X0591476Y0202075D02*
X0592475D01*
X0592809Y0202408D01*
X0592475Y0202741D01*
X0591809D01*
X0591476Y0203075D01*
X0591809Y0203408D01*
X0592809D01*
X0593475Y0202075D02*
Y0203408D01*
X0594475D01*
X0594808Y0203075D01*
Y0202075D01*
X0595474D02*
X0596474D01*
X0596807Y0202408D01*
X0596474Y0202741D01*
X0595808D01*
X0595474Y0203075D01*
X0595808Y0203408D01*
X0596807D01*
X0597474Y0202075D02*
X0598140D01*
X0597807D01*
Y0204074D01*
X0597474Y0203741D01*
X0589476Y0208011D02*
Y0206678D01*
X0590143Y0206012D01*
X0590809Y0206678D01*
Y0208011D01*
X0591476Y0206012D02*
X0592475D01*
X0592809Y0206345D01*
X0592475Y0206678D01*
X0591809D01*
X0591476Y0207012D01*
X0591809Y0207345D01*
X0592809D01*
X0593475Y0206012D02*
Y0207345D01*
X0594475D01*
X0594808Y0207012D01*
Y0206012D01*
X0595474D02*
X0596474D01*
X0596807Y0206345D01*
X0596474Y0206678D01*
X0595808D01*
X0595474Y0207012D01*
X0595808Y0207345D01*
X0596807D01*
X0598807Y0206012D02*
X0597474D01*
X0598807Y0207345D01*
Y0207678D01*
X0598474Y0208011D01*
X0597807D01*
X0597474Y0207678D01*
X0589476Y0211948D02*
Y0210615D01*
X0590143Y0209949D01*
X0590809Y0210615D01*
Y0211948D01*
X0591476Y0209949D02*
X0592475D01*
X0592809Y0210282D01*
X0592475Y0210615D01*
X0591809D01*
X0591476Y0210948D01*
X0591809Y0211282D01*
X0592809D01*
X0593475Y0209949D02*
Y0211282D01*
X0594475D01*
X0594808Y0210948D01*
Y0209949D01*
X0595474D02*
X0596474D01*
X0596807Y0210282D01*
X0596474Y0210615D01*
X0595808D01*
X0595474Y0210948D01*
X0595808Y0211282D01*
X0596807D01*
X0597474Y0211615D02*
X0597807Y0211948D01*
X0598474D01*
X0598807Y0211615D01*
Y0211282D01*
X0598474Y0210948D01*
X0598140D01*
X0598474D01*
X0598807Y0210615D01*
Y0210282D01*
X0598474Y0209949D01*
X0597807D01*
X0597474Y0210282D01*
X0589476Y0220216D02*
X0590143D01*
X0589810D01*
Y0218216D01*
X0589476D01*
X0590143D01*
X0591143D02*
X0592142D01*
X0592475Y0218550D01*
X0592142Y0218883D01*
X0591476D01*
X0591143Y0219216D01*
X0591476Y0219549D01*
X0592475D01*
X0593142Y0218216D02*
Y0219549D01*
X0594141D01*
X0594475Y0219216D01*
Y0218216D01*
X0595141D02*
X0596141D01*
X0596474Y0218550D01*
X0596141Y0218883D01*
X0595474D01*
X0595141Y0219216D01*
X0595474Y0219549D01*
X0596474D01*
X0597141Y0218216D02*
X0597807D01*
X0597474D01*
Y0220216D01*
X0597141Y0219883D01*
X0589476Y0223759D02*
X0590143D01*
X0589810D01*
Y0221760D01*
X0589476D01*
X0590143D01*
X0591143D02*
X0592142D01*
X0592475Y0222093D01*
X0592142Y0222426D01*
X0591476D01*
X0591143Y0222760D01*
X0591476Y0223093D01*
X0592475D01*
X0593142Y0221760D02*
Y0223093D01*
X0594141D01*
X0594475Y0222760D01*
Y0221760D01*
X0595141D02*
X0596141D01*
X0596474Y0222093D01*
X0596141Y0222426D01*
X0595474D01*
X0595141Y0222760D01*
X0595474Y0223093D01*
X0596474D01*
X0598474Y0221760D02*
X0597141D01*
X0598474Y0223093D01*
Y0223426D01*
X0598140Y0223759D01*
X0597474D01*
X0597141Y0223426D01*
X0589476Y0227696D02*
X0590143D01*
X0589810D01*
Y0225697D01*
X0589476D01*
X0590143D01*
X0591143D02*
X0592142D01*
X0592475Y0226030D01*
X0592142Y0226363D01*
X0591476D01*
X0591143Y0226696D01*
X0591476Y0227030D01*
X0592475D01*
X0593142Y0225697D02*
Y0227030D01*
X0594141D01*
X0594475Y0226696D01*
Y0225697D01*
X0595141D02*
X0596141D01*
X0596474Y0226030D01*
X0596141Y0226363D01*
X0595474D01*
X0595141Y0226696D01*
X0595474Y0227030D01*
X0596474D01*
X0597141Y0227363D02*
X0597474Y0227696D01*
X0598140D01*
X0598474Y0227363D01*
Y0227030D01*
X0598140Y0226696D01*
X0597807D01*
X0598140D01*
X0598474Y0226363D01*
Y0226030D01*
X0598140Y0225697D01*
X0597474D01*
X0597141Y0226030D01*
X0589476Y0158374D02*
Y0160373D01*
X0590476D01*
X0590809Y0160040D01*
Y0159374D01*
X0590476Y0159040D01*
X0589476D01*
X0591476Y0160373D02*
Y0158374D01*
X0592142Y0159040D01*
X0592809Y0158374D01*
Y0160373D01*
X0593475Y0158374D02*
Y0160373D01*
X0594141Y0159707D01*
X0594808Y0160373D01*
Y0158374D01*
X0595474Y0160373D02*
Y0158374D01*
Y0159374D01*
X0596807D01*
Y0160373D01*
Y0158374D01*
X0597474D02*
X0598140D01*
X0597807D01*
Y0160373D01*
X0597474Y0160040D01*
D15*
X0134841Y0328609D02*
Y0326610D01*
X0135840Y0325610D01*
X0136840Y0326610D01*
Y0328609D01*
X0137840Y0325610D02*
X0139339D01*
X0139839Y0326110D01*
X0139339Y0326610D01*
X0138340D01*
X0137840Y0327110D01*
X0138340Y0327609D01*
X0139839D01*
X0140839Y0325610D02*
Y0327609D01*
X0142338D01*
X0142838Y0327110D01*
Y0325610D01*
X0143838D02*
X0145337D01*
X0145837Y0326110D01*
X0145337Y0326610D01*
X0144338D01*
X0143838Y0327110D01*
X0144338Y0327609D01*
X0145837D01*
X0146837Y0325610D02*
X0147836D01*
X0147337D01*
Y0328609D01*
X0146837Y0328109D01*
X0125844Y0320091D02*
Y0323090D01*
X0126843Y0322091D01*
X0127843Y0323090D01*
Y0320091D01*
X0130342D02*
X0129342D01*
X0128843Y0320591D01*
Y0321591D01*
X0129342Y0322091D01*
X0130342D01*
X0130842Y0321591D01*
Y0321091D01*
X0128843D01*
X0132342Y0322091D02*
X0133341D01*
X0133841Y0321591D01*
Y0320091D01*
X0132342D01*
X0131842Y0320591D01*
X0132342Y0321091D01*
X0133841D01*
X0134841Y0320091D02*
X0136340D01*
X0136840Y0320591D01*
X0136340Y0321091D01*
X0135340D01*
X0134841Y0321591D01*
X0135340Y0322091D01*
X0136840D01*
X0137840D02*
Y0320591D01*
X0138340Y0320091D01*
X0139839D01*
Y0322091D01*
X0140839D02*
Y0320091D01*
Y0321091D01*
X0141339Y0321591D01*
X0141838Y0322091D01*
X0142338D01*
X0145337Y0320091D02*
X0144338D01*
X0143838Y0320591D01*
Y0321591D01*
X0144338Y0322091D01*
X0145337D01*
X0145837Y0321591D01*
Y0321091D01*
X0143838D01*
X0146837Y0320091D02*
Y0322091D01*
X0147337D01*
X0147836Y0321591D01*
Y0320091D01*
Y0321591D01*
X0148336Y0322091D01*
X0148836Y0321591D01*
Y0320091D01*
X0151335D02*
X0150336D01*
X0149836Y0320591D01*
Y0321591D01*
X0150336Y0322091D01*
X0151335D01*
X0151835Y0321591D01*
Y0321091D01*
X0149836D01*
X0152835Y0320091D02*
Y0322091D01*
X0154334D01*
X0154834Y0321591D01*
Y0320091D01*
X0156334Y0322590D02*
Y0322091D01*
X0155834D01*
X0156834D01*
X0156334D01*
Y0320591D01*
X0156834Y0320091D01*
X0293790Y0328609D02*
Y0326610D01*
X0294789Y0325610D01*
X0295789Y0326610D01*
Y0328609D01*
X0296789Y0325610D02*
X0298288D01*
X0298788Y0326110D01*
X0298288Y0326610D01*
X0297288D01*
X0296789Y0327110D01*
X0297288Y0327609D01*
X0298788D01*
X0299788Y0325610D02*
Y0327609D01*
X0301287D01*
X0301787Y0327110D01*
Y0325610D01*
X0302787D02*
X0304286D01*
X0304786Y0326110D01*
X0304286Y0326610D01*
X0303287D01*
X0302787Y0327110D01*
X0303287Y0327609D01*
X0304786D01*
X0305786Y0328109D02*
X0306286Y0328609D01*
X0307285D01*
X0307785Y0328109D01*
Y0327609D01*
X0307285Y0327110D01*
X0306785D01*
X0307285D01*
X0307785Y0326610D01*
Y0326110D01*
X0307285Y0325610D01*
X0306286D01*
X0305786Y0326110D01*
X0285292Y0320091D02*
Y0323090D01*
X0286292Y0322091D01*
X0287292Y0323090D01*
Y0320091D01*
X0289791D02*
X0288791D01*
X0288291Y0320591D01*
Y0321591D01*
X0288791Y0322091D01*
X0289791D01*
X0290291Y0321591D01*
Y0321091D01*
X0288291D01*
X0291790Y0322091D02*
X0292790D01*
X0293290Y0321591D01*
Y0320091D01*
X0291790D01*
X0291290Y0320591D01*
X0291790Y0321091D01*
X0293290D01*
X0294289Y0320091D02*
X0295789D01*
X0296289Y0320591D01*
X0295789Y0321091D01*
X0294789D01*
X0294289Y0321591D01*
X0294789Y0322091D01*
X0296289D01*
X0297288D02*
Y0320591D01*
X0297788Y0320091D01*
X0299288D01*
Y0322091D01*
X0300288D02*
Y0320091D01*
Y0321091D01*
X0300787Y0321591D01*
X0301287Y0322091D01*
X0301787D01*
X0304786Y0320091D02*
X0303786D01*
X0303287Y0320591D01*
Y0321591D01*
X0303786Y0322091D01*
X0304786D01*
X0305286Y0321591D01*
Y0321091D01*
X0303287D01*
X0306286Y0320091D02*
Y0322091D01*
X0306785D01*
X0307285Y0321591D01*
Y0320091D01*
Y0321591D01*
X0307785Y0322091D01*
X0308285Y0321591D01*
Y0320091D01*
X0310784D02*
X0309785D01*
X0309285Y0320591D01*
Y0321591D01*
X0309785Y0322091D01*
X0310784D01*
X0311284Y0321591D01*
Y0321091D01*
X0309285D01*
X0312284Y0320091D02*
Y0322091D01*
X0313783D01*
X0314283Y0321591D01*
Y0320091D01*
X0315782Y0322590D02*
Y0322091D01*
X0315283D01*
X0316282D01*
X0315782D01*
Y0320591D01*
X0316282Y0320091D01*
X0528630Y0230865D02*
X0528130Y0231365D01*
X0527131D01*
X0526631Y0230865D01*
Y0230365D01*
X0527131Y0229866D01*
X0528130D01*
X0528630Y0229366D01*
Y0228866D01*
X0528130Y0228366D01*
X0527131D01*
X0526631Y0228866D01*
X0529630Y0231365D02*
Y0228366D01*
Y0229866D01*
X0530130Y0230365D01*
X0531130D01*
X0531629Y0229866D01*
Y0228366D01*
X0532629D02*
X0533629D01*
X0533129D01*
Y0230365D01*
X0532629D01*
X0536628Y0228366D02*
X0535628D01*
X0535128Y0228866D01*
Y0229866D01*
X0535628Y0230365D01*
X0536628D01*
X0537128Y0229866D01*
Y0229366D01*
X0535128D01*
X0538127Y0228366D02*
X0539127D01*
X0538627D01*
Y0231365D01*
X0538127D01*
X0542626D02*
Y0228366D01*
X0541126D01*
X0540626Y0228866D01*
Y0229866D01*
X0541126Y0230365D01*
X0542626D01*
X0543625Y0229866D02*
X0545625D01*
X0546625Y0228366D02*
Y0230365D01*
X0547624Y0231365D01*
X0548624Y0230365D01*
Y0228366D01*
Y0229866D01*
X0546625D01*
X0551623Y0230865D02*
X0551123Y0231365D01*
X0550123D01*
X0549624Y0230865D01*
Y0228866D01*
X0550123Y0228366D01*
X0551123D01*
X0551623Y0228866D01*
Y0229866D01*
X0550623D01*
X0552623Y0228366D02*
Y0231365D01*
X0554622Y0228366D01*
Y0231365D01*
X0555622D02*
Y0228366D01*
X0557121D01*
X0557621Y0228866D01*
Y0230865D01*
X0557121Y0231365D01*
X0555622D01*
X0530130Y0224847D02*
X0528630D01*
X0528130Y0224347D01*
Y0223347D01*
X0528630Y0222847D01*
X0530130D01*
X0531629D02*
X0532629D01*
X0533129Y0223347D01*
Y0224347D01*
X0532629Y0224847D01*
X0531629D01*
X0531130Y0224347D01*
Y0223347D01*
X0531629Y0222847D01*
X0534129D02*
Y0224847D01*
X0535628D01*
X0536128Y0224347D01*
Y0222847D01*
X0537128D02*
Y0224847D01*
X0538627D01*
X0539127Y0224347D01*
Y0222847D01*
X0541626D02*
X0540626D01*
X0540127Y0223347D01*
Y0224347D01*
X0540626Y0224847D01*
X0541626D01*
X0542126Y0224347D01*
Y0223847D01*
X0540127D01*
X0545125Y0224847D02*
X0543625D01*
X0543126Y0224347D01*
Y0223347D01*
X0543625Y0222847D01*
X0545125D01*
X0546625Y0225346D02*
Y0224847D01*
X0546125D01*
X0547124D01*
X0546625D01*
Y0223347D01*
X0547124Y0222847D01*
X0548624D02*
X0549624D01*
X0549124D01*
Y0224847D01*
X0548624D01*
X0551623Y0222847D02*
X0552623D01*
X0553122Y0223347D01*
Y0224347D01*
X0552623Y0224847D01*
X0551623D01*
X0551123Y0224347D01*
Y0223347D01*
X0551623Y0222847D01*
X0554122D02*
Y0224847D01*
X0555622D01*
X0556121Y0224347D01*
Y0222847D01*
X0521599Y0329790D02*
X0522598D01*
X0522098D01*
Y0326791D01*
X0521599D01*
X0522598D01*
X0524098D02*
X0525597D01*
X0526097Y0327291D01*
X0525597Y0327791D01*
X0524598D01*
X0524098Y0328291D01*
X0524598Y0328791D01*
X0526097D01*
X0527097Y0326791D02*
Y0328791D01*
X0528596D01*
X0529096Y0328291D01*
Y0326791D01*
X0530096D02*
X0531595D01*
X0532095Y0327291D01*
X0531595Y0327791D01*
X0530596D01*
X0530096Y0328291D01*
X0530596Y0328791D01*
X0532095D01*
X0533095Y0329291D02*
X0533595Y0329790D01*
X0534594D01*
X0535094Y0329291D01*
Y0328791D01*
X0534594Y0328291D01*
X0534095D01*
X0534594D01*
X0535094Y0327791D01*
Y0327291D01*
X0534594Y0326791D01*
X0533595D01*
X0533095Y0327291D01*
X0512851Y0321272D02*
Y0324271D01*
X0513851Y0323272D01*
X0514851Y0324271D01*
Y0321272D01*
X0517350D02*
X0516350D01*
X0515850Y0321772D01*
Y0322772D01*
X0516350Y0323272D01*
X0517350D01*
X0517850Y0322772D01*
Y0322272D01*
X0515850D01*
X0519349Y0323272D02*
X0520349D01*
X0520849Y0322772D01*
Y0321272D01*
X0519349D01*
X0518850Y0321772D01*
X0519349Y0322272D01*
X0520849D01*
X0521849Y0321272D02*
X0523348D01*
X0523848Y0321772D01*
X0523348Y0322272D01*
X0522348D01*
X0521849Y0322772D01*
X0522348Y0323272D01*
X0523848D01*
X0524848D02*
Y0321772D01*
X0525347Y0321272D01*
X0526847D01*
Y0323272D01*
X0527847D02*
Y0321272D01*
Y0322272D01*
X0528346Y0322772D01*
X0528846Y0323272D01*
X0529346D01*
X0532345Y0321272D02*
X0531346D01*
X0530846Y0321772D01*
Y0322772D01*
X0531346Y0323272D01*
X0532345D01*
X0532845Y0322772D01*
Y0322272D01*
X0530846D01*
X0533845Y0321272D02*
Y0323272D01*
X0534344D01*
X0534844Y0322772D01*
Y0321272D01*
Y0322772D01*
X0535344Y0323272D01*
X0535844Y0322772D01*
Y0321272D01*
X0538343D02*
X0537344D01*
X0536844Y0321772D01*
Y0322772D01*
X0537344Y0323272D01*
X0538343D01*
X0538843Y0322772D01*
Y0322272D01*
X0536844D01*
X0539843Y0321272D02*
Y0323272D01*
X0541342D01*
X0541842Y0322772D01*
Y0321272D01*
X0543342Y0323772D02*
Y0323272D01*
X0542842D01*
X0543841D01*
X0543342D01*
Y0321772D01*
X0543841Y0321272D01*
X0211900Y0329003D02*
Y0327004D01*
X0212900Y0326004D01*
X0213899Y0327004D01*
Y0329003D01*
X0214899Y0326004D02*
X0216399D01*
X0216898Y0326504D01*
X0216399Y0327004D01*
X0215399D01*
X0214899Y0327503D01*
X0215399Y0328003D01*
X0216898D01*
X0217898Y0326004D02*
Y0328003D01*
X0219397D01*
X0219897Y0327503D01*
Y0326004D01*
X0220897D02*
X0222396D01*
X0222896Y0326504D01*
X0222396Y0327004D01*
X0221397D01*
X0220897Y0327503D01*
X0221397Y0328003D01*
X0222896D01*
X0225895Y0326004D02*
X0223896D01*
X0225895Y0328003D01*
Y0328503D01*
X0225396Y0329003D01*
X0224396D01*
X0223896Y0328503D01*
X0203403Y0320485D02*
Y0323484D01*
X0204402Y0322484D01*
X0205402Y0323484D01*
Y0320485D01*
X0207901D02*
X0206902D01*
X0206402Y0320985D01*
Y0321985D01*
X0206902Y0322484D01*
X0207901D01*
X0208401Y0321985D01*
Y0321485D01*
X0206402D01*
X0209901Y0322484D02*
X0210900D01*
X0211400Y0321985D01*
Y0320485D01*
X0209901D01*
X0209401Y0320985D01*
X0209901Y0321485D01*
X0211400D01*
X0212400Y0320485D02*
X0213899D01*
X0214399Y0320985D01*
X0213899Y0321485D01*
X0212900D01*
X0212400Y0321985D01*
X0212900Y0322484D01*
X0214399D01*
X0215399D02*
Y0320985D01*
X0215899Y0320485D01*
X0217398D01*
Y0322484D01*
X0218398D02*
Y0320485D01*
Y0321485D01*
X0218898Y0321985D01*
X0219397Y0322484D01*
X0219897D01*
X0222896Y0320485D02*
X0221897D01*
X0221397Y0320985D01*
Y0321985D01*
X0221897Y0322484D01*
X0222896D01*
X0223396Y0321985D01*
Y0321485D01*
X0221397D01*
X0224396Y0320485D02*
Y0322484D01*
X0224896D01*
X0225395Y0321985D01*
Y0320485D01*
Y0321985D01*
X0225895Y0322484D01*
X0226395Y0321985D01*
Y0320485D01*
X0228894D02*
X0227895D01*
X0227395Y0320985D01*
Y0321985D01*
X0227895Y0322484D01*
X0228894D01*
X0229394Y0321985D01*
Y0321485D01*
X0227395D01*
X0230394Y0320485D02*
Y0322484D01*
X0231893D01*
X0232393Y0321985D01*
Y0320485D01*
X0233893Y0322984D02*
Y0322484D01*
X0233393D01*
X0234393D01*
X0233893D01*
Y0320985D01*
X0234393Y0320485D01*
X0453488Y0329397D02*
X0454488D01*
X0453988D01*
Y0326398D01*
X0453488D01*
X0454488D01*
X0455988D02*
X0457487D01*
X0457987Y0326897D01*
X0457487Y0327397D01*
X0456487D01*
X0455988Y0327897D01*
X0456487Y0328397D01*
X0457987D01*
X0458987Y0326398D02*
Y0328397D01*
X0460486D01*
X0460986Y0327897D01*
Y0326398D01*
X0461986D02*
X0463485D01*
X0463985Y0326897D01*
X0463485Y0327397D01*
X0462486D01*
X0461986Y0327897D01*
X0462486Y0328397D01*
X0463985D01*
X0466984Y0326398D02*
X0464985D01*
X0466984Y0328397D01*
Y0328897D01*
X0466484Y0329397D01*
X0465485D01*
X0464985Y0328897D01*
X0444741Y0320879D02*
Y0323878D01*
X0445741Y0322878D01*
X0446741Y0323878D01*
Y0320879D01*
X0449240D02*
X0448240D01*
X0447740Y0321379D01*
Y0322378D01*
X0448240Y0322878D01*
X0449240D01*
X0449740Y0322378D01*
Y0321878D01*
X0447740D01*
X0451239Y0322878D02*
X0452239D01*
X0452739Y0322378D01*
Y0320879D01*
X0451239D01*
X0450739Y0321379D01*
X0451239Y0321878D01*
X0452739D01*
X0453738Y0320879D02*
X0455238D01*
X0455738Y0321379D01*
X0455238Y0321878D01*
X0454238D01*
X0453738Y0322378D01*
X0454238Y0322878D01*
X0455738D01*
X0456737D02*
Y0321379D01*
X0457237Y0320879D01*
X0458737D01*
Y0322878D01*
X0459736D02*
Y0320879D01*
Y0321878D01*
X0460236Y0322378D01*
X0460736Y0322878D01*
X0461236D01*
X0464235Y0320879D02*
X0463235D01*
X0462735Y0321379D01*
Y0322378D01*
X0463235Y0322878D01*
X0464235D01*
X0464735Y0322378D01*
Y0321878D01*
X0462735D01*
X0465734Y0320879D02*
Y0322878D01*
X0466234D01*
X0466734Y0322378D01*
Y0320879D01*
Y0322378D01*
X0467234Y0322878D01*
X0467734Y0322378D01*
Y0320879D01*
X0470233D02*
X0469233D01*
X0468734Y0321379D01*
Y0322378D01*
X0469233Y0322878D01*
X0470233D01*
X0470733Y0322378D01*
Y0321878D01*
X0468734D01*
X0471733Y0320879D02*
Y0322878D01*
X0473232D01*
X0473732Y0322378D01*
Y0320879D01*
X0475231Y0323378D02*
Y0322878D01*
X0474731D01*
X0475731D01*
X0475231D01*
Y0321379D01*
X0475731Y0320879D01*
X0070411Y0328609D02*
Y0326610D01*
X0071410Y0325610D01*
X0072410Y0326610D01*
Y0328609D01*
X0075409D02*
Y0325610D01*
X0073910D01*
X0073410Y0326110D01*
Y0327110D01*
X0073910Y0327609D01*
X0075409D01*
X0078408D02*
X0076909D01*
X0076409Y0327110D01*
Y0326110D01*
X0076909Y0325610D01*
X0078408D01*
X0058915Y0320091D02*
Y0323090D01*
X0059914Y0322091D01*
X0060914Y0323090D01*
Y0320091D01*
X0063413D02*
X0062413D01*
X0061914Y0320591D01*
Y0321591D01*
X0062413Y0322091D01*
X0063413D01*
X0063913Y0321591D01*
Y0321091D01*
X0061914D01*
X0065412Y0322091D02*
X0066412D01*
X0066912Y0321591D01*
Y0320091D01*
X0065412D01*
X0064912Y0320591D01*
X0065412Y0321091D01*
X0066912D01*
X0067911Y0320091D02*
X0069411D01*
X0069911Y0320591D01*
X0069411Y0321091D01*
X0068411D01*
X0067911Y0321591D01*
X0068411Y0322091D01*
X0069911D01*
X0070911D02*
Y0320591D01*
X0071410Y0320091D01*
X0072910D01*
Y0322091D01*
X0073910D02*
Y0320091D01*
Y0321091D01*
X0074410Y0321591D01*
X0074909Y0322091D01*
X0075409D01*
X0078408Y0320091D02*
X0077408D01*
X0076909Y0320591D01*
Y0321591D01*
X0077408Y0322091D01*
X0078408D01*
X0078908Y0321591D01*
Y0321091D01*
X0076909D01*
X0079908Y0320091D02*
Y0322091D01*
X0080408D01*
X0080907Y0321591D01*
Y0320091D01*
Y0321591D01*
X0081407Y0322091D01*
X0081907Y0321591D01*
Y0320091D01*
X0084406D02*
X0083407D01*
X0082907Y0320591D01*
Y0321591D01*
X0083407Y0322091D01*
X0084406D01*
X0084906Y0321591D01*
Y0321091D01*
X0082907D01*
X0085906Y0320091D02*
Y0322091D01*
X0087405D01*
X0087905Y0321591D01*
Y0320091D01*
X0089405Y0322590D02*
Y0322091D01*
X0088905D01*
X0089904D01*
X0089405D01*
Y0320591D01*
X0089904Y0320091D01*
X0374461Y0329790D02*
X0375460D01*
X0374960D01*
Y0326791D01*
X0374461D01*
X0375460D01*
X0376960D02*
X0378459D01*
X0378959Y0327291D01*
X0378459Y0327791D01*
X0377460D01*
X0376960Y0328291D01*
X0377460Y0328791D01*
X0378959D01*
X0379959Y0326791D02*
Y0328791D01*
X0381458D01*
X0381958Y0328291D01*
Y0326791D01*
X0382958D02*
X0384457D01*
X0384957Y0327291D01*
X0384457Y0327791D01*
X0383458D01*
X0382958Y0328291D01*
X0383458Y0328791D01*
X0384957D01*
X0385957Y0326791D02*
X0386957D01*
X0386457D01*
Y0329790D01*
X0385957Y0329291D01*
X0365214Y0321272D02*
Y0324271D01*
X0366213Y0323272D01*
X0367213Y0324271D01*
Y0321272D01*
X0369712D02*
X0368712D01*
X0368213Y0321772D01*
Y0322772D01*
X0368712Y0323272D01*
X0369712D01*
X0370212Y0322772D01*
Y0322272D01*
X0368213D01*
X0371712Y0323272D02*
X0372711D01*
X0373211Y0322772D01*
Y0321272D01*
X0371712D01*
X0371212Y0321772D01*
X0371712Y0322272D01*
X0373211D01*
X0374211Y0321272D02*
X0375710D01*
X0376210Y0321772D01*
X0375710Y0322272D01*
X0374711D01*
X0374211Y0322772D01*
X0374711Y0323272D01*
X0376210D01*
X0377210D02*
Y0321772D01*
X0377710Y0321272D01*
X0379209D01*
Y0323272D01*
X0380209D02*
Y0321272D01*
Y0322272D01*
X0380709Y0322772D01*
X0381208Y0323272D01*
X0381708D01*
X0384707Y0321272D02*
X0383708D01*
X0383208Y0321772D01*
Y0322772D01*
X0383708Y0323272D01*
X0384707D01*
X0385207Y0322772D01*
Y0322272D01*
X0383208D01*
X0386207Y0321272D02*
Y0323272D01*
X0386707D01*
X0387207Y0322772D01*
Y0321272D01*
Y0322772D01*
X0387706Y0323272D01*
X0388206Y0322772D01*
Y0321272D01*
X0390705D02*
X0389706D01*
X0389206Y0321772D01*
Y0322772D01*
X0389706Y0323272D01*
X0390705D01*
X0391205Y0322772D01*
Y0322272D01*
X0389206D01*
X0392205Y0321272D02*
Y0323272D01*
X0393705D01*
X0394204Y0322772D01*
Y0321272D01*
X0395704Y0323772D02*
Y0323272D01*
X0395204D01*
X0396204D01*
X0395704D01*
Y0321772D01*
X0396204Y0321272D01*
X0160800Y0123600D02*
Y0126599D01*
X0162300D01*
X0162799Y0126099D01*
Y0125100D01*
X0162300Y0124600D01*
X0160800D01*
X0161800D02*
X0162799Y0123600D01*
X0163799D02*
X0164799D01*
X0164299D01*
Y0126599D01*
X0163799Y0126099D01*
X0166298Y0123100D02*
X0168298D01*
X0170797Y0123600D02*
Y0126599D01*
X0169297Y0125100D01*
X0171297D01*
X0197300Y0139800D02*
Y0142799D01*
X0198800D01*
X0199299Y0142299D01*
Y0141299D01*
X0198800Y0140800D01*
X0197300D01*
X0198300D02*
X0199299Y0139800D01*
X0200299Y0142299D02*
X0200799Y0142799D01*
X0201799D01*
X0202298Y0142299D01*
Y0141799D01*
X0201799Y0141299D01*
X0201299D01*
X0201799D01*
X0202298Y0140800D01*
Y0140300D01*
X0201799Y0139800D01*
X0200799D01*
X0200299Y0140300D01*
X0203298Y0139300D02*
X0205297D01*
X0207797Y0139800D02*
Y0142799D01*
X0206297Y0141299D01*
X0208296D01*
X0538100Y0093799D02*
Y0090800D01*
X0539600D01*
X0540099Y0091300D01*
Y0093299D01*
X0539600Y0093799D01*
X0538100D01*
X0541099Y0090300D02*
X0543098D01*
X0546097Y0093799D02*
X0545098D01*
X0545598D01*
Y0091300D01*
X0545098Y0090800D01*
X0544598D01*
X0544098Y0091300D01*
X0547097Y0090800D02*
X0548097D01*
X0547597D01*
Y0093799D01*
X0547097Y0093299D01*
X0254800Y0123600D02*
Y0126599D01*
X0256299D01*
X0256799Y0126099D01*
Y0125100D01*
X0256299Y0124600D01*
X0254800D01*
X0255800D02*
X0256799Y0123600D01*
X0259798D02*
X0257799D01*
X0259798Y0125599D01*
Y0126099D01*
X0259298Y0126599D01*
X0258299D01*
X0257799Y0126099D01*
X0260798Y0123100D02*
X0262797D01*
X0265796Y0126599D02*
X0264797Y0126099D01*
X0263797Y0125100D01*
Y0124100D01*
X0264297Y0123600D01*
X0265297D01*
X0265796Y0124100D01*
Y0124600D01*
X0265297Y0125100D01*
X0263797D01*
X0528600Y0235400D02*
Y0238399D01*
X0530099D01*
X0530599Y0237899D01*
Y0236899D01*
X0530099Y0236400D01*
X0528600D01*
X0529600D02*
X0530599Y0235400D01*
X0531599Y0234900D02*
X0533598D01*
X0536597Y0237899D02*
X0536098Y0238399D01*
X0535098D01*
X0534598Y0237899D01*
Y0237399D01*
X0535098Y0236899D01*
X0536098D01*
X0536597Y0236400D01*
Y0235900D01*
X0536098Y0235400D01*
X0535098D01*
X0534598Y0235900D01*
X0537597Y0238399D02*
Y0235400D01*
Y0236899D01*
X0538097Y0237399D01*
X0539097D01*
X0539596Y0236899D01*
Y0235400D01*
X0540596D02*
X0541596D01*
X0541096D01*
Y0237399D01*
X0540596D01*
X0544595Y0235400D02*
X0543595D01*
X0543095Y0235900D01*
Y0236899D01*
X0543595Y0237399D01*
X0544595D01*
X0545095Y0236899D01*
Y0236400D01*
X0543095D01*
X0546094Y0235400D02*
X0547094D01*
X0546594D01*
Y0238399D01*
X0546094D01*
X0550593D02*
Y0235400D01*
X0549093D01*
X0548594Y0235900D01*
Y0236899D01*
X0549093Y0237399D01*
X0550593D01*
X0102128Y0189055D02*
X0099129D01*
Y0190555D01*
X0099629Y0191054D01*
X0100629D01*
X0101129Y0190555D01*
Y0189055D01*
Y0190055D02*
X0102128Y0191054D01*
Y0192054D02*
Y0193054D01*
Y0192554D01*
X0099129D01*
X0099629Y0192054D01*
X0102628Y0194553D02*
Y0196553D01*
X0099629Y0197552D02*
X0099129Y0198052D01*
Y0199052D01*
X0099629Y0199552D01*
X0100129D01*
X0100629Y0199052D01*
Y0198552D01*
Y0199052D01*
X0101129Y0199552D01*
X0101628D01*
X0102128Y0199052D01*
Y0198052D01*
X0101628Y0197552D01*
X0102128Y0148455D02*
X0099129D01*
Y0149955D01*
X0099629Y0150454D01*
X0100629D01*
X0101129Y0149955D01*
Y0148455D01*
Y0149455D02*
X0102128Y0150454D01*
Y0151454D02*
Y0152454D01*
Y0151954D01*
X0099129D01*
X0099629Y0151454D01*
X0102628Y0153953D02*
Y0155953D01*
X0102128Y0158952D02*
Y0156952D01*
X0100129Y0158952D01*
X0099629D01*
X0099129Y0158452D01*
Y0157452D01*
X0099629Y0156952D01*
X0102128Y0109255D02*
X0099129D01*
Y0110755D01*
X0099629Y0111255D01*
X0100629D01*
X0101129Y0110755D01*
Y0109255D01*
Y0110255D02*
X0102128Y0111255D01*
Y0112254D02*
Y0113254D01*
Y0112754D01*
X0099129D01*
X0099629Y0112254D01*
X0102628Y0114753D02*
Y0116753D01*
X0102128Y0117752D02*
Y0118752D01*
Y0118252D01*
X0099129D01*
X0099629Y0117752D01*
X0121028Y0197855D02*
Y0200854D01*
X0122528D01*
X0123028Y0200354D01*
Y0199355D01*
X0122528Y0198855D01*
X0121028D01*
X0122028D02*
X0123028Y0197855D01*
X0124027Y0200354D02*
X0124527Y0200854D01*
X0125527D01*
X0126027Y0200354D01*
Y0199855D01*
X0125527Y0199355D01*
X0125027D01*
X0125527D01*
X0126027Y0198855D01*
Y0198355D01*
X0125527Y0197855D01*
X0124527D01*
X0124027Y0198355D01*
X0127026Y0197355D02*
X0129026D01*
X0130025Y0200354D02*
X0130525Y0200854D01*
X0131525D01*
X0132025Y0200354D01*
Y0199855D01*
X0131525Y0199355D01*
X0131025D01*
X0131525D01*
X0132025Y0198855D01*
Y0198355D01*
X0131525Y0197855D01*
X0130525D01*
X0130025Y0198355D01*
X0121028Y0158155D02*
Y0161154D01*
X0122528D01*
X0123028Y0160654D01*
Y0159655D01*
X0122528Y0159155D01*
X0121028D01*
X0122028D02*
X0123028Y0158155D01*
X0124027Y0160654D02*
X0124527Y0161154D01*
X0125527D01*
X0126027Y0160654D01*
Y0160154D01*
X0125527Y0159655D01*
X0125027D01*
X0125527D01*
X0126027Y0159155D01*
Y0158655D01*
X0125527Y0158155D01*
X0124527D01*
X0124027Y0158655D01*
X0127026Y0157655D02*
X0129026D01*
X0132025Y0158155D02*
X0130025D01*
X0132025Y0160154D01*
Y0160654D01*
X0131525Y0161154D01*
X0130525D01*
X0130025Y0160654D01*
X0121528Y0117555D02*
Y0120554D01*
X0123028D01*
X0123528Y0120054D01*
Y0119055D01*
X0123028Y0118555D01*
X0121528D01*
X0122528D02*
X0123528Y0117555D01*
X0124527Y0120054D02*
X0125027Y0120554D01*
X0126027D01*
X0126527Y0120054D01*
Y0119554D01*
X0126027Y0119055D01*
X0125527D01*
X0126027D01*
X0126527Y0118555D01*
Y0118055D01*
X0126027Y0117555D01*
X0125027D01*
X0124527Y0118055D01*
X0127526Y0117055D02*
X0129526D01*
X0130525Y0117555D02*
X0131525D01*
X0131025D01*
Y0120554D01*
X0130525Y0120054D01*
X0294800Y0123600D02*
Y0126599D01*
X0296300D01*
X0296799Y0126099D01*
Y0125100D01*
X0296300Y0124600D01*
X0294800D01*
X0295800D02*
X0296799Y0123600D01*
X0299798D02*
X0297799D01*
X0299798Y0125599D01*
Y0126099D01*
X0299299Y0126599D01*
X0298299D01*
X0297799Y0126099D01*
X0300798Y0123100D02*
X0302797D01*
X0305796Y0126599D02*
X0303797D01*
Y0125100D01*
X0304797Y0125599D01*
X0305297D01*
X0305796Y0125100D01*
Y0124100D01*
X0305297Y0123600D01*
X0304297D01*
X0303797Y0124100D01*
X0334700Y0123600D02*
Y0126599D01*
X0336199D01*
X0336699Y0126099D01*
Y0125100D01*
X0336199Y0124600D01*
X0334700D01*
X0335700D02*
X0336699Y0123600D01*
X0339698D02*
X0337699D01*
X0339698Y0125599D01*
Y0126099D01*
X0339198Y0126599D01*
X0338199D01*
X0337699Y0126099D01*
X0340698Y0123100D02*
X0342697D01*
X0345197Y0123600D02*
Y0126599D01*
X0343697Y0125100D01*
X0345696D01*
X0374500Y0123600D02*
Y0126599D01*
X0375999D01*
X0376499Y0126099D01*
Y0125100D01*
X0375999Y0124600D01*
X0374500D01*
X0375500D02*
X0376499Y0123600D01*
X0379498D02*
X0377499D01*
X0379498Y0125599D01*
Y0126099D01*
X0378998Y0126599D01*
X0377999D01*
X0377499Y0126099D01*
X0380498Y0123100D02*
X0382497D01*
X0383497Y0126099D02*
X0383997Y0126599D01*
X0384997D01*
X0385496Y0126099D01*
Y0125599D01*
X0384997Y0125100D01*
X0384497D01*
X0384997D01*
X0385496Y0124600D01*
Y0124100D01*
X0384997Y0123600D01*
X0383997D01*
X0383497Y0124100D01*
X0414800Y0124000D02*
Y0126999D01*
X0416299D01*
X0416799Y0126499D01*
Y0125499D01*
X0416299Y0125000D01*
X0414800D01*
X0415800D02*
X0416799Y0124000D01*
X0419798D02*
X0417799D01*
X0419798Y0125999D01*
Y0126499D01*
X0419299Y0126999D01*
X0418299D01*
X0417799Y0126499D01*
X0420798Y0123500D02*
X0422797D01*
X0425796Y0124000D02*
X0423797D01*
X0425796Y0125999D01*
Y0126499D01*
X0425297Y0126999D01*
X0424297D01*
X0423797Y0126499D01*
X0455800Y0123900D02*
Y0126899D01*
X0457300D01*
X0457799Y0126399D01*
Y0125399D01*
X0457300Y0124900D01*
X0455800D01*
X0456800D02*
X0457799Y0123900D01*
X0460798D02*
X0458799D01*
X0460798Y0125899D01*
Y0126399D01*
X0460298Y0126899D01*
X0459299D01*
X0458799Y0126399D01*
X0461798Y0123400D02*
X0463797D01*
X0464797Y0123900D02*
X0465797D01*
X0465297D01*
Y0126899D01*
X0464797Y0126399D01*
X0500099Y0101099D02*
X0499600Y0101599D01*
X0498600D01*
X0498100Y0101099D01*
Y0099100D01*
X0498600Y0098600D01*
X0499600D01*
X0500099Y0099100D01*
X0501099Y0098100D02*
X0503098D01*
X0506097Y0101599D02*
X0505098D01*
X0505598D01*
Y0099100D01*
X0505098Y0098600D01*
X0504598D01*
X0504098Y0099100D01*
X0507097Y0098600D02*
X0508097D01*
X0507597D01*
Y0101599D01*
X0507097Y0101099D01*
D16*
X0524639Y0106424D02*
X0523496Y0109424D01*
X0522354Y0106424D01*
X0522782Y0107424D02*
X0524210D01*
X0525339Y0108424D02*
Y0106995D01*
X0525481Y0106567D01*
X0525767Y0106424D01*
X0526196D01*
X0526481Y0106567D01*
X0526910Y0106995D01*
Y0108424D02*
Y0106424D01*
X0527695Y0108424D02*
X0529266Y0106424D01*
Y0108424D02*
X0527695Y0106424D01*
X0530180Y0109424D02*
X0530323Y0109281D01*
X0530466Y0109424D01*
X0530323Y0109566D01*
X0530180Y0109424D01*
X0530323Y0108424D02*
Y0106424D01*
X0530995Y0109424D02*
Y0106424D01*
X0531909Y0109424D02*
X0532052Y0109281D01*
X0532194Y0109424D01*
X0532052Y0109566D01*
X0531909Y0109424D01*
X0532052Y0108424D02*
Y0106424D01*
X0534437Y0108424D02*
Y0106424D01*
Y0107995D02*
X0534151Y0108281D01*
X0533865Y0108424D01*
X0533437D01*
X0533151Y0108281D01*
X0532866Y0107995D01*
X0532723Y0107567D01*
Y0107281D01*
X0532866Y0106853D01*
X0533151Y0106567D01*
X0533437Y0106424D01*
X0533865D01*
X0534151Y0106567D01*
X0534437Y0106853D01*
X0535237Y0108424D02*
Y0106424D01*
Y0107567D02*
X0535379Y0107995D01*
X0535665Y0108281D01*
X0535951Y0108424D01*
X0536379D01*
X0536793D02*
X0537650Y0106424D01*
X0538507Y0108424D02*
X0537650Y0106424D01*
X0537365Y0105853D01*
X0537079Y0105567D01*
X0536793Y0105424D01*
X0536651D01*
X0541364Y0107852D02*
X0542649D01*
X0543078Y0107995D01*
X0543221Y0108138D01*
X0543363Y0108424D01*
Y0108852D01*
X0543221Y0109138D01*
X0543078Y0109281D01*
X0542649Y0109424D01*
X0541364D01*
Y0106424D01*
X0544749Y0108424D02*
X0544463Y0108281D01*
X0544177Y0107995D01*
X0544035Y0107567D01*
Y0107281D01*
X0544177Y0106853D01*
X0544463Y0106567D01*
X0544749Y0106424D01*
X0545177D01*
X0545463Y0106567D01*
X0545749Y0106853D01*
X0545891Y0107281D01*
Y0107567D01*
X0545749Y0107995D01*
X0545463Y0108281D01*
X0545177Y0108424D01*
X0544749D01*
X0546548D02*
X0547120Y0106424D01*
X0547691Y0108424D02*
X0547120Y0106424D01*
X0547691Y0108424D02*
X0548262Y0106424D01*
X0548834Y0108424D02*
X0548262Y0106424D01*
X0549533Y0107567D02*
X0551247D01*
Y0107852D01*
X0551104Y0108138D01*
X0550962Y0108281D01*
X0550676Y0108424D01*
X0550248D01*
X0549962Y0108281D01*
X0549676Y0107995D01*
X0549533Y0107567D01*
Y0107281D01*
X0549676Y0106853D01*
X0549962Y0106567D01*
X0550248Y0106424D01*
X0550676D01*
X0550962Y0106567D01*
X0551247Y0106853D01*
X0551890Y0108424D02*
Y0106424D01*
Y0107567D02*
X0552033Y0107995D01*
X0552318Y0108281D01*
X0552604Y0108424D01*
X0553033D01*
X0557660Y0108995D02*
X0557375Y0109281D01*
X0556946Y0109424D01*
X0556375D01*
X0555946Y0109281D01*
X0555661Y0108995D01*
Y0108709D01*
X0555803Y0108424D01*
X0555946Y0108281D01*
X0556232Y0108138D01*
X0557089Y0107852D01*
X0557375Y0107710D01*
X0557517Y0107567D01*
X0557660Y0107281D01*
Y0106853D01*
X0557375Y0106567D01*
X0556946Y0106424D01*
X0556375D01*
X0555946Y0106567D01*
X0555661Y0106853D01*
X0558331Y0108424D02*
Y0106995D01*
X0558474Y0106567D01*
X0558760Y0106424D01*
X0559189D01*
X0559474Y0106567D01*
X0559903Y0106995D01*
Y0108424D02*
Y0106424D01*
X0560688Y0108424D02*
Y0105424D01*
Y0107995D02*
X0560974Y0108281D01*
X0561260Y0108424D01*
X0561688D01*
X0561974Y0108281D01*
X0562259Y0107995D01*
X0562402Y0107567D01*
Y0107281D01*
X0562259Y0106853D01*
X0561974Y0106567D01*
X0561688Y0106424D01*
X0561260D01*
X0560974Y0106567D01*
X0560688Y0106853D01*
X0563045Y0108424D02*
Y0105424D01*
Y0107995D02*
X0563331Y0108281D01*
X0563616Y0108424D01*
X0564045D01*
X0564330Y0108281D01*
X0564616Y0107995D01*
X0564759Y0107567D01*
Y0107281D01*
X0564616Y0106853D01*
X0564330Y0106567D01*
X0564045Y0106424D01*
X0563616D01*
X0563331Y0106567D01*
X0563045Y0106853D01*
X0565402Y0109424D02*
Y0106424D01*
X0566173Y0108424D02*
X0567030Y0106424D01*
X0567887Y0108424D02*
X0567030Y0106424D01*
X0566744Y0105853D01*
X0566458Y0105567D01*
X0566173Y0105424D01*
X0566030D01*
X0537488Y0082513D02*
X0537345Y0082798D01*
X0537060Y0083084D01*
X0536774Y0083227D01*
X0536203D01*
X0535917Y0083084D01*
X0535631Y0082798D01*
X0535489Y0082513D01*
X0535346Y0082084D01*
Y0081370D01*
X0535489Y0080942D01*
X0535631Y0080656D01*
X0535917Y0080370D01*
X0536203Y0080228D01*
X0536774D01*
X0537060Y0080370D01*
X0537345Y0080656D01*
X0537488Y0080942D01*
Y0081370D01*
X0536774D02*
X0537488D01*
X0538174Y0083227D02*
Y0080228D01*
Y0083227D02*
X0540173Y0080228D01*
Y0083227D02*
Y0080228D01*
X0541002Y0083227D02*
Y0080228D01*
Y0083227D02*
X0542001D01*
X0542430Y0083084D01*
X0542716Y0082798D01*
X0542858Y0082513D01*
X0543001Y0082084D01*
Y0081370D01*
X0542858Y0080942D01*
X0542716Y0080656D01*
X0542430Y0080370D01*
X0542001Y0080228D01*
X0541002D01*
X0504135Y0083227D02*
X0505706D01*
X0504849Y0082084D01*
X0505278D01*
X0505563Y0081941D01*
X0505706Y0081799D01*
X0505849Y0081370D01*
Y0081085D01*
X0505706Y0080656D01*
X0505421Y0080370D01*
X0504992Y0080228D01*
X0504564D01*
X0504135Y0080370D01*
X0503992Y0080513D01*
X0503850Y0080799D01*
X0506521Y0083227D02*
X0507663Y0080228D01*
X0508806Y0083227D02*
X0507663Y0080228D01*
X0509477Y0083227D02*
X0511048D01*
X0510191Y0082084D01*
X0510620D01*
X0510905Y0081941D01*
X0511048Y0081799D01*
X0511191Y0081370D01*
Y0081085D01*
X0511048Y0080656D01*
X0510762Y0080370D01*
X0510334Y0080228D01*
X0509905D01*
X0509477Y0080370D01*
X0509334Y0080513D01*
X0509191Y0080799D01*
X0128970Y0054243D02*
X0127827Y0057243D01*
X0126684Y0054243D01*
X0127113Y0055243D02*
X0128541D01*
X0129669Y0056243D02*
Y0054815D01*
X0129812Y0054386D01*
X0130098Y0054243D01*
X0130526D01*
X0130812Y0054386D01*
X0131240Y0054815D01*
Y0056243D02*
Y0054243D01*
X0132454Y0057243D02*
Y0054815D01*
X0132597Y0054386D01*
X0132883Y0054243D01*
X0133169D01*
X0132026Y0056243D02*
X0133026D01*
X0133597Y0057243D02*
Y0054243D01*
Y0055672D02*
X0134026Y0056100D01*
X0134311Y0056243D01*
X0134740D01*
X0135025Y0056100D01*
X0135168Y0055672D01*
Y0054243D01*
X0136668Y0056243D02*
X0136382Y0056100D01*
X0136097Y0055814D01*
X0135954Y0055386D01*
Y0055100D01*
X0136097Y0054672D01*
X0136382Y0054386D01*
X0136668Y0054243D01*
X0137096D01*
X0137382Y0054386D01*
X0137668Y0054672D01*
X0137810Y0055100D01*
Y0055386D01*
X0137668Y0055814D01*
X0137382Y0056100D01*
X0137096Y0056243D01*
X0136668D01*
X0138468D02*
Y0054243D01*
Y0055386D02*
X0138610Y0055814D01*
X0138896Y0056100D01*
X0139182Y0056243D01*
X0139610D01*
X0140024D02*
X0139881Y0056100D01*
X0140024Y0055957D01*
X0140167Y0056100D01*
X0140024Y0056243D01*
Y0054529D02*
X0139881Y0054386D01*
X0140024Y0054243D01*
X0140167Y0054386D01*
X0140024Y0054529D01*
X0143181Y0055672D02*
X0144466D01*
X0144895Y0055814D01*
X0145037Y0055957D01*
X0145180Y0056243D01*
Y0056671D01*
X0145037Y0056957D01*
X0144895Y0057100D01*
X0144466Y0057243D01*
X0143181D01*
Y0054243D01*
X0147565Y0056243D02*
Y0054243D01*
Y0055814D02*
X0147280Y0056100D01*
X0146994Y0056243D01*
X0146566D01*
X0146280Y0056100D01*
X0145994Y0055814D01*
X0145852Y0055386D01*
Y0055100D01*
X0145994Y0054672D01*
X0146280Y0054386D01*
X0146566Y0054243D01*
X0146994D01*
X0147280Y0054386D01*
X0147565Y0054672D01*
X0148365Y0056243D02*
X0148937Y0054243D01*
X0149508Y0056243D02*
X0148937Y0054243D01*
X0149508Y0056243D02*
X0150079Y0054243D01*
X0150651Y0056243D02*
X0150079Y0054243D01*
X0151350Y0055386D02*
X0153064D01*
Y0055672D01*
X0152921Y0055957D01*
X0152779Y0056100D01*
X0152493Y0056243D01*
X0152065D01*
X0151779Y0056100D01*
X0151493Y0055814D01*
X0151350Y0055386D01*
Y0055100D01*
X0151493Y0054672D01*
X0151779Y0054386D01*
X0152065Y0054243D01*
X0152493D01*
X0152779Y0054386D01*
X0153064Y0054672D01*
X0153707Y0057243D02*
Y0054243D01*
X0156692Y0057243D02*
X0157406Y0054243D01*
X0158120Y0057243D02*
X0157406Y0054243D01*
X0158120Y0057243D02*
X0158835Y0054243D01*
X0159549Y0057243D02*
X0158835Y0054243D01*
X0160434Y0057243D02*
X0160577Y0057100D01*
X0160720Y0057243D01*
X0160577Y0057385D01*
X0160434Y0057243D01*
X0160577Y0056243D02*
Y0054243D01*
X0161248Y0057243D02*
Y0054243D01*
X0162677Y0056243D02*
X0161248Y0054815D01*
X0161820Y0055386D02*
X0162819Y0054243D01*
X0163719Y0057243D02*
Y0054815D01*
X0163862Y0054386D01*
X0164148Y0054243D01*
X0164433D01*
X0163291Y0056243D02*
X0164290D01*
X0165576D02*
X0165290Y0056100D01*
X0165005Y0055814D01*
X0164862Y0055386D01*
Y0055100D01*
X0165005Y0054672D01*
X0165290Y0054386D01*
X0165576Y0054243D01*
X0166004D01*
X0166290Y0054386D01*
X0166576Y0054672D01*
X0166718Y0055100D01*
Y0055386D01*
X0166576Y0055814D01*
X0166290Y0056100D01*
X0166004Y0056243D01*
X0165576D01*
X0167376D02*
Y0054243D01*
Y0055386D02*
X0167518Y0055814D01*
X0167804Y0056100D01*
X0168090Y0056243D01*
X0168518D01*
X0126684Y0052125D02*
Y0049125D01*
Y0052125D02*
X0127684D01*
X0128112Y0051982D01*
X0128398Y0051696D01*
X0128541Y0051410D01*
X0128684Y0050982D01*
Y0050268D01*
X0128541Y0049839D01*
X0128398Y0049554D01*
X0128112Y0049268D01*
X0127684Y0049125D01*
X0126684D01*
X0131069Y0051125D02*
Y0049125D01*
Y0050696D02*
X0130783Y0050982D01*
X0130498Y0051125D01*
X0130069D01*
X0129784Y0050982D01*
X0129498Y0050696D01*
X0129355Y0050268D01*
Y0049982D01*
X0129498Y0049554D01*
X0129784Y0049268D01*
X0130069Y0049125D01*
X0130498D01*
X0130783Y0049268D01*
X0131069Y0049554D01*
X0132297Y0052125D02*
Y0049696D01*
X0132440Y0049268D01*
X0132726Y0049125D01*
X0133011D01*
X0131869Y0051125D02*
X0132869D01*
X0133440Y0050268D02*
X0135154D01*
Y0050554D01*
X0135011Y0050839D01*
X0134868Y0050982D01*
X0134583Y0051125D01*
X0134154D01*
X0133868Y0050982D01*
X0133583Y0050696D01*
X0133440Y0050268D01*
Y0049982D01*
X0133583Y0049554D01*
X0133868Y0049268D01*
X0134154Y0049125D01*
X0134583D01*
X0134868Y0049268D01*
X0135154Y0049554D01*
X0135939Y0051125D02*
X0135797Y0050982D01*
X0135939Y0050839D01*
X0136082Y0050982D01*
X0135939Y0051125D01*
Y0049411D02*
X0135797Y0049268D01*
X0135939Y0049125D01*
X0136082Y0049268D01*
X0135939Y0049411D01*
X0139096Y0051553D02*
X0139382Y0051696D01*
X0139810Y0052125D01*
Y0049125D01*
X0142152Y0052125D02*
X0141724Y0051982D01*
X0141438Y0051553D01*
X0141295Y0050839D01*
Y0050411D01*
X0141438Y0049696D01*
X0141724Y0049268D01*
X0142152Y0049125D01*
X0142438D01*
X0142867Y0049268D01*
X0143152Y0049696D01*
X0143295Y0050411D01*
Y0050839D01*
X0143152Y0051553D01*
X0142867Y0051982D01*
X0142438Y0052125D01*
X0142152D01*
X0144109Y0049411D02*
X0143966Y0049268D01*
X0144109Y0049125D01*
X0144252Y0049268D01*
X0144109Y0049411D01*
X0145052Y0051410D02*
Y0051553D01*
X0145195Y0051839D01*
X0145337Y0051982D01*
X0145623Y0052125D01*
X0146194D01*
X0146480Y0051982D01*
X0146623Y0051839D01*
X0146766Y0051553D01*
Y0051268D01*
X0146623Y0050982D01*
X0146337Y0050554D01*
X0144909Y0049125D01*
X0146908D01*
X0148437Y0052125D02*
X0148008Y0051982D01*
X0147723Y0051553D01*
X0147580Y0050839D01*
Y0050411D01*
X0147723Y0049696D01*
X0148008Y0049268D01*
X0148437Y0049125D01*
X0148722D01*
X0149151Y0049268D01*
X0149437Y0049696D01*
X0149579Y0050411D01*
Y0050839D01*
X0149437Y0051553D01*
X0149151Y0051982D01*
X0148722Y0052125D01*
X0148437D01*
X0150393Y0051410D02*
Y0051553D01*
X0150536Y0051839D01*
X0150679Y0051982D01*
X0150965Y0052125D01*
X0151536D01*
X0151822Y0051982D01*
X0151965Y0051839D01*
X0152107Y0051553D01*
Y0051268D01*
X0151965Y0050982D01*
X0151679Y0050554D01*
X0150251Y0049125D01*
X0152250D01*
X0153207Y0052125D02*
X0154778D01*
X0153921Y0050982D01*
X0154350D01*
X0154635Y0050839D01*
X0154778Y0050696D01*
X0154921Y0050268D01*
Y0049982D01*
X0154778Y0049554D01*
X0154493Y0049268D01*
X0154064Y0049125D01*
X0153636D01*
X0153207Y0049268D01*
X0153064Y0049411D01*
X0152921Y0049696D01*
M02*
